<svg xmlns="http://www.w3.org/2000/svg" xmlns:xlink="http://www.w3.org/1999/xlink" xmlns:lucid="lucid" width="2661" height="1281"><g transform="translate(2160.5 60.5)" lucid:page-tab-id="oJ8wUjeMzaiJ"><path d="M-2500-500h3500v2000h-3500z" fill="#fff"/><path d="M-1440-52a8 8 0 0 1 8-8h84a8 8 0 0 1 8 8v4.93a17.07 17.07 0 0 1-5 12.07 17.07 17.07 0 0 1-12.07 5H-1432a8 8 0 0 1-8-8z" fill="#fff"/><path d="M-1340-60v20l-10 10h-90" stroke="#333" fill="none"/><path d="M-1440-52a8 8 0 0 1 8-8h1184a8 8 0 0 1 8 8v204a8 8 0 0 1-8 8h-1184a8 8 0 0 1-8-8z" stroke="#333" fill="none"/><use xlink:href="#a" transform="matrix(1,0,0,1,-1432,-60) translate(2.55555555555555 18.555555555555557)"/><path d="M-1840 228a8 8 0 0 1 8-8h84a8 8 0 0 1 8 8v4.93a17.07 17.07 0 0 1-5 12.07 17.07 17.07 0 0 1-12.07 5H-1832a8 8 0 0 1-8-8z" fill="#fff"/><path d="M-1740 220v20l-10 10h-90" stroke="#333" fill="none"/><path d="M-1840 228a8 8 0 0 1 8-8H212a8 8 0 0 1 8 8v444a8 8 0 0 1-8 8h-2044a8 8 0 0 1-8-8z" stroke="#333" fill="none"/><use xlink:href="#b" transform="matrix(1,0,0,1,-1832,220) translate(5.962962962962962 18.555555555555557)"/><path d="M-2160 748a8 8 0 0 1 8-8h84a8 8 0 0 1 8 8v4.93a17.07 17.07 0 0 1-5 12.07 17.07 17.07 0 0 1-12.07 5H-2152a8 8 0 0 1-8-8z" fill="#fff"/><path d="M-2060 740v20l-10 10h-90" stroke="#333" fill="none"/><path d="M-2160 748a8 8 0 0 1 8-8H492a8 8 0 0 1 8 8v464a8 8 0 0 1-8 8h-2644a8 8 0 0 1-8-8z" stroke="#333" fill="none"/><use xlink:href="#c" transform="matrix(1,0,0,1,-2152,740) translate(18.33333333333333 18.555555555555557)"/><path d="M-1104 18.67c-8.84 0-16 7.16-16 16v48c0 8.83 7.16 16 16 16h128c8.84 0 16-7.17 16-16v-48c0-8.84-7.16-16-16-16z" stroke="#000" stroke-opacity="0" fill="#75b2ff"/><use xlink:href="#d" transform="matrix(1,0,0,1,-1112,26.66666666666673) translate(54.2716049382716 35.55555555555556)"/><path d="M-698.25 18.67c-8.83 0-16 7.16-16 16v48c0 8.83 7.17 16 16 16h128c8.84 0 16-7.17 16-16v-48c0-8.84-7.16-16-16-16z" stroke="#000" stroke-opacity="0" fill="#75b2ff"/><use xlink:href="#e" transform="matrix(1,0,0,1,-706.2468665943284,26.66666666666673) translate(40.93827160493827 35.55555555555556)"/><path d="M-1360 60c0 11.05-8.95 20-20 20s-20-8.95-20-20 8.95-20 20-20 20 8.95 20 20z" stroke="#666"/><path d="M-1359 60h222.62" stroke="#333" fill="none"/><path d="M-1359 60.48h-.56l.06-.46-.02-.5h.53z" stroke="#333" stroke-width=".05" fill="#333"/><path d="M-1121.62 60l-14.27 4.64.02-9.27z" stroke="#333" fill="#333"/><path d="M-1365.75 6a6 6 0 0 1 6-6h228a6 6 0 0 1 6 6v48a6 6 0 0 1-6 6h-228a6 6 0 0 1-6-6z" fill="none"/><use xlink:href="#f" transform="matrix(1,0,0,1,-1365.7531334056716,0) translate(31.349999999999994 33.6)"/><use xlink:href="#g" transform="matrix(1,0,0,1,-1365.7531334056716,0) translate(117.3 33.6)"/><use xlink:href="#h" transform="matrix(1,0,0,1,-1365.7531334056716,0) translate(178.15 33.6)"/><use xlink:href="#i" transform="matrix(1,0,0,1,-1365.7531334056716,0) translate(193.65 33.6)"/><path d="M-959.5 58.67h228.87" stroke="#333" fill="none"/><path d="M-959.5 59.14h-.5v-.95h.5z" stroke="#333" stroke-width=".05" fill="#333"/><path d="M-715.87 58.67l-14.26 4.63v-9.27z" stroke="#333" fill="#333"/><path d="M-960 6a6 6 0 0 1 6-6h228a6 6 0 0 1 6 6v48a6 6 0 0 1-6 6h-228a6 6 0 0 1-6-6z" fill="none"/><use xlink:href="#f" transform="matrix(1,0,0,1,-960,0) translate(26.099999999999994 33.6)"/><use xlink:href="#g" transform="matrix(1,0,0,1,-960,0) translate(112.05 33.6)"/><use xlink:href="#j" transform="matrix(1,0,0,1,-960,0) translate(172.9 33.6)"/><use xlink:href="#k" transform="matrix(1,0,0,1,-960,0) translate(198.9 33.6)"/><path d="M-260 60c0 11.05-8.95 20-20 20s-20-8.95-20-20 8.95-20 20-20 20 8.95 20 20z" stroke="#666" fill="#fff"/><path d="M-268 60c0 6.63-5.37 12-12 12s-12-5.37-12-12 5.37-12 12-12 12 5.37 12 12z" stroke="#666"/><path d="M-553.75 58.67h237.04" stroke="#333" fill="none"/><path d="M-553.73 59.14h-.52v-.95h.52z" stroke="#333" stroke-width=".05" fill="#333"/><path d="M-301.96 58.67l-14.26 4.63v-9.27z" stroke="#333" fill="#333"/><path d="M-554.25 6a6 6 0 0 1 6-6h228a6 6 0 0 1 6 6v48a6 6 0 0 1-6 6h-228a6 6 0 0 1-6-6z" fill="none"/><use xlink:href="#l" transform="matrix(1,0,0,1,-554.2468665943284,0) translate(31.625 22.799999999999997)"/><use xlink:href="#m" transform="matrix(1,0,0,1,-554.2468665943284,0) translate(101.625 22.799999999999997)"/><use xlink:href="#n" transform="matrix(1,0,0,1,-554.2468665943284,0) translate(195.425 22.799999999999997)"/><use xlink:href="#o" transform="matrix(1,0,0,1,-554.2468665943284,0) translate(90.525 44.4)"/><path d="M-899.5 338.67h223.12" stroke="#333" fill="none"/><path d="M-899.5 339.14h-.5v-.95h.5z" stroke="#333" stroke-width=".05" fill="#333"/><path d="M-661.62 338.67l-14.26 4.63v-9.27z" stroke="#333" fill="#333"/><path d="M-900 286a6 6 0 0 1 6-6h228a6 6 0 0 1 6 6v48a6 6 0 0 1-6 6h-228a6 6 0 0 1-6-6z" fill="none"/><use xlink:href="#p" transform="matrix(1,0,0,1,-900,280) translate(22.174999999999997 33.6)"/><use xlink:href="#q" transform="matrix(1,0,0,1,-900,280) translate(137.025 33.6)"/><use xlink:href="#r" transform="matrix(1,0,0,1,-900,280) translate(154.97500000000002 33.6)"/><path d="M-1824 818.67c-8.84 0-16 7.16-16 16v48c0 8.83 7.16 16 16 16h128c8.84 0 16-7.17 16-16v-48c0-8.84-7.16-16-16-16z" stroke="#000" stroke-opacity="0" fill="#75b2ff"/><use xlink:href="#s" transform="matrix(1,0,0,1,-1832,826.6666666666667) translate(30.04938271604938 35.55555555555556)"/><use xlink:href="#t" transform="matrix(1,0,0,1,-1832,826.6666666666667) translate(49.80246913580247 35.55555555555556)"/><path d="M-1418.25 818.67c-8.83 0-16 7.16-16 16v48c0 8.83 7.17 16 16 16h128c8.84 0 16-7.17 16-16v-48c0-8.84-7.16-16-16-16z" stroke="#000" stroke-opacity="0" fill="#75b2ff"/><use xlink:href="#u" transform="matrix(1,0,0,1,-1426.2468665943284,826.6666666666667) translate(39.456790123456784 35.55555555555556)"/><path d="M-2080 860c0 11.05-8.95 20-20 20s-20-8.95-20-20 8.95-20 20-20 20 8.95 20 20z" stroke="#666"/><path d="M-2079 860h222.62" stroke="#333" fill="none"/><path d="M-2079 860.48h-.56l.06-.46-.02-.5h.53z" stroke="#333" stroke-width=".05" fill="#333"/><path d="M-1841.62 860l-14.26 4.63v-9.26z" stroke="#333" fill="#333"/><path d="M-2085.75 806a6 6 0 0 1 6-6h228a6 6 0 0 1 6 6v48a6 6 0 0 1-6 6h-228a6 6 0 0 1-6-6z" fill="none"/><use xlink:href="#v" transform="matrix(1,0,0,1,-2085.7531334056716,800) translate(55.599999999999994 33.6)"/><use xlink:href="#q" transform="matrix(1,0,0,1,-2085.7531334056716,800) translate(106.5 33.6)"/><use xlink:href="#w" transform="matrix(1,0,0,1,-2085.7531334056716,800) translate(124.45 33.6)"/><path d="M-1679.5 858.67h228.87" stroke="#333" fill="none"/><path d="M-1679.5 859.14h-.5v-.95h.5z" stroke="#333" stroke-width=".05" fill="#333"/><path d="M-1435.87 858.67l-14.26 4.63v-9.27z" stroke="#333" fill="#333"/><path d="M-1680 806a6 6 0 0 1 6-6h228a6 6 0 0 1 6 6v48a6 6 0 0 1-6 6h-228a6 6 0 0 1-6-6z" fill="none"/><use xlink:href="#x" transform="matrix(1,0,0,1,-1680,800) translate(24.174999999999997 33.6)"/><use xlink:href="#y" transform="matrix(1,0,0,1,-1680,800) translate(107.025 33.6)"/><use xlink:href="#z" transform="matrix(1,0,0,1,-1680,800) translate(173.925 33.6)"/><path d="M-1273.75 858.67h228.87" stroke="#333" fill="none"/><path d="M-1273.73 859.14h-.52v-.95h.52z" stroke="#333" stroke-width=".05" fill="#333"/><path d="M-1030.1 858.67l-14.28 4.63v-9.27z" stroke="#333" fill="#333"/><path d="M-1274.25 806a6 6 0 0 1 6-6h228a6 6 0 0 1 6 6v48a6 6 0 0 1-6 6h-228a6 6 0 0 1-6-6z" fill="none"/><use xlink:href="#v" transform="matrix(1,0,0,1,-1274.2468665943284,800) translate(40.125 22.799999999999997)"/><use xlink:href="#A" transform="matrix(1,0,0,1,-1274.2468665943284,800) translate(91.025 22.799999999999997)"/><use xlink:href="#B" transform="matrix(1,0,0,1,-1274.2468665943284,800) translate(130.025 22.799999999999997)"/><use xlink:href="#C" transform="matrix(1,0,0,1,-1274.2468665943284,800) translate(155.97500000000002 22.799999999999997)"/><use xlink:href="#D" transform="matrix(1,0,0,1,-1274.2468665943284,800) translate(68.57499999999999 44.4)"/><path d="M-204 301.08c-8.84 0-16 7.17-16 16v48c0 8.84 7.16 16 16 16h128c8.84 0 16-7.16 16-16v-48c0-8.83-7.16-16-16-16z" stroke="#000" stroke-opacity="0" fill="#75b2ff"/><use xlink:href="#E" transform="matrix(1,0,0,1,-212,309.08333333333337) translate(33.99999999999999 35.55555555555556)"/><path d="M-644 298.67c-8.84 0-16 7.16-16 16v48c0 8.83 7.16 16 16 16h128c8.84 0 16-7.17 16-16v-48c0-8.84-7.16-16-16-16z" stroke="#000" stroke-opacity="0" fill="#75b2ff"/><use xlink:href="#F" transform="matrix(1,0,0,1,-652,306.66666666666674) translate(29.58024691358024 35.55555555555556)"/><path d="M-499.5 338.67h265" stroke="#3a414a" fill="none"/><path d="M-499.5 339.14h-.5v-.95h.5z" stroke="#3a414a" stroke-width=".05" fill="#3a414a"/><path d="M-221 338.67l-13 7.5v-15z" stroke="#3a414a" fill="#3a414a"/><path d="M-480 286a6 6 0 0 1 6-6h228a6 6 0 0 1 6 6v48a6 6 0 0 1-6 6h-228a6 6 0 0 1-6-6z" fill="none"/><use xlink:href="#G" transform="matrix(1,0,0,1,-480,280) translate(39.099999999999994 33.6)"/><use xlink:href="#q" transform="matrix(1,0,0,1,-480,280) translate(115.05 33.6)"/><use xlink:href="#H" transform="matrix(1,0,0,1,-480,280) translate(133 33.6)"/><path d="M-1424 1020c-8.84 0-16 7.16-16 16v48c0 8.84 7.16 16 16 16h128c8.84 0 16-7.16 16-16v-48c0-8.84-7.16-16-16-16z" stroke="#000" stroke-opacity="0" fill="#75b2ff"/><use xlink:href="#I" transform="matrix(1,0,0,1,-1432,1028) translate(43.90123456790123 35.55555555555556)"/><path d="M340 1020c0 11.05-8.95 20-20 20s-20-8.95-20-20 8.95-20 20-20 20 8.95 20 20z" stroke="#666" fill="#fff"/><path d="M332 1020c0 6.63-5.37 12-12 12s-12-5.37-12-12 5.37-12 12-12 12 5.37 12 12z" stroke="#666"/><path d="M-1012.5 818.67c-8.83 0-16 7.16-16 16v48c0 8.83 7.17 16 16 16h128c8.84 0 16-7.17 16-16v-48c0-8.84-7.16-16-16-16z" stroke="#000" stroke-opacity="0" fill="#75b2ff"/><use xlink:href="#J" transform="matrix(1,0,0,1,-1020.4937331886567,826.6666666666667) translate(28.09876543209876 35.55555555555556)"/><path d="M-584 820c-8.84 0-16 7.16-16 16v48c0 8.84 7.16 16 16 16h128c8.84 0 16-7.16 16-16v-48c0-8.84-7.16-16-16-16z" stroke="#000" stroke-opacity="0" fill="#75b2ff"/><use xlink:href="#K" transform="matrix(1,0,0,1,-592,828) translate(44.864197530864196 35.55555555555556)"/><path d="M-868 858.67h253.5" stroke="#3a414a" fill="none"/><path d="M-867.98 859.14h-.5v-.95h.5z" stroke="#3a414a" stroke-width=".05" fill="#3a414a"/><path d="M-601 858.67l-13 7.5v-15z" stroke="#3a414a" fill="#3a414a"/><path d="M-860 806a6 6 0 0 1 6-6h228a6 6 0 0 1 6 6v48a6 6 0 0 1-6 6h-228a6 6 0 0 1-6-6z" fill="none"/><use xlink:href="#L" transform="matrix(1,0,0,1,-860,800) translate(2.8000000000000114 33.6)"/><use xlink:href="#M" transform="matrix(1,0,0,1,-860,800) translate(83.75000000000001 33.6)"/><use xlink:href="#h" transform="matrix(1,0,0,1,-860,800) translate(139.75 33.6)"/><use xlink:href="#N" transform="matrix(1,0,0,1,-860,800) translate(155.25 33.6)"/><path d="M-164 825.95c-8.84 0-16 7.16-16 16v48c0 8.83 7.16 16 16 16h128c8.84 0 16-7.17 16-16v-48c0-8.84-7.16-16-16-16z" stroke="#000" stroke-opacity="0" fill="#75b2ff"/><use xlink:href="#O" transform="matrix(1,0,0,1,-172,833.9485725089643) translate(39.432098765432094 35.55555555555556)"/><path d="M-439.5 860h245" stroke="#3a414a" fill="none"/><path d="M-439.5 860.48h-.5v-.96h.5z" stroke="#3a414a" stroke-width=".05" fill="#3a414a"/><path d="M-181 860l-13 7.5v-15z" stroke="#3a414a" fill="#3a414a"/><path d="M-440 806a6 6 0 0 1 6-6h228a6 6 0 0 1 6 6v48a6 6 0 0 1-6 6h-228a6 6 0 0 1-6-6z" fill="none"/><use xlink:href="#v" transform="matrix(1,0,0,1,-440,800) translate(28.099999999999994 33.6)"/><use xlink:href="#A" transform="matrix(1,0,0,1,-440,800) translate(79 33.6)"/><use xlink:href="#P" transform="matrix(1,0,0,1,-440,800) translate(118 33.6)"/><use xlink:href="#Q" transform="matrix(1,0,0,1,-440,800) translate(138 33.6)"/><path d="M256 824.03c-8.84 0-16 7.16-16 16v48c0 8.84 7.16 16 16 16h128c8.84 0 16-7.16 16-16v-48c0-8.84-7.16-16-16-16z" stroke="#000" stroke-opacity="0" fill="#75b2ff"/><use xlink:href="#R" transform="matrix(1,0,0,1,248,832.0285091552859) translate(0.46913580246913966 24.888888888888886)"/><use xlink:href="#S" transform="matrix(1,0,0,1,248,832.0285091552859) translate(82.2962962962963 24.888888888888886)"/><use xlink:href="#T" transform="matrix(1,0,0,1,248,832.0285091552859) translate(36 46.22222222222222)"/><path d="M-19.5 865.95h245" stroke="#3a414a" fill="none"/><path d="M-19.5 866.42h-.5v-.95h.5z" stroke="#3a414a" stroke-width=".05" fill="#3a414a"/><path d="M239 865.95l-13 7.5v-15z" stroke="#3a414a" fill="#3a414a"/><path d="M-10 806a6 6 0 0 1 6-6h228a6 6 0 0 1 6 6v48a6 6 0 0 1-6 6H-4a6 6 0 0 1-6-6z" fill="none"/><use xlink:href="#x" transform="matrix(1,0,0,1,-10,800) translate(8.624999999999986 33.6)"/><use xlink:href="#U" transform="matrix(1,0,0,1,-10,800) translate(91.475 33.6)"/><use xlink:href="#V" transform="matrix(1,0,0,1,-10,800) translate(158.47500000000002 33.6)"/><path d="M320 904.53V985" stroke="#3a414a" fill="none"/><path d="M320.48 904.54h-.96v-.5h.96z" stroke="#3a414a" stroke-width=".05" fill="#3a414a"/><path d="M320 998.5l-7.5-13h15z" stroke="#3a414a" fill="#3a414a"/><path d="M320 918a6 6 0 0 1 6-6h130.6a6 6 0 0 1 6 6v68a6 6 0 0 1-6 6H326a6 6 0 0 1-6-6z" fill="none"/><use xlink:href="#v" transform="matrix(1,0,0,1,319.9999999999998,912.014254577643) translate(11.099999999999994 43.6)"/><use xlink:href="#q" transform="matrix(1,0,0,1,319.9999999999998,912.014254577643) translate(62 43.6)"/><use xlink:href="#W" transform="matrix(1,0,0,1,319.9999999999998,912.014254577643) translate(79.95 43.6)"/><path d="M-948.5 899.17V1054a6 6 0 0 1-6 6h-311" stroke="#3a414a" fill="none"/><path d="M-948.02 899.18h-.95v-.5h.95z" stroke="#3a414a" stroke-width=".05" fill="#3a414a"/><path d="M-1279 1060l13-7.5v15z" stroke="#3a414a" fill="#3a414a"/><path d="M-1240 998a6 6 0 0 1 6-6h228a6 6 0 0 1 6 6v48a6 6 0 0 1-6 6h-228a6 6 0 0 1-6-6z" fill="none"/><use xlink:href="#X" transform="matrix(1,0,0,1,-1240,992.014254577643) translate(12.825000000000003 33.6)"/><use xlink:href="#Y" transform="matrix(1,0,0,1,-1240,992.014254577643) translate(93.775 33.6)"/><use xlink:href="#Z" transform="matrix(1,0,0,1,-1240,992.014254577643) translate(149.77499999999998 33.6)"/><use xlink:href="#aa" transform="matrix(1,0,0,1,-1240,992.014254577643) translate(165.27499999999998 33.6)"/><path d="M-1360 1100.5v33.5a6 6 0 0 0 6 6H314a6 6 0 0 0 6-6v-79" stroke="#3a414a" fill="none"/><path d="M-1359.53 1100.5h-.94v-.5h.94z" stroke="#3a414a" stroke-width=".05" fill="#3a414a"/><path d="M320 1041.5l7.5 13h-15z" stroke="#3a414a" fill="#3a414a"/><path d="M-660 1146a6 6 0 0 1 6-6h228a6 6 0 0 1 6 6v48a6 6 0 0 1-6 6h-228a6 6 0 0 1-6-6z" fill="none"/><use xlink:href="#ab" transform="matrix(1,0,0,1,-660,1140) translate(15.22499999999998 22.799999999999997)"/><use xlink:href="#ac" transform="matrix(1,0,0,1,-660,1140) translate(98.07499999999999 22.799999999999997)"/><use xlink:href="#ad" transform="matrix(1,0,0,1,-660,1140) translate(182.875 22.799999999999997)"/><use xlink:href="#ae" transform="matrix(1,0,0,1,-660,1140) translate(90.025 44.4)"/><path d="M-1440.5 1060H-1754a6 6 0 0 1-6-6V913.16" stroke="#3a414a" fill="none"/><path d="M-1440 1060.47h-.5v-.94h.5z" stroke="#3a414a" stroke-width=".05" fill="#3a414a"/><path d="M-1760 899.67l7.5 13h-15z" stroke="#3a414a" fill="#3a414a"/><path d="M-1700 1066a6 6 0 0 1 6-6h228a6 6 0 0 1 6 6v48a6 6 0 0 1-6 6h-228a6 6 0 0 1-6-6z" fill="none"/><use xlink:href="#ab" transform="matrix(1,0,0,1,-1700,1060) translate(22.625 22.799999999999997)"/><use xlink:href="#af" transform="matrix(1,0,0,1,-1700,1060) translate(105.47500000000001 22.799999999999997)"/><use xlink:href="#ag" transform="matrix(1,0,0,1,-1700,1060) translate(148.425 22.799999999999997)"/><use xlink:href="#ah" transform="matrix(1,0,0,1,-1700,1060) translate(75.6 44.4)"/><path d="M-122.12 640c0 11.05-8.95 20-20 20-11.04 0-20-8.95-20-20s8.96-20 20-20c11.05 0 20 8.95 20 20z" stroke="#666" fill="#fff"/><path d="M-130.12 640c0 6.63-5.37 12-12 12s-12-5.37-12-12 5.38-12 12-12c6.63 0 12 5.37 12 12z" stroke="#666"/><path d="M-1044 465.58c-8.84 0-16 7.17-16 16v48c0 8.84 7.16 16 16 16h128c8.84 0 16-7.16 16-16v-48c0-8.83-7.16-16-16-16z" stroke="#000" stroke-opacity="0" fill="#75b2ff"/><use xlink:href="#ai" transform="matrix(1,0,0,1,-1052,473.5833333333335) translate(37.50617283950616 35.55555555555556)"/><path d="M-1484 298.67c-8.84 0-16 7.16-16 16v48c0 8.83 7.16 16 16 16h128c8.84 0 16-7.17 16-16v-48c0-8.84-7.16-16-16-16z" stroke="#000" stroke-opacity="0" fill="#75b2ff"/><use xlink:href="#aj" transform="matrix(1,0,0,1,-1492,306.66666666666674) translate(40.938271604938265 35.55555555555556)"/><path d="M-1740 340c0 11.05-8.95 20-20 20s-20-8.95-20-20 8.95-20 20-20 20 8.95 20 20z" stroke="#666"/><path d="M-1739 340h222.62" stroke="#333" fill="none"/><path d="M-1739 340.48h-.56l.06-.46-.02-.5h.53z" stroke="#333" stroke-width=".05" fill="#333"/><path d="M-1501.62 340l-14.26 4.63v-9.26z" stroke="#333" fill="#333"/><path d="M-1745.75 286a6 6 0 0 1 6-6h228a6 6 0 0 1 6 6v48a6 6 0 0 1-6 6h-228a6 6 0 0 1-6-6z" fill="none"/><use xlink:href="#G" transform="matrix(1,0,0,1,-1745.7531334056716,280) translate(10.599999999999994 33.6)"/><use xlink:href="#ak" transform="matrix(1,0,0,1,-1745.7531334056716,280) translate(86.55 33.6)"/><use xlink:href="#q" transform="matrix(1,0,0,1,-1745.7531334056716,280) translate(151.5 33.6)"/><use xlink:href="#w" transform="matrix(1,0,0,1,-1745.7531334056716,280) translate(169.45 33.6)"/><path d="M-1044 298.67c-8.84 0-16 7.16-16 16v48c0 8.83 7.16 16 16 16h128c8.84 0 16-7.17 16-16v-48c0-8.84-7.16-16-16-16z" stroke="#000" stroke-opacity="0" fill="#75b2ff"/><g><use xlink:href="#J" transform="matrix(1,0,0,1,-1052,306.66666666666674) translate(28.09876543209876 35.55555555555556)"/></g><path d="M-1339.5 338.67h265" stroke="#3a414a" fill="none"/><path d="M-1339.5 339.14h-.5v-.95h.5z" stroke="#3a414a" stroke-width=".05" fill="#3a414a"/><path d="M-1061 338.67l-13 7.5v-15z" stroke="#3a414a" fill="#3a414a"/><path d="M-1320 274.25a6 6 0 0 1 6-6h228a6 6 0 0 1 6 6v48a6 6 0 0 1-6 6h-228a6 6 0 0 1-6-6z" fill="none"/><g><use xlink:href="#G" transform="matrix(1,0,0,1,-1320,268.25) translate(6.625 22.799999999999997)"/><use xlink:href="#ak" transform="matrix(1,0,0,1,-1320,268.25) translate(82.575 22.799999999999997)"/><use xlink:href="#q" transform="matrix(1,0,0,1,-1320,268.25) translate(147.525 22.799999999999997)"/><use xlink:href="#al" transform="matrix(1,0,0,1,-1320,268.25) translate(165.475 22.799999999999997)"/><use xlink:href="#am" transform="matrix(1,0,0,1,-1320,268.25) translate(27.099999999999994 44.4)"/><use xlink:href="#an" transform="matrix(1,0,0,1,-1320,268.25) translate(51.099999999999994 44.4)"/><use xlink:href="#ao" transform="matrix(1,0,0,1,-1320,268.25) translate(100 44.4)"/><use xlink:href="#ap" transform="matrix(1,0,0,1,-1320,268.25) translate(139.95 44.4)"/></g><path d="M-980 379.17v71.92" stroke="#3a414a" fill="none"/><path d="M-979.52 379.18h-.96v-.5h.96z" stroke="#3a414a" stroke-width=".05" fill="#3a414a"/><path d="M-980 464.58l-7.5-13h15z" stroke="#3a414a" fill="#3a414a"/><path d="M-980 398.13a6 6 0 0 1 6-6h228a6 6 0 0 1 6 6v48a6 6 0 0 1-6 6h-228a6 6 0 0 1-6-6z" fill="none"/><g><use xlink:href="#aq" transform="matrix(1,0,0,1,-980,392.1250000000001) translate(5.924999999999997 22.799999999999997)"/><use xlink:href="#ar" transform="matrix(1,0,0,1,-980,392.1250000000001) translate(85.775 22.799999999999997)"/><use xlink:href="#as" transform="matrix(1,0,0,1,-980,392.1250000000001) translate(128.625 22.799999999999997)"/><use xlink:href="#at" transform="matrix(1,0,0,1,-980,392.1250000000001) translate(149.575 22.799999999999997)"/><use xlink:href="#au" transform="matrix(1,0,0,1,-980,392.1250000000001) translate(98 44.4)"/></g><path d="M-1060.5 505.58H-1414a6 6 0 0 1-6-6V393.16" stroke="#3a414a" fill="none"/><path d="M-1060 506.06h-.5v-.95h.5z" stroke="#3a414a" stroke-width=".05" fill="#3a414a"/><path d="M-1420 379.67l7.5 13h-15z" stroke="#3a414a" fill="#3a414a"/><path d="M-1378.66 514.54a6 6 0 0 1 6-6h228a6 6 0 0 1 6 6v48a6 6 0 0 1-6 6h-228a6 6 0 0 1-6-6z" fill="none"/><g><use xlink:href="#x" transform="matrix(1,0,0,1,-1378.6609403620525,508.54154967375484) translate(2.2249999999999943 22.799999999999997)"/><use xlink:href="#av" transform="matrix(1,0,0,1,-1378.6609403620525,508.54154967375484) translate(85.075 22.799999999999997)"/><use xlink:href="#m" transform="matrix(1,0,0,1,-1378.6609403620525,508.54154967375484) translate(128.025 22.799999999999997)"/><use xlink:href="#aw" transform="matrix(1,0,0,1,-1378.6609403620525,508.54154967375484) translate(221.82500000000002 22.799999999999997)"/><use xlink:href="#ax" transform="matrix(1,0,0,1,-1378.6609403620525,508.54154967375484) translate(78.575 44.4)"/><use xlink:href="#ay" transform="matrix(1,0,0,1,-1378.6609403620525,508.54154967375484) translate(117.475 44.4)"/></g><path d="M-644 465.58c-8.84 0-16 7.17-16 16v48c0 8.84 7.16 16 16 16h128c8.84 0 16-7.16 16-16v-48c0-8.83-7.16-16-16-16z" stroke="#000" stroke-opacity="0" fill="#75b2ff"/><g><use xlink:href="#az" transform="matrix(1,0,0,1,-652,473.5833333333335) translate(34.51851851851851 35.55555555555556)"/></g><path d="M-580 379.17v71.92" stroke="#3a414a" fill="none"/><path d="M-579.52 379.18h-.96v-.5h.96z" stroke="#3a414a" stroke-width=".05" fill="#3a414a"/><path d="M-580 464.58l-7.5-13h15z" stroke="#3a414a" fill="#3a414a"/><path d="M-600 398.13a6 6 0 0 1 6-6h228a6 6 0 0 1 6 6v48a6 6 0 0 1-6 6h-228a6 6 0 0 1-6-6z" fill="none"/><g><use xlink:href="#x" transform="matrix(1,0,0,1,-600,392.1250000000001) translate(48.099999999999994 22.799999999999997)"/><use xlink:href="#aA" transform="matrix(1,0,0,1,-600,392.1250000000001) translate(130.95 22.799999999999997)"/><use xlink:href="#aB" transform="matrix(1,0,0,1,-600,392.1250000000001) translate(62.074999999999996 44.4)"/></g><path d="M-140 381.58v57.73" stroke="#3a414a" fill="none"/><path d="M-139.53 381.6h-.94v-.52h.94z" stroke="#3a414a" stroke-width=".05" fill="#3a414a"/><path d="M-140 452.8l-7.5-13h15z" stroke="#3a414a" fill="#3a414a"/><path d="M-302.12 388.13a6 6 0 0 1 6-6h148a6 6 0 0 1 6 6v68a6 6 0 0 1-6 6h-148a6 6 0 0 1-6-6z" fill="none"/><g><use xlink:href="#x" transform="matrix(1,0,0,1,-302.1180754187427,382.1250000000001) translate(4.099999999999994 32.8)"/><use xlink:href="#aC" transform="matrix(1,0,0,1,-302.1180754187427,382.1250000000001) translate(86.95 32.8)"/><use xlink:href="#aD" transform="matrix(1,0,0,1,-302.1180754187427,382.1250000000001) translate(47.025 54.4)"/><use xlink:href="#aE" transform="matrix(1,0,0,1,-302.1180754187427,382.1250000000001) translate(62.025 54.4)"/></g><path d="M-204 453.8c-8.84 0-16 7.17-16 16v48c0 8.84 7.16 16 16 16h128c8.84 0 16-7.16 16-16v-48c0-8.83-7.16-16-16-16z" stroke="#000" stroke-opacity="0" fill="#75b2ff"/><g><use xlink:href="#aF" transform="matrix(1,0,0,1,-212,461.8028416308873) translate(33.50617283950617 35.55555555555556)"/></g><path d="M20 416a6 6 0 0 1 6-6h148a6 6 0 0 1 6 6v68a6 6 0 0 1-6 6H26a6 6 0 0 1-6-6z" fill="none"/><g><use xlink:href="#G" transform="matrix(1,0,0,1,20,410) translate(35.55 32.8)"/><use xlink:href="#n" transform="matrix(1,0,0,1,20,410) translate(111.5 32.8)"/><use xlink:href="#aG" transform="matrix(1,0,0,1,20,410) translate(43.55 54.4)"/></g><path d="M-140 534.3v70.97" stroke="#3a414a" fill="none"/><path d="M-139.53 534.32h-.94v-.52h.94z" stroke="#3a414a" stroke-width=".05" fill="#3a414a"/><path d="M-140 618.76l-7.5-13h15z" stroke="#3a414a" fill="#3a414a"/><path d="M-142.12 539.8a6 6 0 0 1 6-6h148a6 6 0 0 1 6 6v68a6 6 0 0 1-6 6h-148a6 6 0 0 1-6-6z" fill="none"/><g><use xlink:href="#x" transform="matrix(1,0,0,1,-142.1180754187427,533.8028416308873) translate(5.125 32.8)"/><use xlink:href="#aH" transform="matrix(1,0,0,1,-142.1180754187427,533.8028416308873) translate(87.97500000000001 32.8)"/><use xlink:href="#aE" transform="matrix(1,0,0,1,-142.1180754187427,533.8028416308873) translate(54.525 54.4)"/></g><path d="M-580 546.08V634a6 6 0 0 0 6 6h396.9" stroke="#3a414a" fill="none"/><path d="M-579.52 546.1h-.96v-.52h.96z" stroke="#3a414a" stroke-width=".05" fill="#3a414a"/><path d="M-163.62 640l-13 7.5v-15z" stroke="#3a414a" fill="#3a414a"/><path d="M-540 586a6 6 0 0 1 6-6h228a6 6 0 0 1 6 6v48a6 6 0 0 1-6 6h-228a6 6 0 0 1-6-6z" fill="none"/><g><use xlink:href="#G" transform="matrix(1,0,0,1,-540,580) translate(30.625 33.6)"/><use xlink:href="#q" transform="matrix(1,0,0,1,-540,580) translate(106.575 33.6)"/><use xlink:href="#aI" transform="matrix(1,0,0,1,-540,580) translate(124.525 33.6)"/></g><path d="M-59.5 341.08H44a6 6 0 0 1 6 6V634a6 6 0 0 1-6 6h-151.13" stroke="#3a414a" fill="none"/><path d="M-59.5 341.56h-.5v-.95h.5z" stroke="#3a414a" stroke-width=".05" fill="#3a414a"/><path d="M-120.62 640l13-7.5v15z" stroke="#3a414a" fill="#3a414a"/><defs><path d="M212-179c-10-28-35-45-73-45-59 0-87 40-87 99 0 60 29 101 89 101 43 0 62-24 78-52l27 14C228-24 195 4 139 4 59 4 22-46 18-125c-6-104 99-153 187-111 19 9 31 26 39 46" id="aJ"/><path d="M84 4C-5 8 30-112 23-190h32v120c0 31 7 50 39 49 72-2 45-101 50-169h31l1 190h-30c-1-10 1-25-2-33-11 22-28 36-60 37" id="aK"/><path d="M135-143c-3-34-86-38-87 0 15 53 115 12 119 90S17 21 10-45l28-5c4 36 97 45 98 0-10-56-113-15-118-90-4-57 82-63 122-42 12 7 21 19 24 35" id="aL"/><path d="M59-47c-2 24 18 29 38 22v24C64 9 27 4 27-40v-127H5v-23h24l9-43h21v43h35v23H59v120" id="aM"/><path d="M100-194c62-1 85 37 85 99 1 63-27 99-86 99S16-35 15-95c0-66 28-99 85-99zM99-20c44 1 53-31 53-75 0-43-8-75-51-75s-53 32-53 75 10 74 51 75" id="aN"/><path d="M210-169c-67 3-38 105-44 169h-31v-121c0-29-5-50-35-48C34-165 62-65 56 0H25l-1-190h30c1 10-1 24 2 32 10-44 99-50 107 0 11-21 27-35 58-36 85-2 47 119 55 194h-31v-121c0-29-5-49-35-48" id="aO"/><path d="M100-194c63 0 86 42 84 106H49c0 40 14 67 53 68 26 1 43-12 49-29l28 8c-11 28-37 45-77 45C44 4 14-33 15-96c1-61 26-98 85-98zm52 81c6-60-76-77-97-28-3 7-6 17-6 28h103" id="aP"/><path d="M114-163C36-179 61-72 57 0H25l-1-190h30c1 12-1 29 2 39 6-27 23-49 58-41v29" id="aQ"/><g id="a"><use transform="matrix(0.04938271604938272,0,0,0.04938271604938272,0,0)" xlink:href="#aJ"/><use transform="matrix(0.04938271604938272,0,0,0.04938271604938272,12.790123456790125,0)" xlink:href="#aK"/><use transform="matrix(0.04938271604938272,0,0,0.04938271604938272,22.66666666666667,0)" xlink:href="#aL"/><use transform="matrix(0.04938271604938272,0,0,0.04938271604938272,31.555555555555557,0)" xlink:href="#aM"/><use transform="matrix(0.04938271604938272,0,0,0.04938271604938272,36.49382716049384,0)" xlink:href="#aN"/><use transform="matrix(0.04938271604938272,0,0,0.04938271604938272,46.37037037037038,0)" xlink:href="#aO"/><use transform="matrix(0.04938271604938272,0,0,0.04938271604938272,61.13580246913581,0)" xlink:href="#aP"/><use transform="matrix(0.04938271604938272,0,0,0.04938271604938272,71.01234567901236,0)" xlink:href="#aQ"/></g><path d="M30-248c87 1 191-15 191 75 0 78-77 80-158 76V0H30v-248zm33 125c57 0 124 11 124-50 0-59-68-47-124-48v98" id="aR"/><path d="M141-36C126-15 110 5 73 4 37 3 15-17 15-53c-1-64 63-63 125-63 3-35-9-54-41-54-24 1-41 7-42 31l-33-3c5-37 33-52 76-52 45 0 72 20 72 64v82c-1 20 7 32 28 27v20c-31 9-61-2-59-35zM48-53c0 20 12 33 32 33 41-3 63-29 60-74-43 2-92-5-92 41" id="aS"/><path d="M179-190L93 31C79 59 56 82 12 73V49c39 6 53-20 64-50L1-190h34L92-34l54-156h33" id="aT"/><path d="M117-194c89-4 53 116 60 194h-32v-121c0-31-8-49-39-48C34-167 62-67 57 0H25l-1-190h30c1 10-1 24 2 32 11-22 29-35 61-36" id="aU"/><g id="b"><use transform="matrix(0.04938271604938272,0,0,0.04938271604938272,0,0)" xlink:href="#aR"/><use transform="matrix(0.04938271604938272,0,0,0.04938271604938272,11.851851851851853,0)" xlink:href="#aS"/><use transform="matrix(0.04938271604938272,0,0,0.04938271604938272,21.7283950617284,0)" xlink:href="#aT"/><use transform="matrix(0.04938271604938272,0,0,0.04938271604938272,30.617283950617285,0)" xlink:href="#aO"/><use transform="matrix(0.04938271604938272,0,0,0.04938271604938272,45.38271604938272,0)" xlink:href="#aP"/><use transform="matrix(0.04938271604938272,0,0,0.04938271604938272,55.25925925925927,0)" xlink:href="#aU"/><use transform="matrix(0.04938271604938272,0,0,0.04938271604938272,65.13580246913581,0)" xlink:href="#aM"/></g><path d="M140-251c81 0 123 46 123 126C263-46 219 4 140 4 59 4 17-45 17-125s42-126 123-126zm0 227c63 0 89-41 89-101s-29-99-89-99c-61 0-89 39-89 99S79-25 140-24" id="aV"/><path d="M85-194c31 0 48 13 60 33l-1-100h32l1 261h-30c-2-10 0-23-3-31C134-8 116 4 85 4 32 4 16-35 15-94c0-66 23-100 70-100zm9 24c-40 0-46 34-46 75 0 40 6 74 45 74 42 0 51-32 51-76 0-42-9-74-50-73" id="aW"/><g id="c"><use transform="matrix(0.04938271604938272,0,0,0.04938271604938272,0,0)" xlink:href="#aV"/><use transform="matrix(0.04938271604938272,0,0,0.04938271604938272,13.827160493827162,0)" xlink:href="#aQ"/><use transform="matrix(0.04938271604938272,0,0,0.04938271604938272,19.703703703703706,0)" xlink:href="#aW"/><use transform="matrix(0.04938271604938272,0,0,0.04938271604938272,29.58024691358025,0)" xlink:href="#aP"/><use transform="matrix(0.04938271604938272,0,0,0.04938271604938272,39.4567901234568,0)" xlink:href="#aQ"/></g><path fill="#fff" d="M173 0L80-213 41 0H11l48-248h37l94 214 40-214h30L212 0h-39" id="aX"/><path fill="#fff" d="M111-194c62-3 86 47 72 106H45c-7 38 6 69 45 68 27-1 43-14 53-32l24 11C152-15 129 4 87 4 38 3 12-23 12-71c0-70 32-119 99-123zm44 81c14-66-71-72-95-28-4 8-8 17-11 28h106" id="aY"/><path fill="#fff" d="M188 0h-37l-8-164L71 0H34L18-190h31l8 164 75-164h34l8 164 74-164h31" id="aZ"/><g id="d"><use transform="matrix(0.04938271604938272,0,0,0.04938271604938272,0,0)" xlink:href="#aX"/><use transform="matrix(0.04938271604938272,0,0,0.04938271604938272,12.790123456790125,0)" xlink:href="#aY"/><use transform="matrix(0.04938271604938272,0,0,0.04938271604938272,22.66666666666667,0)" xlink:href="#aZ"/></g><path fill="#fff" d="M11 0l48-248h184l-5 28H87l-15 79h140l-5 27H67L50-27h158l-5 27H11" id="ba"/><path fill="#fff" d="M124 0L87-78 21 0h-35l86-98-46-92h33l34 74 61-74h37l-83 92 50 98h-34" id="bb"/><path fill="#fff" d="M50-231l6-30h32l-6 30H50zM6 0l37-190h31L37 0H6" id="bc"/><path fill="#fff" d="M55-144c13 50 104 24 104 88C159 21 15 23 1-39l26-10c6 40 102 42 102-4-13-50-104-23-104-87 0-71 143-71 148-8l-29 4c-5-35-85-37-89 0" id="bd"/><path fill="#fff" d="M51-54c-9 22 5 41 31 30L79-1C43 14 10-4 19-52l22-115H19l5-23h22l19-43h21l-9 43h35l-4 23H73" id="be"/><path fill="#fff" d="M67-158c22-48 132-52 116 29L158 0h-32l25-140c3-38-53-32-70-12C52-117 51-52 38 0H6l36-190h30" id="bf"/><path fill="#fff" d="M103-194c29 0 47 14 56 36 2-11 5-23 8-32h30L160-5C157 61 82 97 21 62 9 55 4 45 1 30l28-7c7 42 83 31 92-3 4-16 9-38 13-55-13 20-29 36-62 36-40 0-60-25-60-64 0-71 23-131 91-131zm4 24c-53 0-58 54-61 104-2 27 10 44 36 44 49 0 65-50 67-102 1-29-15-46-42-46" id="bg"/><g id="e"><use transform="matrix(0.04938271604938272,0,0,0.04938271604938272,0,0)" xlink:href="#ba"/><use transform="matrix(0.04938271604938272,0,0,0.04938271604938272,11.851851851851853,0)" xlink:href="#bb"/><use transform="matrix(0.04938271604938272,0,0,0.04938271604938272,20.74074074074074,0)" xlink:href="#bc"/><use transform="matrix(0.04938271604938272,0,0,0.04938271604938272,24.641975308641975,0)" xlink:href="#bd"/><use transform="matrix(0.04938271604938272,0,0,0.04938271604938272,33.53086419753086,0)" xlink:href="#be"/><use transform="matrix(0.04938271604938272,0,0,0.04938271604938272,38.46913580246913,0)" xlink:href="#bc"/><use transform="matrix(0.04938271604938272,0,0,0.04938271604938272,42.37037037037037,0)" xlink:href="#bf"/><use transform="matrix(0.04938271604938272,0,0,0.04938271604938272,52.246913580246904,0)" xlink:href="#bg"/></g><path d="M26 75v-336h71v23H56V52h41v23H26" id="bh"/><path d="M96-169c-40 0-48 33-48 73s9 75 48 75c24 0 41-14 43-38l32 2c-6 37-31 61-74 61-59 0-76-41-82-99-10-93 101-131 147-64 4 7 5 14 7 22l-32 3c-4-21-16-35-41-35" id="bi"/><path d="M106-169C34-169 62-67 57 0H25v-261h32l-1 103c12-21 28-36 61-36 89 0 53 116 60 194h-32v-121c2-32-8-49-39-48" id="bj"/><g id="f"><use transform="matrix(0.05,0,0,0.05,0,0)" xlink:href="#bh"/><use transform="matrix(0.05,0,0,0.05,5,0)" xlink:href="#aR"/><use transform="matrix(0.05,0,0,0.05,17,0)" xlink:href="#aK"/><use transform="matrix(0.05,0,0,0.05,27,0)" xlink:href="#aQ"/><use transform="matrix(0.05,0,0,0.05,32.95,0)" xlink:href="#bi"/><use transform="matrix(0.05,0,0,0.05,41.95,0)" xlink:href="#bj"/><use transform="matrix(0.05,0,0,0.05,51.95,0)" xlink:href="#aS"/><use transform="matrix(0.05,0,0,0.05,61.95,0)" xlink:href="#aL"/><use transform="matrix(0.05,0,0,0.05,70.95,0)" xlink:href="#aP"/></g><path d="M197 0v-115H63V0H30v-248h33v105h134v-105h34V0h-34" id="bk"/><path d="M24-231v-30h32v30H24zM24 0v-190h32V0H24" id="bl"/><g id="g"><use transform="matrix(0.05,0,0,0.05,0,0)" xlink:href="#bk"/><use transform="matrix(0.05,0,0,0.05,12.950000000000001,0)" xlink:href="#bl"/><use transform="matrix(0.05,0,0,0.05,16.900000000000002,0)" xlink:href="#aL"/><use transform="matrix(0.05,0,0,0.05,25.900000000000002,0)" xlink:href="#aM"/><use transform="matrix(0.05,0,0,0.05,30.900000000000002,0)" xlink:href="#aN"/><use transform="matrix(0.05,0,0,0.05,40.900000000000006,0)" xlink:href="#aQ"/><use transform="matrix(0.05,0,0,0.05,46.85000000000001,0)" xlink:href="#aT"/></g><path d="M18-150v-26h174v26H18zm0 90v-26h174v26H18" id="bm"/><use transform="matrix(0.05,0,0,0.05,0,0)" xlink:href="#bm" id="h"/><path d="M101-251c68 0 85 55 85 127S166 4 100 4C33 4 14-52 14-124c0-73 17-127 87-127zm-1 229c47 0 54-49 54-102s-4-102-53-102c-51 0-55 48-55 102 0 53 5 102 54 102" id="bn"/><path d="M3 75V52h41v-290H3v-23h71V75H3" id="bo"/><g id="i"><use transform="matrix(0.05,0,0,0.05,0,0)" xlink:href="#bn"/><use transform="matrix(0.05,0,0,0.05,10,0)" xlink:href="#bo"/></g><path d="M18-27v-27l151-64-151-65v-27l175 74v36" id="bp"/><g id="j"><use transform="matrix(0.05,0,0,0.05,0,0)" xlink:href="#bp"/><use transform="matrix(0.05,0,0,0.05,10.5,0)" xlink:href="#bm"/></g><path d="M27 0v-27h64v-190l-56 39v-29l58-41h29v221h61V0H27" id="bq"/><g id="k"><use transform="matrix(0.05,0,0,0.05,0,0)" xlink:href="#bq"/><use transform="matrix(0.05,0,0,0.05,10,0)" xlink:href="#bo"/></g><path d="M205 0l-28-72H64L36 0H1l101-248h38L239 0h-34zm-38-99l-47-123c-12 45-31 82-46 123h93" id="br"/><g id="l"><use transform="matrix(0.05,0,0,0.05,0,0)" xlink:href="#br"/><use transform="matrix(0.05,0,0,0.05,12,0)" xlink:href="#bi"/><use transform="matrix(0.05,0,0,0.05,21,0)" xlink:href="#bi"/><use transform="matrix(0.05,0,0,0.05,30,0)" xlink:href="#aN"/><use transform="matrix(0.05,0,0,0.05,40,0)" xlink:href="#aK"/><use transform="matrix(0.05,0,0,0.05,50,0)" xlink:href="#aU"/><use transform="matrix(0.05,0,0,0.05,60,0)" xlink:href="#aM"/></g><path d="M101-234c-31-9-42 10-38 44h38v23H63V0H32v-167H5v-23h27c-7-52 17-82 69-68v24" id="bs"/><g id="m"><use transform="matrix(0.05,0,0,0.05,0,0)" xlink:href="#bl"/><use transform="matrix(0.05,0,0,0.05,3.95,0)" xlink:href="#aU"/><use transform="matrix(0.05,0,0,0.05,13.949999999999998,0)" xlink:href="#bs"/><use transform="matrix(0.05,0,0,0.05,18.95,0)" xlink:href="#aN"/><use transform="matrix(0.05,0,0,0.05,28.950000000000003,0)" xlink:href="#aQ"/><use transform="matrix(0.05,0,0,0.05,34.9,0)" xlink:href="#aO"/><use transform="matrix(0.05,0,0,0.05,49.85,0)" xlink:href="#aS"/><use transform="matrix(0.05,0,0,0.05,59.85,0)" xlink:href="#aM"/><use transform="matrix(0.05,0,0,0.05,64.85,0)" xlink:href="#bl"/><use transform="matrix(0.05,0,0,0.05,68.8,0)" xlink:href="#aN"/><use transform="matrix(0.05,0,0,0.05,78.8,0)" xlink:href="#aU"/></g><g id="n"><use transform="matrix(0.05,0,0,0.05,0,0)" xlink:href="#bl"/><use transform="matrix(0.05,0,0,0.05,3.95,0)" xlink:href="#aL"/></g><path d="M24 0v-261h32V0H24" id="bt"/><g id="o"><use transform="matrix(0.05,0,0,0.05,0,0)" xlink:href="#aW"/><use transform="matrix(0.05,0,0,0.05,10,0)" xlink:href="#aP"/><use transform="matrix(0.05,0,0,0.05,20,0)" xlink:href="#bt"/><use transform="matrix(0.05,0,0,0.05,23.95,0)" xlink:href="#aP"/><use transform="matrix(0.05,0,0,0.05,33.95,0)" xlink:href="#aM"/><use transform="matrix(0.05,0,0,0.05,38.95,0)" xlink:href="#aP"/><use transform="matrix(0.05,0,0,0.05,48.95,0)" xlink:href="#aW"/></g><path d="M9 0v-24l116-142H16v-24h144v24L44-24h123V0H9" id="bu"/><g id="p"><use transform="matrix(0.05,0,0,0.05,0,0)" xlink:href="#bh"/><use transform="matrix(0.05,0,0,0.05,5,0)" xlink:href="#br"/><use transform="matrix(0.05,0,0,0.05,17,0)" xlink:href="#aK"/><use transform="matrix(0.05,0,0,0.05,27,0)" xlink:href="#aM"/><use transform="matrix(0.05,0,0,0.05,32,0)" xlink:href="#bj"/><use transform="matrix(0.05,0,0,0.05,42,0)" xlink:href="#aN"/><use transform="matrix(0.05,0,0,0.05,52,0)" xlink:href="#aQ"/><use transform="matrix(0.05,0,0,0.05,57.95,0)" xlink:href="#bl"/><use transform="matrix(0.05,0,0,0.05,61.900000000000006,0)" xlink:href="#bu"/><use transform="matrix(0.05,0,0,0.05,70.9,0)" xlink:href="#aS"/><use transform="matrix(0.05,0,0,0.05,80.9,0)" xlink:href="#aM"/><use transform="matrix(0.05,0,0,0.05,85.9,0)" xlink:href="#bl"/><use transform="matrix(0.05,0,0,0.05,89.85000000000001,0)" xlink:href="#aN"/><use transform="matrix(0.05,0,0,0.05,99.85000000000001,0)" xlink:href="#aU"/></g><g id="q"><use transform="matrix(0.05,0,0,0.05,0,0)" xlink:href="#bl"/><use transform="matrix(0.05,0,0,0.05,3.95,0)" xlink:href="#aL"/></g><path d="M108 0H70L1-190h34L89-25l56-165h34" id="bv"/><g id="r"><use transform="matrix(0.05,0,0,0.05,0,0)" xlink:href="#bv"/><use transform="matrix(0.05,0,0,0.05,9,0)" xlink:href="#aP"/><use transform="matrix(0.05,0,0,0.05,19,0)" xlink:href="#aQ"/><use transform="matrix(0.05,0,0,0.05,24.95,0)" xlink:href="#bl"/><use transform="matrix(0.05,0,0,0.05,28.899999999999995,0)" xlink:href="#bs"/><use transform="matrix(0.05,0,0,0.05,33.9,0)" xlink:href="#bl"/><use transform="matrix(0.05,0,0,0.05,37.85,0)" xlink:href="#aP"/><use transform="matrix(0.05,0,0,0.05,47.85,0)" xlink:href="#aW"/><use transform="matrix(0.05,0,0,0.05,57.85,0)" xlink:href="#bo"/></g><path fill="#fff" d="M14 0l48-248h34L48 0H14" id="bw"/><g id="s"><use transform="matrix(0.04938271604938272,0,0,0.04938271604938272,0,0)" xlink:href="#bw"/><use transform="matrix(0.04938271604938272,0,0,0.04938271604938272,4.938271604938272,0)" xlink:href="#bf"/></g><path fill="#fff" d="M238-179c0 84-86 86-175 82L45 0H11l48-248c82 0 179-12 179 69zm-34 1c0-53-64-42-116-43l-19 98c63 0 135 9 135-55" id="bx"/><path fill="#fff" d="M66-151c12-25 30-51 66-40l-6 26C45-176 58-65 38 0H6l36-190h30" id="by"/><path fill="#fff" d="M30-147c31-64 166-65 159 27C183-49 158 1 86 4 9 8 1-88 30-147zM88-20c53 0 68-48 68-100 0-31-11-51-44-50-52 1-68 46-68 97 0 32 13 53 44 53" id="bz"/><path fill="#fff" d="M44-68c0 29 11 47 38 47 30 0 42-19 51-41l28 9C148-21 126 4 82 4 31 4 10-29 12-85c3-77 74-140 146-93 12 8 15 23 18 40l-31 5c-1-22-13-36-36-36-52 0-65 49-65 101" id="bA"/><g id="t"><use transform="matrix(0.04938271604938272,0,0,0.04938271604938272,0,0)" xlink:href="#bx"/><use transform="matrix(0.04938271604938272,0,0,0.04938271604938272,11.851851851851853,0)" xlink:href="#by"/><use transform="matrix(0.04938271604938272,0,0,0.04938271604938272,17.728395061728396,0)" xlink:href="#bz"/><use transform="matrix(0.04938271604938272,0,0,0.04938271604938272,27.60493827160494,0)" xlink:href="#bA"/><use transform="matrix(0.04938271604938272,0,0,0.04938271604938272,36.49382716049383,0)" xlink:href="#aY"/><use transform="matrix(0.04938271604938272,0,0,0.04938271604938272,46.370370370370374,0)" xlink:href="#bd"/><use transform="matrix(0.04938271604938272,0,0,0.04938271604938272,55.25925925925927,0)" xlink:href="#bd"/></g><path fill="#fff" d="M20-101c0-91 52-143 145-150 126-9 127 168 53 223-23 17-55 32-93 32C57 4 20-33 20-101zm216-33c5-57-18-91-73-90-77 1-110 51-110 125 0 49 23 75 73 75 72-1 104-45 110-110" id="bB"/><path fill="#fff" d="M133-28C103 26-5 8 13-77c13-62 24-115 90-117 29-1 46 15 56 35l19-102h32L160 0h-30zM45-64c-2 27 10 43 35 43 54-1 69-50 69-103 0-29-15-46-42-46-53-1-58 58-62 106" id="bC"/><g id="u"><use transform="matrix(0.04938271604938272,0,0,0.04938271604938272,0,0)" xlink:href="#bB"/><use transform="matrix(0.04938271604938272,0,0,0.04938271604938272,13.827160493827162,0)" xlink:href="#by"/><use transform="matrix(0.04938271604938272,0,0,0.04938271604938272,19.703703703703706,0)" xlink:href="#bC"/><use transform="matrix(0.04938271604938272,0,0,0.04938271604938272,29.58024691358025,0)" xlink:href="#aY"/><use transform="matrix(0.04938271604938272,0,0,0.04938271604938272,39.4567901234568,0)" xlink:href="#by"/><use transform="matrix(0.04938271604938272,0,0,0.04938271604938272,45.33333333333334,0)" xlink:href="#aY"/><use transform="matrix(0.04938271604938272,0,0,0.04938271604938272,55.209876543209894,0)" xlink:href="#bC"/></g><g id="v"><use transform="matrix(0.05,0,0,0.05,0,0)" xlink:href="#aV"/><use transform="matrix(0.05,0,0,0.05,14,0)" xlink:href="#aQ"/><use transform="matrix(0.05,0,0,0.05,19.95,0)" xlink:href="#aW"/><use transform="matrix(0.05,0,0,0.05,29.950000000000003,0)" xlink:href="#aP"/><use transform="matrix(0.05,0,0,0.05,39.95,0)" xlink:href="#aQ"/></g><g id="w"><use transform="matrix(0.05,0,0,0.05,0,0)" xlink:href="#bi"/><use transform="matrix(0.05,0,0,0.05,9,0)" xlink:href="#aQ"/><use transform="matrix(0.05,0,0,0.05,14.949999999999998,0)" xlink:href="#aP"/><use transform="matrix(0.05,0,0,0.05,24.95,0)" xlink:href="#aS"/><use transform="matrix(0.05,0,0,0.05,34.95,0)" xlink:href="#aM"/><use transform="matrix(0.05,0,0,0.05,39.95,0)" xlink:href="#aP"/><use transform="matrix(0.05,0,0,0.05,49.95,0)" xlink:href="#aW"/></g><g id="x"><use transform="matrix(0.05,0,0,0.05,0,0)" xlink:href="#aJ"/><use transform="matrix(0.05,0,0,0.05,12.950000000000001,0)" xlink:href="#aK"/><use transform="matrix(0.05,0,0,0.05,22.950000000000003,0)" xlink:href="#aL"/><use transform="matrix(0.05,0,0,0.05,31.950000000000003,0)" xlink:href="#aM"/><use transform="matrix(0.05,0,0,0.05,36.95,0)" xlink:href="#aN"/><use transform="matrix(0.05,0,0,0.05,46.95,0)" xlink:href="#aO"/><use transform="matrix(0.05,0,0,0.05,61.900000000000006,0)" xlink:href="#aP"/><use transform="matrix(0.05,0,0,0.05,71.9,0)" xlink:href="#aQ"/></g><path d="M115-194c53 0 69 39 70 98 0 66-23 100-70 100C84 3 66-7 56-30L54 0H23l1-261h32v101c10-23 28-34 59-34zm-8 174c40 0 45-34 45-75 0-40-5-75-45-74-42 0-51 32-51 76 0 43 10 73 51 73" id="bD"/><g id="y"><use transform="matrix(0.05,0,0,0.05,0,0)" xlink:href="#aL"/><use transform="matrix(0.05,0,0,0.05,9,0)" xlink:href="#aK"/><use transform="matrix(0.05,0,0,0.05,19,0)" xlink:href="#bD"/><use transform="matrix(0.05,0,0,0.05,29,0)" xlink:href="#aO"/><use transform="matrix(0.05,0,0,0.05,43.95,0)" xlink:href="#bl"/><use transform="matrix(0.05,0,0,0.05,47.900000000000006,0)" xlink:href="#aM"/><use transform="matrix(0.05,0,0,0.05,52.900000000000006,0)" xlink:href="#aL"/></g><g id="z"><use transform="matrix(0.05,0,0,0.05,0,0)" xlink:href="#aN"/><use transform="matrix(0.05,0,0,0.05,10,0)" xlink:href="#aQ"/><use transform="matrix(0.05,0,0,0.05,15.949999999999998,0)" xlink:href="#aW"/><use transform="matrix(0.05,0,0,0.05,25.950000000000003,0)" xlink:href="#aP"/><use transform="matrix(0.05,0,0,0.05,35.95,0)" xlink:href="#aQ"/></g><g id="A"><use transform="matrix(0.05,0,0,0.05,0,0)" xlink:href="#aL"/><use transform="matrix(0.05,0,0,0.05,9,0)" xlink:href="#aP"/><use transform="matrix(0.05,0,0,0.05,19,0)" xlink:href="#aU"/><use transform="matrix(0.05,0,0,0.05,29,0)" xlink:href="#aM"/></g><g id="B"><use transform="matrix(0.05,0,0,0.05,0,0)" xlink:href="#bs"/><use transform="matrix(0.05,0,0,0.05,5,0)" xlink:href="#aN"/><use transform="matrix(0.05,0,0,0.05,15,0)" xlink:href="#aQ"/></g><g id="C"><use transform="matrix(0.05,0,0,0.05,0,0)" xlink:href="#bi"/><use transform="matrix(0.05,0,0,0.05,9,0)" xlink:href="#aQ"/><use transform="matrix(0.05,0,0,0.05,14.949999999999998,0)" xlink:href="#aP"/><use transform="matrix(0.05,0,0,0.05,24.95,0)" xlink:href="#aW"/><use transform="matrix(0.05,0,0,0.05,34.95,0)" xlink:href="#bl"/><use transform="matrix(0.05,0,0,0.05,38.900000000000006,0)" xlink:href="#aM"/></g><g id="D"><use transform="matrix(0.05,0,0,0.05,0,0)" xlink:href="#aS"/><use transform="matrix(0.05,0,0,0.05,10,0)" xlink:href="#aK"/><use transform="matrix(0.05,0,0,0.05,20,0)" xlink:href="#aM"/><use transform="matrix(0.05,0,0,0.05,25,0)" xlink:href="#bj"/><use transform="matrix(0.05,0,0,0.05,35,0)" xlink:href="#aN"/><use transform="matrix(0.05,0,0,0.05,45,0)" xlink:href="#aQ"/><use transform="matrix(0.05,0,0,0.05,50.95,0)" xlink:href="#bl"/><use transform="matrix(0.05,0,0,0.05,54.900000000000006,0)" xlink:href="#bu"/><use transform="matrix(0.05,0,0,0.05,63.900000000000006,0)" xlink:href="#aS"/><use transform="matrix(0.05,0,0,0.05,73.9,0)" xlink:href="#aM"/><use transform="matrix(0.05,0,0,0.05,78.9,0)" xlink:href="#bl"/><use transform="matrix(0.05,0,0,0.05,82.85000000000001,0)" xlink:href="#aN"/><use transform="matrix(0.05,0,0,0.05,92.85000000000001,0)" xlink:href="#aU"/></g><path fill="#fff" d="M187 0l-14-72H61L19 0h-37l149-248h38L221 0h-34zm-19-99l-22-123L76-99h92" id="bE"/><path fill="#fff" d="M67-162c32-53 139-36 121 50C175-51 163 2 97 4 68 4 52-11 42-31 38 6 28 39 22 75H-9l50-265h29c-1 10 0 20-3 28zm89 36c0-26-10-43-35-43-54 0-67 50-69 103-1 29 14 45 42 46 53 0 62-58 62-106" id="bF"/><path fill="#fff" d="M89 0H52L20-190h33L74-25l89-165h34" id="bG"/><g id="E"><use transform="matrix(0.04938271604938272,0,0,0.04938271604938272,0,0)" xlink:href="#bE"/><use transform="matrix(0.04938271604938272,0,0,0.04938271604938272,11.851851851851853,0)" xlink:href="#bF"/><use transform="matrix(0.04938271604938272,0,0,0.04938271604938272,21.7283950617284,0)" xlink:href="#bF"/><use transform="matrix(0.04938271604938272,0,0,0.04938271604938272,31.60493827160494,0)" xlink:href="#by"/><use transform="matrix(0.04938271604938272,0,0,0.04938271604938272,37.48148148148149,0)" xlink:href="#bz"/><use transform="matrix(0.04938271604938272,0,0,0.04938271604938272,47.35802469135803,0)" xlink:href="#bG"/><use transform="matrix(0.04938271604938272,0,0,0.04938271604938272,56.24691358024693,0)" xlink:href="#aY"/><use transform="matrix(0.04938271604938272,0,0,0.04938271604938272,66.12345679012347,0)" xlink:href="#bC"/></g><path fill="#fff" d="M67 3c-93-2-31-127-26-193h32L48-50c-3 39 53 32 70 12 30-34 30-101 43-152h32L157 0h-30c1-10 6-24 4-33-14 20-29 37-64 36" id="bH"/><path fill="#fff" d="M67-158c15-20 31-36 64-36 94 0 33 127 27 194h-32l25-140c3-38-53-32-70-12C52-117 51-51 37 0H6l51-261h31" id="bI"/><path fill="#fff" d="M-8 0l5-24 140-142H31l5-24h145l-5 24L36-24h119l-5 24H-8" id="bJ"/><g id="F"><use transform="matrix(0.04938271604938272,0,0,0.04938271604938272,0,0)" xlink:href="#bE"/><use transform="matrix(0.04938271604938272,0,0,0.04938271604938272,11.851851851851853,0)" xlink:href="#bH"/><use transform="matrix(0.04938271604938272,0,0,0.04938271604938272,21.7283950617284,0)" xlink:href="#be"/><use transform="matrix(0.04938271604938272,0,0,0.04938271604938272,26.666666666666668,0)" xlink:href="#bI"/><use transform="matrix(0.04938271604938272,0,0,0.04938271604938272,36.543209876543216,0)" xlink:href="#bz"/><use transform="matrix(0.04938271604938272,0,0,0.04938271604938272,46.41975308641976,0)" xlink:href="#by"/><use transform="matrix(0.04938271604938272,0,0,0.04938271604938272,52.2962962962963,0)" xlink:href="#bc"/><use transform="matrix(0.04938271604938272,0,0,0.04938271604938272,56.19753086419754,0)" xlink:href="#bJ"/><use transform="matrix(0.04938271604938272,0,0,0.04938271604938272,65.08641975308643,0)" xlink:href="#aY"/><use transform="matrix(0.04938271604938272,0,0,0.04938271604938272,74.96296296296298,0)" xlink:href="#bC"/></g><g id="G"><use transform="matrix(0.05,0,0,0.05,0,0)" xlink:href="#aR"/><use transform="matrix(0.05,0,0,0.05,12,0)" xlink:href="#aS"/><use transform="matrix(0.05,0,0,0.05,22,0)" xlink:href="#aT"/><use transform="matrix(0.05,0,0,0.05,31,0)" xlink:href="#aO"/><use transform="matrix(0.05,0,0,0.05,45.95,0)" xlink:href="#aP"/><use transform="matrix(0.05,0,0,0.05,55.95,0)" xlink:href="#aU"/><use transform="matrix(0.05,0,0,0.05,65.95,0)" xlink:href="#aM"/></g><g id="H"><use transform="matrix(0.05,0,0,0.05,0,0)" xlink:href="#aQ"/><use transform="matrix(0.05,0,0,0.05,5.95,0)" xlink:href="#aP"/><use transform="matrix(0.05,0,0,0.05,15.949999999999998,0)" xlink:href="#bi"/><use transform="matrix(0.05,0,0,0.05,24.95,0)" xlink:href="#aP"/><use transform="matrix(0.05,0,0,0.05,34.95,0)" xlink:href="#bl"/><use transform="matrix(0.05,0,0,0.05,38.900000000000006,0)" xlink:href="#bv"/><use transform="matrix(0.05,0,0,0.05,47.900000000000006,0)" xlink:href="#aP"/><use transform="matrix(0.05,0,0,0.05,57.900000000000006,0)" xlink:href="#aW"/></g><path fill="#fff" d="M248-139C247-14 144 9 11 0l48-248c105-6 190 8 189 109zm-34 0c1-70-52-87-126-82L50-27c98 7 163-21 164-112" id="bK"/><g id="I"><use transform="matrix(0.04938271604938272,0,0,0.04938271604938272,0,0)" xlink:href="#bK"/><use transform="matrix(0.04938271604938272,0,0,0.04938271604938272,12.790123456790125,0)" xlink:href="#aY"/><use transform="matrix(0.04938271604938272,0,0,0.04938271604938272,22.66666666666667,0)" xlink:href="#bf"/><use transform="matrix(0.04938271604938272,0,0,0.04938271604938272,32.543209876543216,0)" xlink:href="#bc"/><use transform="matrix(0.04938271604938272,0,0,0.04938271604938272,36.44444444444445,0)" xlink:href="#aY"/><use transform="matrix(0.04938271604938272,0,0,0.04938271604938272,46.320987654320994,0)" xlink:href="#bC"/></g><g id="J"><use transform="matrix(0.04938271604938272,0,0,0.04938271604938272,0,0)" xlink:href="#bx"/><use transform="matrix(0.04938271604938272,0,0,0.04938271604938272,11.851851851851853,0)" xlink:href="#by"/><use transform="matrix(0.04938271604938272,0,0,0.04938271604938272,17.728395061728396,0)" xlink:href="#bz"/><use transform="matrix(0.04938271604938272,0,0,0.04938271604938272,27.60493827160494,0)" xlink:href="#bA"/><use transform="matrix(0.04938271604938272,0,0,0.04938271604938272,36.49382716049383,0)" xlink:href="#aY"/><use transform="matrix(0.04938271604938272,0,0,0.04938271604938272,46.370370370370374,0)" xlink:href="#bd"/><use transform="matrix(0.04938271604938272,0,0,0.04938271604938272,55.25925925925927,0)" xlink:href="#bd"/><use transform="matrix(0.04938271604938272,0,0,0.04938271604938272,64.14814814814815,0)" xlink:href="#bc"/><use transform="matrix(0.04938271604938272,0,0,0.04938271604938272,68.0493827160494,0)" xlink:href="#bf"/><use transform="matrix(0.04938271604938272,0,0,0.04938271604938272,77.92592592592594,0)" xlink:href="#bg"/></g><path fill="#fff" d="M6 0l50-261h32L37 0H6" id="bL"/><path fill="#fff" d="M165-48c-4 18 1 34 23 27l-3 20c-29 8-62 0-52-35h-2C116-14 99 4 63 4 30 4 8-16 8-49c0-68 71-67 138-67 10-26 0-56-31-54-26 1-42 9-47 31l-32-5c8-67 160-71 144 15-5 28-9 54-15 81zM42-50c3 52 80 24 89-6 7-12 7-24 11-38-47 1-103-4-100 44" id="bM"/><g id="K"><use transform="matrix(0.04938271604938272,0,0,0.04938271604938272,0,0)" xlink:href="#bx"/><use transform="matrix(0.04938271604938272,0,0,0.04938271604938272,11.851851851851853,0)" xlink:href="#bL"/><use transform="matrix(0.04938271604938272,0,0,0.04938271604938272,15.753086419753087,0)" xlink:href="#bM"/><use transform="matrix(0.04938271604938272,0,0,0.04938271604938272,25.629629629629633,0)" xlink:href="#bA"/><use transform="matrix(0.04938271604938272,0,0,0.04938271604938272,34.51851851851852,0)" xlink:href="#aY"/><use transform="matrix(0.04938271604938272,0,0,0.04938271604938272,44.39506172839506,0)" xlink:href="#bC"/></g><g id="L"><use transform="matrix(0.05,0,0,0.05,0,0)" xlink:href="#bh"/><use transform="matrix(0.05,0,0,0.05,5,0)" xlink:href="#aR"/><use transform="matrix(0.05,0,0,0.05,17,0)" xlink:href="#aS"/><use transform="matrix(0.05,0,0,0.05,27,0)" xlink:href="#aT"/><use transform="matrix(0.05,0,0,0.05,36,0)" xlink:href="#aO"/><use transform="matrix(0.05,0,0,0.05,50.95,0)" xlink:href="#aP"/><use transform="matrix(0.05,0,0,0.05,60.95,0)" xlink:href="#aU"/><use transform="matrix(0.05,0,0,0.05,70.95,0)" xlink:href="#aM"/></g><path d="M185-189c-5-48-123-54-124 2 14 75 158 14 163 119 3 78-121 87-175 55-17-10-28-26-33-46l33-7c5 56 141 63 141-1 0-78-155-14-162-118-5-82 145-84 179-34 5 7 8 16 11 25" id="bN"/><g id="M"><use transform="matrix(0.05,0,0,0.05,0,0)" xlink:href="#bN"/><use transform="matrix(0.05,0,0,0.05,12,0)" xlink:href="#aM"/><use transform="matrix(0.05,0,0,0.05,17,0)" xlink:href="#aS"/><use transform="matrix(0.05,0,0,0.05,27,0)" xlink:href="#aM"/><use transform="matrix(0.05,0,0,0.05,32,0)" xlink:href="#aK"/><use transform="matrix(0.05,0,0,0.05,42,0)" xlink:href="#aL"/></g><path d="M115-194c55 1 70 41 70 98S169 2 115 4C84 4 66-9 55-30l1 105H24l-1-265h31l2 30c10-21 28-34 59-34zm-8 174c40 0 45-34 45-75s-6-73-45-74c-42 0-51 32-51 76 0 43 10 73 51 73" id="bO"/><g id="N"><use transform="matrix(0.05,0,0,0.05,0,0)" xlink:href="#br"/><use transform="matrix(0.05,0,0,0.05,12,0)" xlink:href="#bO"/><use transform="matrix(0.05,0,0,0.05,22,0)" xlink:href="#bO"/><use transform="matrix(0.05,0,0,0.05,32,0)" xlink:href="#aQ"/><use transform="matrix(0.05,0,0,0.05,37.95,0)" xlink:href="#aN"/><use transform="matrix(0.05,0,0,0.05,47.95,0)" xlink:href="#bv"/><use transform="matrix(0.05,0,0,0.05,56.95,0)" xlink:href="#aP"/><use transform="matrix(0.05,0,0,0.05,66.95,0)" xlink:href="#aW"/><use transform="matrix(0.05,0,0,0.05,76.95,0)" xlink:href="#bo"/></g><path fill="#fff" d="M194-120c59 52 2 134-86 124-53-6-90-18-98-63l31-7c8 30 29 43 70 43 46 0 84-17 71-62-32-43-135-20-137-98-3-89 178-90 191-16l-30 9c-8-48-127-53-127 5 0 53 81 35 115 65" id="bP"/><g id="O"><use transform="matrix(0.04938271604938272,0,0,0.04938271604938272,0,0)" xlink:href="#bP"/><use transform="matrix(0.04938271604938272,0,0,0.04938271604938272,11.851851851851853,0)" xlink:href="#bI"/><use transform="matrix(0.04938271604938272,0,0,0.04938271604938272,21.7283950617284,0)" xlink:href="#bc"/><use transform="matrix(0.04938271604938272,0,0,0.04938271604938272,25.629629629629633,0)" xlink:href="#bF"/><use transform="matrix(0.04938271604938272,0,0,0.04938271604938272,35.50617283950618,0)" xlink:href="#bF"/><use transform="matrix(0.04938271604938272,0,0,0.04938271604938272,45.38271604938272,0)" xlink:href="#aY"/><use transform="matrix(0.04938271604938272,0,0,0.04938271604938272,55.25925925925927,0)" xlink:href="#bC"/></g><g id="P"><use transform="matrix(0.05,0,0,0.05,0,0)" xlink:href="#aM"/><use transform="matrix(0.05,0,0,0.05,5,0)" xlink:href="#aN"/></g><g id="Q"><use transform="matrix(0.05,0,0,0.05,0,0)" xlink:href="#bi"/><use transform="matrix(0.05,0,0,0.05,9,0)" xlink:href="#aK"/><use transform="matrix(0.05,0,0,0.05,19,0)" xlink:href="#aL"/><use transform="matrix(0.05,0,0,0.05,28,0)" xlink:href="#aM"/><use transform="matrix(0.05,0,0,0.05,33,0)" xlink:href="#aN"/><use transform="matrix(0.05,0,0,0.05,43,0)" xlink:href="#aO"/><use transform="matrix(0.05,0,0,0.05,57.95,0)" xlink:href="#aP"/><use transform="matrix(0.05,0,0,0.05,67.95,0)" xlink:href="#aQ"/></g><path fill="#fff" d="M125-24c46 0 70-25 89-51l25 16C214-24 183 4 123 4 8 4-5-146 60-208c32-50 158-61 191-5 5 7 9 14 11 22l-32 10c-9-28-33-43-69-43-74 0-108 51-108 125 0 46 24 75 72 75" id="bQ"/><path fill="#fff" d="M248-111c6-24 9-61-24-58-72 9-57 108-77 169h-31l26-142c3-37-50-30-64-10C52-115 50-51 37 0H6l36-190h30c-1 10-6 24-4 32 13-43 101-52 105 5 13-22 29-41 61-41 90 0 28 129 23 194h-31" id="bR"/><g id="R"><use transform="matrix(0.04938271604938272,0,0,0.04938271604938272,0,0)" xlink:href="#bQ"/><use transform="matrix(0.04938271604938272,0,0,0.04938271604938272,12.790123456790125,0)" xlink:href="#bH"/><use transform="matrix(0.04938271604938272,0,0,0.04938271604938272,22.66666666666667,0)" xlink:href="#bd"/><use transform="matrix(0.04938271604938272,0,0,0.04938271604938272,31.555555555555557,0)" xlink:href="#be"/><use transform="matrix(0.04938271604938272,0,0,0.04938271604938272,36.49382716049384,0)" xlink:href="#bz"/><use transform="matrix(0.04938271604938272,0,0,0.04938271604938272,46.37037037037038,0)" xlink:href="#bR"/><use transform="matrix(0.04938271604938272,0,0,0.04938271604938272,61.13580246913581,0)" xlink:href="#aY"/><use transform="matrix(0.04938271604938272,0,0,0.04938271604938272,71.01234567901236,0)" xlink:href="#by"/></g><g id="S"><use transform="matrix(0.04938271604938272,0,0,0.04938271604938272,0,0)" xlink:href="#bM"/><use transform="matrix(0.04938271604938272,0,0,0.04938271604938272,9.876543209876544,0)" xlink:href="#bA"/><use transform="matrix(0.04938271604938272,0,0,0.04938271604938272,18.765432098765434,0)" xlink:href="#bA"/><use transform="matrix(0.04938271604938272,0,0,0.04938271604938272,27.654320987654323,0)" xlink:href="#aY"/><use transform="matrix(0.04938271604938272,0,0,0.04938271604938272,37.53086419753087,0)" xlink:href="#bF"/><use transform="matrix(0.04938271604938272,0,0,0.04938271604938272,47.40740740740741,0)" xlink:href="#be"/><use transform="matrix(0.04938271604938272,0,0,0.04938271604938272,52.345679012345684,0)" xlink:href="#bd"/></g><g id="T"><use transform="matrix(0.04938271604938272,0,0,0.04938271604938272,0,0)" xlink:href="#bd"/><use transform="matrix(0.04938271604938272,0,0,0.04938271604938272,8.88888888888889,0)" xlink:href="#bI"/><use transform="matrix(0.04938271604938272,0,0,0.04938271604938272,18.765432098765434,0)" xlink:href="#bc"/><use transform="matrix(0.04938271604938272,0,0,0.04938271604938272,22.666666666666668,0)" xlink:href="#bF"/><use transform="matrix(0.04938271604938272,0,0,0.04938271604938272,32.543209876543216,0)" xlink:href="#bR"/><use transform="matrix(0.04938271604938272,0,0,0.04938271604938272,47.308641975308646,0)" xlink:href="#aY"/><use transform="matrix(0.04938271604938272,0,0,0.04938271604938272,57.18518518518519,0)" xlink:href="#bf"/><use transform="matrix(0.04938271604938272,0,0,0.04938271604938272,67.06172839506173,0)" xlink:href="#be"/></g><g id="U"><use transform="matrix(0.05,0,0,0.05,0,0)" xlink:href="#aS"/><use transform="matrix(0.05,0,0,0.05,10,0)" xlink:href="#bi"/><use transform="matrix(0.05,0,0,0.05,19,0)" xlink:href="#bi"/><use transform="matrix(0.05,0,0,0.05,28,0)" xlink:href="#aP"/><use transform="matrix(0.05,0,0,0.05,38,0)" xlink:href="#bO"/><use transform="matrix(0.05,0,0,0.05,48,0)" xlink:href="#aM"/><use transform="matrix(0.05,0,0,0.05,53,0)" xlink:href="#aL"/></g><g id="V"><use transform="matrix(0.05,0,0,0.05,0,0)" xlink:href="#aL"/><use transform="matrix(0.05,0,0,0.05,9,0)" xlink:href="#bj"/><use transform="matrix(0.05,0,0,0.05,19,0)" xlink:href="#bl"/><use transform="matrix(0.05,0,0,0.05,22.95,0)" xlink:href="#bO"/><use transform="matrix(0.05,0,0,0.05,32.95,0)" xlink:href="#aO"/><use transform="matrix(0.05,0,0,0.05,47.900000000000006,0)" xlink:href="#aP"/><use transform="matrix(0.05,0,0,0.05,57.900000000000006,0)" xlink:href="#aU"/><use transform="matrix(0.05,0,0,0.05,67.9,0)" xlink:href="#aM"/></g><g id="W"><use transform="matrix(0.05,0,0,0.05,0,0)" xlink:href="#bi"/><use transform="matrix(0.05,0,0,0.05,9,0)" xlink:href="#bt"/><use transform="matrix(0.05,0,0,0.05,12.949999999999998,0)" xlink:href="#aN"/><use transform="matrix(0.05,0,0,0.05,22.95,0)" xlink:href="#aL"/><use transform="matrix(0.05,0,0,0.05,31.950000000000003,0)" xlink:href="#aP"/><use transform="matrix(0.05,0,0,0.05,41.95,0)" xlink:href="#aW"/></g><path fill="#3a414a" d="M26 75v-336h71v23H56V52h41v23H26" id="bS"/><path fill="#3a414a" d="M30-248c87 1 191-15 191 75 0 78-77 80-158 76V0H30v-248zm33 125c57 0 124 11 124-50 0-59-68-47-124-48v98" id="bT"/><path fill="#3a414a" d="M141-36C126-15 110 5 73 4 37 3 15-17 15-53c-1-64 63-63 125-63 3-35-9-54-41-54-24 1-41 7-42 31l-33-3c5-37 33-52 76-52 45 0 72 20 72 64v82c-1 20 7 32 28 27v20c-31 9-61-2-59-35zM48-53c0 20 12 33 32 33 41-3 63-29 60-74-43 2-92-5-92 41" id="bU"/><path fill="#3a414a" d="M179-190L93 31C79 59 56 82 12 73V49c39 6 53-20 64-50L1-190h34L92-34l54-156h33" id="bV"/><path fill="#3a414a" d="M210-169c-67 3-38 105-44 169h-31v-121c0-29-5-50-35-48C34-165 62-65 56 0H25l-1-190h30c1 10-1 24 2 32 10-44 99-50 107 0 11-21 27-35 58-36 85-2 47 119 55 194h-31v-121c0-29-5-49-35-48" id="bW"/><path fill="#3a414a" d="M100-194c63 0 86 42 84 106H49c0 40 14 67 53 68 26 1 43-12 49-29l28 8c-11 28-37 45-77 45C44 4 14-33 15-96c1-61 26-98 85-98zm52 81c6-60-76-77-97-28-3 7-6 17-6 28h103" id="bX"/><path fill="#3a414a" d="M117-194c89-4 53 116 60 194h-32v-121c0-31-8-49-39-48C34-167 62-67 57 0H25l-1-190h30c1 10-1 24 2 32 11-22 29-35 61-36" id="bY"/><path fill="#3a414a" d="M59-47c-2 24 18 29 38 22v24C64 9 27 4 27-40v-127H5v-23h24l9-43h21v43h35v23H59v120" id="bZ"/><g id="X"><use transform="matrix(0.05,0,0,0.05,0,0)" xlink:href="#bS"/><use transform="matrix(0.05,0,0,0.05,5,0)" xlink:href="#bT"/><use transform="matrix(0.05,0,0,0.05,17,0)" xlink:href="#bU"/><use transform="matrix(0.05,0,0,0.05,27,0)" xlink:href="#bV"/><use transform="matrix(0.05,0,0,0.05,36,0)" xlink:href="#bW"/><use transform="matrix(0.05,0,0,0.05,50.95,0)" xlink:href="#bX"/><use transform="matrix(0.05,0,0,0.05,60.95,0)" xlink:href="#bY"/><use transform="matrix(0.05,0,0,0.05,70.95,0)" xlink:href="#bZ"/></g><path fill="#3a414a" d="M185-189c-5-48-123-54-124 2 14 75 158 14 163 119 3 78-121 87-175 55-17-10-28-26-33-46l33-7c5 56 141 63 141-1 0-78-155-14-162-118-5-82 145-84 179-34 5 7 8 16 11 25" id="ca"/><path fill="#3a414a" d="M84 4C-5 8 30-112 23-190h32v120c0 31 7 50 39 49 72-2 45-101 50-169h31l1 190h-30c-1-10 1-25-2-33-11 22-28 36-60 37" id="cb"/><path fill="#3a414a" d="M135-143c-3-34-86-38-87 0 15 53 115 12 119 90S17 21 10-45l28-5c4 36 97 45 98 0-10-56-113-15-118-90-4-57 82-63 122-42 12 7 21 19 24 35" id="cc"/><g id="Y"><use transform="matrix(0.05,0,0,0.05,0,0)" xlink:href="#ca"/><use transform="matrix(0.05,0,0,0.05,12,0)" xlink:href="#bZ"/><use transform="matrix(0.05,0,0,0.05,17,0)" xlink:href="#bU"/><use transform="matrix(0.05,0,0,0.05,27,0)" xlink:href="#bZ"/><use transform="matrix(0.05,0,0,0.05,32,0)" xlink:href="#cb"/><use transform="matrix(0.05,0,0,0.05,42,0)" xlink:href="#cc"/></g><path fill="#3a414a" d="M18-150v-26h174v26H18zm0 90v-26h174v26H18" id="cd"/><use transform="matrix(0.05,0,0,0.05,0,0)" xlink:href="#cd" id="Z"/><path fill="#3a414a" d="M30-248c118-7 216 8 213 122C240-48 200 0 122 0H30v-248zM63-27c89 8 146-16 146-99s-60-101-146-95v194" id="ce"/><path fill="#3a414a" d="M24-231v-30h32v30H24zM24 0v-190h32V0H24" id="cf"/><path fill="#3a414a" d="M85-194c31 0 48 13 60 33l-1-100h32l1 261h-30c-2-10 0-23-3-31C134-8 116 4 85 4 32 4 16-35 15-94c0-66 23-100 70-100zm9 24c-40 0-46 34-46 75 0 40 6 74 45 74 42 0 51-32 51-76 0-42-9-74-50-73" id="cg"/><path fill="#3a414a" d="M3 75V52h41v-290H3v-23h71V75H3" id="ch"/><g id="aa"><use transform="matrix(0.05,0,0,0.05,0,0)" xlink:href="#ce"/><use transform="matrix(0.05,0,0,0.05,12.950000000000001,0)" xlink:href="#bX"/><use transform="matrix(0.05,0,0,0.05,22.950000000000003,0)" xlink:href="#bY"/><use transform="matrix(0.05,0,0,0.05,32.95,0)" xlink:href="#cf"/><use transform="matrix(0.05,0,0,0.05,36.900000000000006,0)" xlink:href="#bX"/><use transform="matrix(0.05,0,0,0.05,46.900000000000006,0)" xlink:href="#cg"/><use transform="matrix(0.05,0,0,0.05,56.900000000000006,0)" xlink:href="#ch"/></g><path fill="#3a414a" d="M212-179c-10-28-35-45-73-45-59 0-87 40-87 99 0 60 29 101 89 101 43 0 62-24 78-52l27 14C228-24 195 4 139 4 59 4 22-46 18-125c-6-104 99-153 187-111 19 9 31 26 39 46" id="ci"/><path fill="#3a414a" d="M100-194c62-1 85 37 85 99 1 63-27 99-86 99S16-35 15-95c0-66 28-99 85-99zM99-20c44 1 53-31 53-75 0-43-8-75-51-75s-53 32-53 75 10 74 51 75" id="cj"/><path fill="#3a414a" d="M114-163C36-179 61-72 57 0H25l-1-190h30c1 12-1 29 2 39 6-27 23-49 58-41v29" id="ck"/><g id="ab"><use transform="matrix(0.05,0,0,0.05,0,0)" xlink:href="#ci"/><use transform="matrix(0.05,0,0,0.05,12.950000000000001,0)" xlink:href="#cb"/><use transform="matrix(0.05,0,0,0.05,22.950000000000003,0)" xlink:href="#cc"/><use transform="matrix(0.05,0,0,0.05,31.950000000000003,0)" xlink:href="#bZ"/><use transform="matrix(0.05,0,0,0.05,36.95,0)" xlink:href="#cj"/><use transform="matrix(0.05,0,0,0.05,46.95,0)" xlink:href="#bW"/><use transform="matrix(0.05,0,0,0.05,61.900000000000006,0)" xlink:href="#bX"/><use transform="matrix(0.05,0,0,0.05,71.9,0)" xlink:href="#ck"/></g><path fill="#3a414a" d="M206 0h-36l-40-164L89 0H53L-1-190h32L70-26l43-164h34l41 164 42-164h31" id="cl"/><path fill="#3a414a" d="M106-169C34-169 62-67 57 0H25v-261h32l-1 103c12-21 28-36 61-36 89 0 53 116 60 194h-32v-121c2-32-8-49-39-48" id="cm"/><g id="ac"><use transform="matrix(0.05,0,0,0.05,0,0)" xlink:href="#cl"/><use transform="matrix(0.05,0,0,0.05,12.950000000000001,0)" xlink:href="#cf"/><use transform="matrix(0.05,0,0,0.05,16.900000000000002,0)" xlink:href="#bZ"/><use transform="matrix(0.05,0,0,0.05,21.900000000000002,0)" xlink:href="#cm"/><use transform="matrix(0.05,0,0,0.05,31.900000000000002,0)" xlink:href="#cg"/><use transform="matrix(0.05,0,0,0.05,41.900000000000006,0)" xlink:href="#ck"/><use transform="matrix(0.05,0,0,0.05,47.85000000000001,0)" xlink:href="#bU"/><use transform="matrix(0.05,0,0,0.05,57.85,0)" xlink:href="#cl"/><use transform="matrix(0.05,0,0,0.05,70.80000000000001,0)" xlink:href="#cc"/></g><g id="ad"><use transform="matrix(0.05,0,0,0.05,0,0)" xlink:href="#cj"/><use transform="matrix(0.05,0,0,0.05,10,0)" xlink:href="#ck"/><use transform="matrix(0.05,0,0,0.05,15.949999999999998,0)" xlink:href="#cg"/><use transform="matrix(0.05,0,0,0.05,25.950000000000003,0)" xlink:href="#bX"/><use transform="matrix(0.05,0,0,0.05,35.95,0)" xlink:href="#ck"/></g><path fill="#3a414a" d="M145-31C134-9 116 4 85 4 32 4 16-35 15-94c0-59 17-99 70-100 32-1 48 14 60 33 0-11-1-24 2-32h30l-1 268h-32zM93-21c41 0 51-33 51-76s-8-73-50-73c-40 0-46 35-46 75s5 74 45 74" id="cn"/><g id="ae"><use transform="matrix(0.05,0,0,0.05,0,0)" xlink:href="#ck"/><use transform="matrix(0.05,0,0,0.05,5.95,0)" xlink:href="#bX"/><use transform="matrix(0.05,0,0,0.05,15.949999999999998,0)" xlink:href="#cn"/><use transform="matrix(0.05,0,0,0.05,25.950000000000003,0)" xlink:href="#cb"/><use transform="matrix(0.05,0,0,0.05,35.95,0)" xlink:href="#bX"/><use transform="matrix(0.05,0,0,0.05,45.95,0)" xlink:href="#cc"/><use transform="matrix(0.05,0,0,0.05,54.95,0)" xlink:href="#bZ"/></g><g id="af"><use transform="matrix(0.05,0,0,0.05,0,0)" xlink:href="#bX"/><use transform="matrix(0.05,0,0,0.05,10,0)" xlink:href="#cg"/><use transform="matrix(0.05,0,0,0.05,20,0)" xlink:href="#cf"/><use transform="matrix(0.05,0,0,0.05,23.95,0)" xlink:href="#bZ"/><use transform="matrix(0.05,0,0,0.05,28.950000000000003,0)" xlink:href="#cc"/></g><path fill="#3a414a" d="M115-194c55 1 70 41 70 98S169 2 115 4C84 4 66-9 55-30l1 105H24l-1-265h31l2 30c10-21 28-34 59-34zm-8 174c40 0 45-34 45-75s-6-73-45-74c-42 0-51 32-51 76 0 43 10 73 51 73" id="co"/><g id="ag"><use transform="matrix(0.05,0,0,0.05,0,0)" xlink:href="#co"/><use transform="matrix(0.05,0,0,0.05,10,0)" xlink:href="#bU"/><use transform="matrix(0.05,0,0,0.05,20,0)" xlink:href="#bV"/><use transform="matrix(0.05,0,0,0.05,29,0)" xlink:href="#bW"/><use transform="matrix(0.05,0,0,0.05,43.95,0)" xlink:href="#bX"/><use transform="matrix(0.05,0,0,0.05,53.95,0)" xlink:href="#bY"/><use transform="matrix(0.05,0,0,0.05,63.95,0)" xlink:href="#bZ"/></g><path fill="#3a414a" d="M101-234c-31-9-42 10-38 44h38v23H63V0H32v-167H5v-23h27c-7-52 17-82 69-68v24" id="cp"/><g id="ah"><use transform="matrix(0.05,0,0,0.05,0,0)" xlink:href="#cf"/><use transform="matrix(0.05,0,0,0.05,3.95,0)" xlink:href="#bY"/><use transform="matrix(0.05,0,0,0.05,13.949999999999998,0)" xlink:href="#cp"/><use transform="matrix(0.05,0,0,0.05,18.95,0)" xlink:href="#cj"/><use transform="matrix(0.05,0,0,0.05,28.950000000000003,0)" xlink:href="#ck"/><use transform="matrix(0.05,0,0,0.05,34.9,0)" xlink:href="#bW"/><use transform="matrix(0.05,0,0,0.05,49.85,0)" xlink:href="#bU"/><use transform="matrix(0.05,0,0,0.05,59.85,0)" xlink:href="#bZ"/><use transform="matrix(0.05,0,0,0.05,64.85,0)" xlink:href="#cf"/><use transform="matrix(0.05,0,0,0.05,68.8,0)" xlink:href="#cj"/><use transform="matrix(0.05,0,0,0.05,78.8,0)" xlink:href="#bY"/></g><g id="ai"><use transform="matrix(0.04938271604938272,0,0,0.04938271604938272,0,0)" xlink:href="#bK"/><use transform="matrix(0.04938271604938272,0,0,0.04938271604938272,12.790123456790125,0)" xlink:href="#aY"/><use transform="matrix(0.04938271604938272,0,0,0.04938271604938272,22.66666666666667,0)" xlink:href="#bA"/><use transform="matrix(0.04938271604938272,0,0,0.04938271604938272,31.555555555555557,0)" xlink:href="#bL"/><use transform="matrix(0.04938271604938272,0,0,0.04938271604938272,35.4567901234568,0)" xlink:href="#bc"/><use transform="matrix(0.04938271604938272,0,0,0.04938271604938272,39.35802469135803,0)" xlink:href="#bf"/><use transform="matrix(0.04938271604938272,0,0,0.04938271604938272,49.23456790123458,0)" xlink:href="#aY"/><use transform="matrix(0.04938271604938272,0,0,0.04938271604938272,59.111111111111114,0)" xlink:href="#bC"/></g><g id="aj"><use transform="matrix(0.04938271604938272,0,0,0.04938271604938272,0,0)" xlink:href="#bw"/><use transform="matrix(0.04938271604938272,0,0,0.04938271604938272,4.938271604938272,0)" xlink:href="#bf"/><use transform="matrix(0.04938271604938272,0,0,0.04938271604938272,14.814814814814817,0)" xlink:href="#bc"/><use transform="matrix(0.04938271604938272,0,0,0.04938271604938272,18.71604938271605,0)" xlink:href="#be"/><use transform="matrix(0.04938271604938272,0,0,0.04938271604938272,23.654320987654323,0)" xlink:href="#bc"/><use transform="matrix(0.04938271604938272,0,0,0.04938271604938272,27.555555555555557,0)" xlink:href="#bM"/><use transform="matrix(0.04938271604938272,0,0,0.04938271604938272,37.4320987654321,0)" xlink:href="#be"/><use transform="matrix(0.04938271604938272,0,0,0.04938271604938272,42.370370370370374,0)" xlink:href="#aY"/><use transform="matrix(0.04938271604938272,0,0,0.04938271604938272,52.24691358024692,0)" xlink:href="#bC"/></g><path d="M145-31C134-9 116 4 85 4 32 4 16-35 15-94c0-59 17-99 70-100 32-1 48 14 60 33 0-11-1-24 2-32h30l-1 268h-32zM93-21c41 0 51-33 51-76s-8-73-50-73c-40 0-46 35-46 75s5 74 45 74" id="cq"/><g id="ak"><use transform="matrix(0.05,0,0,0.05,0,0)" xlink:href="#aQ"/><use transform="matrix(0.05,0,0,0.05,5.95,0)" xlink:href="#aP"/><use transform="matrix(0.05,0,0,0.05,15.949999999999998,0)" xlink:href="#cq"/><use transform="matrix(0.05,0,0,0.05,25.950000000000003,0)" xlink:href="#aK"/><use transform="matrix(0.05,0,0,0.05,35.95,0)" xlink:href="#aP"/><use transform="matrix(0.05,0,0,0.05,45.95,0)" xlink:href="#aL"/><use transform="matrix(0.05,0,0,0.05,54.95,0)" xlink:href="#aM"/></g><g id="al"><use transform="matrix(0.05,0,0,0.05,0,0)" xlink:href="#aQ"/><use transform="matrix(0.05,0,0,0.05,5.95,0)" xlink:href="#aP"/><use transform="matrix(0.05,0,0,0.05,15.949999999999998,0)" xlink:href="#bi"/><use transform="matrix(0.05,0,0,0.05,24.95,0)" xlink:href="#aP"/><use transform="matrix(0.05,0,0,0.05,34.95,0)" xlink:href="#bl"/><use transform="matrix(0.05,0,0,0.05,38.900000000000006,0)" xlink:href="#bv"/><use transform="matrix(0.05,0,0,0.05,47.900000000000006,0)" xlink:href="#aP"/><use transform="matrix(0.05,0,0,0.05,57.900000000000006,0)" xlink:href="#aW"/></g><g id="am"><use transform="matrix(0.05,0,0,0.05,0,0)" xlink:href="#bD"/><use transform="matrix(0.05,0,0,0.05,10,0)" xlink:href="#aT"/></g><g id="an"><use transform="matrix(0.05,0,0,0.05,0,0)" xlink:href="#bi"/><use transform="matrix(0.05,0,0,0.05,9,0)" xlink:href="#aQ"/><use transform="matrix(0.05,0,0,0.05,14.949999999999998,0)" xlink:href="#aP"/><use transform="matrix(0.05,0,0,0.05,24.95,0)" xlink:href="#aW"/><use transform="matrix(0.05,0,0,0.05,34.95,0)" xlink:href="#bl"/><use transform="matrix(0.05,0,0,0.05,38.900000000000006,0)" xlink:href="#aM"/></g><g id="ao"><use transform="matrix(0.05,0,0,0.05,0,0)" xlink:href="#bi"/><use transform="matrix(0.05,0,0,0.05,9,0)" xlink:href="#aS"/><use transform="matrix(0.05,0,0,0.05,19,0)" xlink:href="#aQ"/><use transform="matrix(0.05,0,0,0.05,24.95,0)" xlink:href="#aW"/></g><g id="ap"><use transform="matrix(0.05,0,0,0.05,0,0)" xlink:href="#bi"/><use transform="matrix(0.05,0,0,0.05,9,0)" xlink:href="#aN"/><use transform="matrix(0.05,0,0,0.05,19,0)" xlink:href="#aO"/><use transform="matrix(0.05,0,0,0.05,33.95,0)" xlink:href="#bO"/><use transform="matrix(0.05,0,0,0.05,43.95,0)" xlink:href="#aS"/><use transform="matrix(0.05,0,0,0.05,53.95,0)" xlink:href="#aU"/><use transform="matrix(0.05,0,0,0.05,63.95,0)" xlink:href="#aT"/></g><path d="M127-220V0H93v-220H8v-28h204v28h-85" id="cr"/><g id="aq"><use transform="matrix(0.05,0,0,0.05,0,0)" xlink:href="#cr"/><use transform="matrix(0.05,0,0,0.05,8.950000000000001,0)" xlink:href="#aP"/><use transform="matrix(0.05,0,0,0.05,18.950000000000003,0)" xlink:href="#bi"/><use transform="matrix(0.05,0,0,0.05,27.950000000000003,0)" xlink:href="#bj"/><use transform="matrix(0.05,0,0,0.05,37.95,0)" xlink:href="#aU"/><use transform="matrix(0.05,0,0,0.05,47.95,0)" xlink:href="#bl"/><use transform="matrix(0.05,0,0,0.05,51.900000000000006,0)" xlink:href="#bi"/><use transform="matrix(0.05,0,0,0.05,60.900000000000006,0)" xlink:href="#aS"/><use transform="matrix(0.05,0,0,0.05,70.9,0)" xlink:href="#bt"/></g><g id="ar"><use transform="matrix(0.05,0,0,0.05,0,0)" xlink:href="#aP"/><use transform="matrix(0.05,0,0,0.05,10,0)" xlink:href="#aQ"/><use transform="matrix(0.05,0,0,0.05,15.949999999999998,0)" xlink:href="#aQ"/><use transform="matrix(0.05,0,0,0.05,21.9,0)" xlink:href="#aN"/><use transform="matrix(0.05,0,0,0.05,31.899999999999995,0)" xlink:href="#aQ"/></g><g id="as"><use transform="matrix(0.05,0,0,0.05,0,0)" xlink:href="#aN"/><use transform="matrix(0.05,0,0,0.05,10,0)" xlink:href="#aQ"/></g><g id="at"><use transform="matrix(0.05,0,0,0.05,0,0)" xlink:href="#bl"/><use transform="matrix(0.05,0,0,0.05,3.95,0)" xlink:href="#aU"/><use transform="matrix(0.05,0,0,0.05,13.949999999999998,0)" xlink:href="#aL"/><use transform="matrix(0.05,0,0,0.05,22.95,0)" xlink:href="#aK"/><use transform="matrix(0.05,0,0,0.05,32.95,0)" xlink:href="#bs"/><use transform="matrix(0.05,0,0,0.05,37.6,0)" xlink:href="#bs"/><use transform="matrix(0.05,0,0,0.05,42.6,0)" xlink:href="#bl"/><use transform="matrix(0.05,0,0,0.05,46.550000000000004,0)" xlink:href="#bi"/><use transform="matrix(0.05,0,0,0.05,55.550000000000004,0)" xlink:href="#bl"/><use transform="matrix(0.05,0,0,0.05,59.5,0)" xlink:href="#aP"/><use transform="matrix(0.05,0,0,0.05,69.5,0)" xlink:href="#aU"/><use transform="matrix(0.05,0,0,0.05,79.5,0)" xlink:href="#aM"/></g><g id="au"><use transform="matrix(0.05,0,0,0.05,0,0)" xlink:href="#bs"/><use transform="matrix(0.05,0,0,0.05,5,0)" xlink:href="#aK"/><use transform="matrix(0.05,0,0,0.05,15,0)" xlink:href="#aU"/><use transform="matrix(0.05,0,0,0.05,25,0)" xlink:href="#aW"/><use transform="matrix(0.05,0,0,0.05,35,0)" xlink:href="#aL"/></g><g id="av"><use transform="matrix(0.05,0,0,0.05,0,0)" xlink:href="#aP"/><use transform="matrix(0.05,0,0,0.05,10,0)" xlink:href="#aW"/><use transform="matrix(0.05,0,0,0.05,20,0)" xlink:href="#bl"/><use transform="matrix(0.05,0,0,0.05,23.95,0)" xlink:href="#aM"/><use transform="matrix(0.05,0,0,0.05,28.950000000000003,0)" xlink:href="#aL"/></g><g id="aw"><use transform="matrix(0.05,0,0,0.05,0,0)" xlink:href="#aN"/><use transform="matrix(0.05,0,0,0.05,10,0)" xlink:href="#aQ"/></g><g id="ax"><use transform="matrix(0.05,0,0,0.05,0,0)" xlink:href="#aM"/><use transform="matrix(0.05,0,0,0.05,5,0)" xlink:href="#aQ"/><use transform="matrix(0.05,0,0,0.05,10.95,0)" xlink:href="#bl"/><use transform="matrix(0.05,0,0,0.05,14.899999999999999,0)" xlink:href="#aP"/><use transform="matrix(0.05,0,0,0.05,24.9,0)" xlink:href="#aL"/></g><path d="M177-190C167-65 218 103 67 71c-23-6-38-20-44-43l32-5c15 47 100 32 89-28v-30C133-14 115 1 83 1 29 1 15-40 15-95c0-56 16-97 71-98 29-1 48 16 59 35 1-10 0-23 2-32h30zM94-22c36 0 50-32 50-73 0-42-14-75-50-75-39 0-46 34-46 75s6 73 46 73" id="cs"/><g id="ay"><use transform="matrix(0.05,0,0,0.05,0,0)" xlink:href="#aS"/><use transform="matrix(0.05,0,0,0.05,10,0)" xlink:href="#cs"/><use transform="matrix(0.05,0,0,0.05,20,0)" xlink:href="#aS"/><use transform="matrix(0.05,0,0,0.05,30,0)" xlink:href="#bl"/><use transform="matrix(0.05,0,0,0.05,33.95,0)" xlink:href="#aU"/></g><g id="az"><use transform="matrix(0.04938271604938272,0,0,0.04938271604938272,0,0)" xlink:href="#bQ"/><use transform="matrix(0.04938271604938272,0,0,0.04938271604938272,12.790123456790125,0)" xlink:href="#bM"/><use transform="matrix(0.04938271604938272,0,0,0.04938271604938272,22.66666666666667,0)" xlink:href="#bf"/><use transform="matrix(0.04938271604938272,0,0,0.04938271604938272,32.543209876543216,0)" xlink:href="#bA"/><use transform="matrix(0.04938271604938272,0,0,0.04938271604938272,41.4320987654321,0)" xlink:href="#aY"/><use transform="matrix(0.04938271604938272,0,0,0.04938271604938272,51.308641975308646,0)" xlink:href="#bL"/><use transform="matrix(0.04938271604938272,0,0,0.04938271604938272,55.20987654320988,0)" xlink:href="#aY"/><use transform="matrix(0.04938271604938272,0,0,0.04938271604938272,65.08641975308643,0)" xlink:href="#bC"/></g><g id="aA"><use transform="matrix(0.05,0,0,0.05,0,0)" xlink:href="#bi"/><use transform="matrix(0.05,0,0,0.05,9,0)" xlink:href="#aS"/><use transform="matrix(0.05,0,0,0.05,19,0)" xlink:href="#aU"/><use transform="matrix(0.05,0,0,0.05,29,0)" xlink:href="#bi"/><use transform="matrix(0.05,0,0,0.05,38,0)" xlink:href="#aP"/><use transform="matrix(0.05,0,0,0.05,48,0)" xlink:href="#bt"/><use transform="matrix(0.05,0,0,0.05,51.95,0)" xlink:href="#aL"/></g><path d="M0 4l72-265h28L28 4H0" id="ct"/><g id="aB"><use transform="matrix(0.05,0,0,0.05,0,0)" xlink:href="#aN"/><use transform="matrix(0.05,0,0,0.05,10,0)" xlink:href="#aQ"/><use transform="matrix(0.05,0,0,0.05,15.949999999999998,0)" xlink:href="#aW"/><use transform="matrix(0.05,0,0,0.05,25.950000000000003,0)" xlink:href="#aP"/><use transform="matrix(0.05,0,0,0.05,35.95,0)" xlink:href="#aQ"/><use transform="matrix(0.05,0,0,0.05,41.900000000000006,0)" xlink:href="#ct"/><use transform="matrix(0.05,0,0,0.05,46.900000000000006,0)" xlink:href="#bO"/><use transform="matrix(0.05,0,0,0.05,56.900000000000006,0)" xlink:href="#aS"/><use transform="matrix(0.05,0,0,0.05,66.9,0)" xlink:href="#aT"/><use transform="matrix(0.05,0,0,0.05,75.9,0)" xlink:href="#aO"/><use transform="matrix(0.05,0,0,0.05,90.85000000000001,0)" xlink:href="#aP"/><use transform="matrix(0.05,0,0,0.05,100.85000000000001,0)" xlink:href="#aU"/><use transform="matrix(0.05,0,0,0.05,110.85000000000001,0)" xlink:href="#aM"/></g><g id="aC"><use transform="matrix(0.05,0,0,0.05,0,0)" xlink:href="#aQ"/><use transform="matrix(0.05,0,0,0.05,5.95,0)" xlink:href="#aP"/><use transform="matrix(0.05,0,0,0.05,15.949999999999998,0)" xlink:href="#cq"/><use transform="matrix(0.05,0,0,0.05,25.950000000000003,0)" xlink:href="#aK"/><use transform="matrix(0.05,0,0,0.05,35.95,0)" xlink:href="#aP"/><use transform="matrix(0.05,0,0,0.05,45.95,0)" xlink:href="#aL"/><use transform="matrix(0.05,0,0,0.05,54.95,0)" xlink:href="#aM"/><use transform="matrix(0.05,0,0,0.05,59.95,0)" xlink:href="#aL"/></g><use transform="matrix(0.05,0,0,0.05,0,0)" xlink:href="#aS" id="aD"/><g id="aE"><use transform="matrix(0.05,0,0,0.05,0,0)" xlink:href="#aQ"/><use transform="matrix(0.05,0,0,0.05,5.95,0)" xlink:href="#aP"/><use transform="matrix(0.05,0,0,0.05,15.949999999999998,0)" xlink:href="#bs"/><use transform="matrix(0.05,0,0,0.05,20.95,0)" xlink:href="#aK"/><use transform="matrix(0.05,0,0,0.05,30.950000000000003,0)" xlink:href="#aU"/><use transform="matrix(0.05,0,0,0.05,40.95,0)" xlink:href="#aW"/></g><path fill="#fff" d="M249-183c0 48-29 72-75 77L221 0h-36l-43-103H65L45 0H11l48-248c83 2 190-17 190 65zm-34 3c0-55-74-39-127-41l-18 92c63-1 145 13 145-51" id="cu"/><path fill="#fff" d="M76-167L44 0H12l33-167H18l4-23h27c3-47 25-81 82-69l-4 24c-35-8-44 15-46 45h37l-5 23H76" id="cv"/><g id="aF"><use transform="matrix(0.04938271604938272,0,0,0.04938271604938272,0,0)" xlink:href="#cu"/><use transform="matrix(0.04938271604938272,0,0,0.04938271604938272,12.790123456790125,0)" xlink:href="#aY"/><use transform="matrix(0.04938271604938272,0,0,0.04938271604938272,22.66666666666667,0)" xlink:href="#cv"/><use transform="matrix(0.04938271604938272,0,0,0.04938271604938272,27.604938271604947,0)" xlink:href="#bH"/><use transform="matrix(0.04938271604938272,0,0,0.04938271604938272,37.48148148148149,0)" xlink:href="#bf"/><use transform="matrix(0.04938271604938272,0,0,0.04938271604938272,47.35802469135803,0)" xlink:href="#bC"/><use transform="matrix(0.04938271604938272,0,0,0.04938271604938272,57.23456790123457,0)" xlink:href="#aY"/><use transform="matrix(0.04938271604938272,0,0,0.04938271604938272,67.11111111111111,0)" xlink:href="#bC"/></g><g id="aG"><use transform="matrix(0.05,0,0,0.05,0,0)" xlink:href="#bi"/><use transform="matrix(0.05,0,0,0.05,9,0)" xlink:href="#aN"/><use transform="matrix(0.05,0,0,0.05,19,0)" xlink:href="#aO"/><use transform="matrix(0.05,0,0,0.05,33.95,0)" xlink:href="#bO"/><use transform="matrix(0.05,0,0,0.05,43.95,0)" xlink:href="#bt"/><use transform="matrix(0.05,0,0,0.05,47.900000000000006,0)" xlink:href="#aP"/><use transform="matrix(0.05,0,0,0.05,57.900000000000006,0)" xlink:href="#aM"/><use transform="matrix(0.05,0,0,0.05,62.900000000000006,0)" xlink:href="#aP"/></g><g id="aH"><use transform="matrix(0.05,0,0,0.05,0,0)" xlink:href="#aQ"/><use transform="matrix(0.05,0,0,0.05,5.95,0)" xlink:href="#aP"/><use transform="matrix(0.05,0,0,0.05,15.949999999999998,0)" xlink:href="#bi"/><use transform="matrix(0.05,0,0,0.05,24.95,0)" xlink:href="#aP"/><use transform="matrix(0.05,0,0,0.05,34.95,0)" xlink:href="#bl"/><use transform="matrix(0.05,0,0,0.05,38.900000000000006,0)" xlink:href="#bv"/><use transform="matrix(0.05,0,0,0.05,47.900000000000006,0)" xlink:href="#aP"/><use transform="matrix(0.05,0,0,0.05,57.900000000000006,0)" xlink:href="#aL"/></g><g id="aI"><use transform="matrix(0.05,0,0,0.05,0,0)" xlink:href="#aM"/><use transform="matrix(0.05,0,0,0.05,5,0)" xlink:href="#aP"/><use transform="matrix(0.05,0,0,0.05,15,0)" xlink:href="#aQ"/><use transform="matrix(0.05,0,0,0.05,20.95,0)" xlink:href="#aO"/><use transform="matrix(0.05,0,0,0.05,35.9,0)" xlink:href="#bl"/><use transform="matrix(0.05,0,0,0.05,39.85,0)" xlink:href="#aU"/><use transform="matrix(0.05,0,0,0.05,49.85,0)" xlink:href="#aS"/><use transform="matrix(0.05,0,0,0.05,59.85,0)" xlink:href="#aM"/><use transform="matrix(0.05,0,0,0.05,64.85,0)" xlink:href="#aP"/><use transform="matrix(0.05,0,0,0.05,74.85,0)" xlink:href="#aW"/></g></defs></g></svg>