<svg xmlns="http://www.w3.org/2000/svg" xmlns:xlink="http://www.w3.org/1999/xlink" xmlns:lucid="lucid" width="1221.5" height="991.27"><g transform="translate(1141.5 200.5)" lucid:page-tab-id="Rq8wlrxHbx-_"><path d="M-1500-500H500v1500h-2000z" fill="#fff"/><path d="M-1080 148a8 8 0 0 1 8-8h24a8 8 0 0 1 8 8v564a8 8 0 0 1-8 8h-24a8 8 0 0 1-8-8z" stroke="#f2f2f2" fill="#ced4db"/><path d="M-1059.5-104.27l.34.03.33.08.3.13.3.18.26.22.2.25.2.3.12.3.08.34.03.33v9.9m0 9.9v19.83m0 9.9v19.83m0 9.9V-3m0 9.9v19.82m0 9.9v19.83m0 9.9V86.2m0 9.9v19.83m0 9.92v19.8m0 9.92v19.82m0 9.9v19.83m0 9.9v19.82m0 9.9v19.83m0 9.9v19.83m0 9.9v19.83m0 9.92v19.82m0 9.9v19.83m0 9.9v19.83m0 9.9v19.83m0 9.9v19.83m0 9.9v19.83m0 9.9v19.82m0 9.9v19.82m0 9.9v19.83m0 9.9v19.83m0 9.9v19.83m0 9.9v19.83m0 9.9v19.83m0 9.9v19.82m0 9.9v19.83m0 9.9v9.92M-1059.5-104.27h-3.5M-1057.34 789.75v.52" stroke="#333" fill="none"/><path d="M-1040.25-180.25c0 10.9-8.84 19.75-19.75 19.75-10.9 0-19.75-8.84-19.75-19.75 0-10.9 8.84-19.75 19.75-19.75 10.9 0 19.75 8.84 19.75 19.75z" stroke="#333" fill="#fff"/><path d="M-1060-160.5v47.3a27.6 27.6 0 0 0 4.28 14.76L-1020-42m-40-63.2l-40 63.2m0-98.75h80" stroke="#333" fill="none"/><path d="M-1100-192a8 8 0 0 1 8-8h64a8 8 0 0 1 8 8v164a8 8 0 0 1-8 8h-64a8 8 0 0 1-8-8z" fill="none"/><use xlink:href="#a" transform="matrix(1,0,0,1,-1180,-42) translate(65.77777777777777 14.555555555555555)"/><use xlink:href="#b" transform="matrix(1,0,0,1,-1180,-42) translate(113.1358024691358 14.555555555555555)"/><path d="M-240 188a8 8 0 0 1 8-8h24a8 8 0 0 1 8 8v509.52a8 8 0 0 1-8 8h-24a8 8 0 0 1-8-8z" stroke="#f2f2f2" fill="#ced4db"/><path d="M-310.07-192a8 8 0 0 1 8-8H-128a8 8 0 0 1 8 8v106a8 8 0 0 1-8 8h-174.07a8 8 0 0 1-8-8z" stroke="#000" stroke-opacity="0" fill="#6db1ff"/><use xlink:href="#c" transform="matrix(1,0,0,1,-302.0752381298468,-192) translate(66.31481481481481 56.55555555555555)"/><path d="M-220-79.5v9.83m0 9.83v19.67m0 9.83v19.66m0 9.84v19.66m0 9.83v19.67m0 9.83V77.8m0 9.84v19.67m0 9.84v19.66m0 9.84v19.66m0 9.83v19.67m0 9.83v19.66m0 9.82v19.67m0 9.82v19.66m0 9.84v19.66m0 9.83v19.68m0 9.83v19.67m0 9.83v19.67m0 9.83v19.66m0 9.84v19.66m0 9.83v19.66m0 9.83v19.65m0 9.84v19.65m0 9.83v19.66m0 9.84v19.66m0 9.83v19.67m0 9.83v19.66m0 9.84v19.66m0 9.83v19.67m0 9.83v9.83M-220-79.5v-.5M-220 746.38v.5" stroke="#333" fill="none"/><path d="M-780 286a6 6 0 0 1 6-6h288a6 6 0 0 1 6 6v48a6 6 0 0 1-6 6h-288a6 6 0 0 1-6-6z" fill="none"/><use xlink:href="#d" transform="matrix(1,0,0,1,-780,280) translate(6.34876543209873 33.111111111111114)"/><use xlink:href="#e" transform="matrix(1,0,0,1,-780,280) translate(32.27469135802466 33.111111111111114)"/><use xlink:href="#f" transform="matrix(1,0,0,1,-780,280) translate(71.16358024691355 33.111111111111114)"/><use xlink:href="#g" transform="matrix(1,0,0,1,-780,280) translate(153.9537037037037 33.111111111111114)"/><use xlink:href="#h" transform="matrix(1,0,0,1,-780,280) translate(196.16975308641975 33.111111111111114)"/><use xlink:href="#i" transform="matrix(1,0,0,1,-780,280) translate(220.32407407407408 33.111111111111114)"/><path d="M-780 426a6 6 0 0 1 6-6h228a6 6 0 0 1 6 6v48a6 6 0 0 1-6 6h-228a6 6 0 0 1-6-6z" fill="none"/><use xlink:href="#j" transform="matrix(1,0,0,1,-780,420) translate(5.796296296296305 23.777777777777775)"/><use xlink:href="#f" transform="matrix(1,0,0,1,-780,420) translate(40.36419753086421 23.777777777777775)"/><use xlink:href="#k" transform="matrix(1,0,0,1,-780,420) translate(123.15432098765433 23.777777777777775)"/><use xlink:href="#l" transform="matrix(1,0,0,1,-780,420) translate(195.35802469135803 23.777777777777775)"/><use xlink:href="#m" transform="matrix(1,0,0,1,-780,420) translate(94.93827160493827 42.44444444444444)"/><path d="M-1042.85 480.94h5m4.98 0h9.98m5 0h9.98m5 0h9.97m5 0h9.97m5 0h9.97m4.98 0h9.98m5 0h9.96m5 0h9.98m5 0h9.96m5 0h9.97m5 0h9.97m5 0h9.97m5 0h9.97m5 0h9.97m5 0h9.98m5 0h9.97m5 0h9.97m5 0h9.97m4.98 0h9.98m5 0h9.97m5 0h9.97m5 0h9.97m5 0h9.97m5 0h9.97m5 0h9.98m5 0h9.97m5 0h9.96m5 0h9.94m4.98 0h9.96m4.97 0h9.96m5 0h9.94m4.98 0h9.96m4.98 0h9.95m5 0h9.95m4.98 0h9.95m4.98 0h9.96m4.98 0h9.95m4.98 0h9.96m4.97 0h9.95m4.98 0h9.96m4.98 0h9.95m4.97 0h9.96m4.98 0h9.96m4.98 0h9.96m4.97 0h9.96m4.98 0h9.96m4.98 0h9.96m4.98 0h9.95m4.98 0h9.97m4.98 0h9.95m4.98 0h9.96m4.98 0h9.95m4.98 0h9.96m5 0h9.94m4.98 0h4.98" stroke="#3a414a" fill="none"/><path d="M-1056.34 480.94l13-7.5v15z" stroke="#3a414a" fill="#3a414a"/><path d="M-220.5 480.94h.5" stroke="#3a414a" fill="none"/><path d="M-800 586a6 6 0 0 1 6-6h268a6 6 0 0 1 6 6v48a6 6 0 0 1-6 6h-268a6 6 0 0 1-6-6z" fill="none"/><use xlink:href="#n" transform="matrix(1,0,0,1,-800,580) translate(7.993827160493822 23.777777777777775)"/><use xlink:href="#f" transform="matrix(1,0,0,1,-800,580) translate(42.56172839506173 23.777777777777775)"/><use xlink:href="#o" transform="matrix(1,0,0,1,-800,580) translate(125.35185185185185 23.777777777777775)"/><use xlink:href="#p" transform="matrix(1,0,0,1,-800,580) translate(178.84567901234567 23.777777777777775)"/><use xlink:href="#q" transform="matrix(1,0,0,1,-800,580) translate(234.02469135802468 23.777777777777775)"/><use xlink:href="#r" transform="matrix(1,0,0,1,-800,580) translate(122.78086419753086 42.44444444444444)"/><path d="M-1042.85 640h5m4.98 0h9.98m5 0h9.98m5 0h9.97m5 0h9.97m5 0h9.97m4.98 0h9.98m5 0h9.96m5 0h9.98m5 0h9.96m5 0h9.97m5 0h9.97m5 0h9.97m5 0h9.97m5 0h9.97m5 0h9.98m5 0h9.97m5 0h9.97m5 0h9.97m4.98 0h9.98m5 0h9.97m5 0h9.97m5 0h9.97m5 0h9.97m5 0h9.97m5 0h9.98m5 0h9.97m5 0h9.96m5 0h9.94m4.98 0h9.96m4.97 0h9.96m5 0h9.94m4.98 0h9.96m4.98 0h9.95m5 0h9.95m4.98 0h9.95m4.98 0h9.96m4.98 0h9.95m4.98 0h9.96m4.97 0h9.95m4.98 0h9.96m4.98 0h9.95m4.97 0h9.96m4.98 0h9.96m4.98 0h9.96m4.97 0h9.96m4.98 0h9.96m4.98 0h9.96m4.98 0h9.95m4.98 0h9.97m4.98 0h9.95m4.98 0h9.96m4.98 0h9.95m4.98 0h9.96m5 0h9.94m4.98 0h4.98" stroke="#3a414a" fill="none"/><path d="M-1056.34 640l13-7.5v15z" stroke="#3a414a" fill="#3a414a"/><path d="M-220.5 640h.5" stroke="#3a414a" fill="none"/><path d="M-1140 428a8 8 0 0 1 8-8h84a8 8 0 0 1 8 8v4.93a17.07 17.07 0 0 1-5 12.07 17.07 17.07 0 0 1-12.07 5H-1132a8 8 0 0 1-8-8z" fill="#fff"/><path d="M-1040 420v20l-10 10h-90" stroke="#008a0e" stroke-width="3" fill="none"/><path d="M-1140 428a8 8 0 0 1 8-8h984a8 8 0 0 1 8 8v244a8 8 0 0 1-8 8h-984a8 8 0 0 1-8-8z" stroke="#008a0e" stroke-width="3" fill="none"/><use xlink:href="#s" transform="matrix(1,0,0,1,-1132,420) translate(30.65432098765432 18.555555555555557)"/><path d="M-1059.5 220h823.12M-1059.5 220h-.5" stroke="#333" fill="none"/><path d="M-221.62 220l-14.26 4.63v-9.26z" stroke="#333" fill="#333"/><path d="M-800 166a6 6 0 0 1 6-6h228a6 6 0 0 1 6 6v48a6 6 0 0 1-6 6h-228a6 6 0 0 1-6-6z" fill="none"/><use xlink:href="#t" transform="matrix(1,0,0,1,-800,160) translate(48.125 33.6)"/><use xlink:href="#u" transform="matrix(1,0,0,1,-800,160) translate(78.125 33.6)"/><use xlink:href="#v" transform="matrix(1,0,0,1,-800,160) translate(136.025 33.6)"/><path d="M-1059.5 340h823.12M-1059.5 340h-.5" stroke="#333" fill="none"/><path d="M-221.62 340l-14.26 4.63v-9.26z" stroke="#333" fill="#333"/><path d="M-1043.62 280h5m5.02 0h10.02m5 0h10.02m5 0h10.02m5 0h10.03m5 0h10m5.02 0h10m5.02 0h10.02m5 0h10.02m5 0h10.03m5 0h10.03m5 0h10.02m5 0h10.03m5 0h10.02m5 0h10.03m5 0h10.02m5 0h10.02m5 0h10.03m5 0h10.02m5 0h10.02m5 0h10.03m5 0h10.02m5 0h10.02m5 0h10.02m5 0h10.02m5 0H-663m5 0h10m5.02 0h10.02m5 0h10.02m5 0h10.02m5 0h10.03m5.02 0h10m5.02 0h10m5.02 0h10.02m5 0h10.02m5 0h10.03m5 0h10.02m5 0h10.02m5 0h10.03m5 0h10.02m5 0h10.03m5 0h10.02m5 0h10.02m5 0h9.93m4.92 0h9.84m4.9 0h9.84m4.92 0h9.84m4.92 0h9.84m4.92 0h9.84m4.92 0h9.83m4.92 0h9.83m4.92 0h9.84m4.9 0h9.85m4.92 0h9.83m4.92 0h9.84m4.92 0h4.92" stroke="#333" fill="none"/><path d="M-1058.38 280l14.26-4.63v9.26z" stroke="#333" fill="#333"/><path d="M-220.5 280h.5" stroke="#333" fill="none"/><path d="M-800 236a6 6 0 0 1 6-6h308a6 6 0 0 1 6 6v48a6 6 0 0 1-6 6h-308a6 6 0 0 1-6-6z" fill="none"/><g><use xlink:href="#w" transform="matrix(1,0,0,1,-800,230) translate(4.703703703703695 33.111111111111114)"/><use xlink:href="#x" transform="matrix(1,0,0,1,-800,230) translate(30.629629629629626 33.111111111111114)"/><use xlink:href="#f" transform="matrix(1,0,0,1,-800,230) translate(92.80864197530863 33.111111111111114)"/><use xlink:href="#g" transform="matrix(1,0,0,1,-800,230) translate(175.59876543209876 33.111111111111114)"/><use xlink:href="#h" transform="matrix(1,0,0,1,-800,230) translate(217.8148148148148 33.111111111111114)"/><use xlink:href="#i" transform="matrix(1,0,0,1,-800,230) translate(241.96913580246914 33.111111111111114)"/></g><path d="M-199 354.12h33.5a6 6 0 0 1 6 6v37.25a6 6 0 0 1-6 6H-185" stroke="#3a414a" fill="none"/><path d="M-199 354.6h-.5v-.95h.5z" stroke="#3a414a" stroke-width=".05" fill="#3a414a"/><path d="M-198.5 403.37l13-7.5v15z" stroke="#3a414a" fill="#3a414a"/><path d="M-160 366a6 6 0 0 1 6-6H74a6 6 0 0 1 6 6v48a6 6 0 0 1-6 6h-228a6 6 0 0 1-6-6z" fill="none"/><g><use xlink:href="#y" transform="matrix(1,0,0,1,-160,360) translate(20.349999999999994 22.799999999999997)"/><use xlink:href="#z" transform="matrix(1,0,0,1,-160,360) translate(50.349999999999994 22.799999999999997)"/><use xlink:href="#A" transform="matrix(1,0,0,1,-160,360) translate(166.70000000000002 22.799999999999997)"/><use xlink:href="#B" transform="matrix(1,0,0,1,-160,360) translate(189.65 22.799999999999997)"/><use xlink:href="#C" transform="matrix(1,0,0,1,-160,360) translate(77.57499999999999 44.4)"/></g><path d="M-707.22 421.63h4.72m4.72 0h9.45m4.72 0h9.44m4.72 0h9.44m4.73 0h9.44m4.73 0h9.44m4.72 0h4.73M-707.2 421.63h-.52" stroke="#3a414a" fill="none"/><path d="M-608.72 421.63l-13 7.5v-15z" stroke="#3a414a" fill="#3a414a"/><path d="M-1139.5 540h4.97m4.97 0h9.94m4.97 0h9.94m4.96 0h9.94m4.97 0h9.94m4.98 0h9.94m4.97 0h9.93m4.97 0h9.94m4.97 0h9.95m4.97 0h9.94m4.97 0h9.95m4.96 0h9.95m4.96 0h9.94m4.97 0h9.94m4.98 0h9.94m4.97 0h9.93m4.97 0h9.94m4.97 0h9.95m4.97 0h9.94m4.97 0h9.94m4.97 0h9.94m4.97 0h9.94m4.96 0h9.94m4.97 0h9.94m4.98 0h9.94m4.97 0h9.93m4.97 0h9.94m4.97 0h9.95m4.97 0h9.94m4.97 0h9.94m4.97 0h9.94m4.97 0h9.94m4.96 0h9.94m4.98 0h9.93m5 0h9.92m4.98 0h9.94m4.97 0h9.95m4.97 0h9.94m4.97 0h9.94m4.97 0h9.94m4.97 0h9.94m4.96 0h9.94m4.97 0h9.94m4.98 0h9.94m4.97 0h9.93m4.97 0h9.94m4.97 0h9.95m4.97 0h9.94m4.97 0h9.94m4.97 0h9.94m4.97 0h9.94m4.96 0h9.94m4.97 0h9.94m4.98 0h9.94m4.97 0h9.93m4.97 0h9.94m4.97 0h9.95m4.98 0h9.94m4.97 0h9.94m4.97 0h9.94m4.96 0h9.94m4.97 0h9.94m4.98 0h9.94m4.97 0h9.93m4.97 0h9.94m4.97 0h9.95m4.97 0h9.94m4.97 0h4.97M-1139.5 540h-.5M-140.5 540h.5" stroke="#3a414a" fill="none"/><defs><path d="M185-189c-5-48-123-54-124 2 14 75 158 14 163 119 3 78-121 87-175 55-17-10-28-26-33-46l33-7c5 56 141 63 141-1 0-78-155-14-162-118-5-82 145-84 179-34 5 7 8 16 11 25" id="D"/><path d="M59-47c-2 24 18 29 38 22v24C64 9 27 4 27-40v-127H5v-23h24l9-43h21v43h35v23H59v120" id="E"/><path d="M100-194c62-1 85 37 85 99 1 63-27 99-86 99S16-35 15-95c0-66 28-99 85-99zM99-20c44 1 53-31 53-75 0-43-8-75-51-75s-53 32-53 75 10 74 51 75" id="F"/><path d="M114-163C36-179 61-72 57 0H25l-1-190h30c1 12-1 29 2 39 6-27 23-49 58-41v29" id="G"/><path d="M100-194c63 0 86 42 84 106H49c0 40 14 67 53 68 26 1 43-12 49-29l28 8c-11 28-37 45-77 45C44 4 14-33 15-96c1-61 26-98 85-98zm52 81c6-60-76-77-97-28-3 7-6 17-6 28h103" id="H"/><g id="a"><use transform="matrix(0.04938271604938272,0,0,0.04938271604938272,0,0)" xlink:href="#D"/><use transform="matrix(0.04938271604938272,0,0,0.04938271604938272,11.851851851851853,0)" xlink:href="#E"/><use transform="matrix(0.04938271604938272,0,0,0.04938271604938272,16.790123456790127,0)" xlink:href="#F"/><use transform="matrix(0.04938271604938272,0,0,0.04938271604938272,26.666666666666668,0)" xlink:href="#G"/><use transform="matrix(0.04938271604938272,0,0,0.04938271604938272,32.543209876543216,0)" xlink:href="#H"/></g><path d="M212-179c-10-28-35-45-73-45-59 0-87 40-87 99 0 60 29 101 89 101 43 0 62-24 78-52l27 14C228-24 195 4 139 4 59 4 22-46 18-125c-6-104 99-153 187-111 19 9 31 26 39 46" id="I"/><path d="M141-36C126-15 110 5 73 4 37 3 15-17 15-53c-1-64 63-63 125-63 3-35-9-54-41-54-24 1-41 7-42 31l-33-3c5-37 33-52 76-52 45 0 72 20 72 64v82c-1 20 7 32 28 27v20c-31 9-61-2-59-35zM48-53c0 20 12 33 32 33 41-3 63-29 60-74-43 2-92-5-92 41" id="J"/><path d="M135-143c-3-34-86-38-87 0 15 53 115 12 119 90S17 21 10-45l28-5c4 36 97 45 98 0-10-56-113-15-118-90-4-57 82-63 122-42 12 7 21 19 24 35" id="K"/><path d="M106-169C34-169 62-67 57 0H25v-261h32l-1 103c12-21 28-36 61-36 89 0 53 116 60 194h-32v-121c2-32-8-49-39-48" id="L"/><path d="M24-231v-30h32v30H24zM24 0v-190h32V0H24" id="M"/><g id="b"><use transform="matrix(0.04938271604938272,0,0,0.04938271604938272,0,0)" xlink:href="#I"/><use transform="matrix(0.04938271604938272,0,0,0.04938271604938272,12.790123456790125,0)" xlink:href="#J"/><use transform="matrix(0.04938271604938272,0,0,0.04938271604938272,22.66666666666667,0)" xlink:href="#K"/><use transform="matrix(0.04938271604938272,0,0,0.04938271604938272,31.555555555555557,0)" xlink:href="#L"/><use transform="matrix(0.04938271604938272,0,0,0.04938271604938272,41.4320987654321,0)" xlink:href="#M"/><use transform="matrix(0.04938271604938272,0,0,0.04938271604938272,45.333333333333336,0)" xlink:href="#H"/><use transform="matrix(0.04938271604938272,0,0,0.04938271604938272,55.20987654320988,0)" xlink:href="#G"/></g><path d="M33-154v-36h34v36H33zM33 0v-36h34V0H33" id="N"/><path d="M232-93c-1 65-40 97-104 97C67 4 28-28 28-90v-158h33c8 89-33 224 67 224 102 0 64-133 71-224h33v155" id="O"/><g id="c"><use transform="matrix(0.04938271604938272,0,0,0.04938271604938272,0,0)" xlink:href="#N"/><use transform="matrix(0.04938271604938272,0,0,0.04938271604938272,4.938271604938272,0)" xlink:href="#O"/><use transform="matrix(0.04938271604938272,0,0,0.04938271604938272,17.7283950617284,0)" xlink:href="#K"/><use transform="matrix(0.04938271604938272,0,0,0.04938271604938272,26.617283950617285,0)" xlink:href="#H"/><use transform="matrix(0.04938271604938272,0,0,0.04938271604938272,36.49382716049384,0)" xlink:href="#G"/></g><path d="M27 0v-27h64v-190l-56 39v-29l58-41h29v221h61V0H27" id="P"/><path d="M33 0v-38h34V0H33" id="Q"/><g id="d"><use transform="matrix(0.04320987654320988,0,0,0.04320987654320988,0,0)" xlink:href="#P"/><use transform="matrix(0.04320987654320988,0,0,0.04320987654320988,8.641975308641976,0)" xlink:href="#Q"/><use transform="matrix(0.04320987654320988,0,0,0.04320987654320988,12.962962962962964,0)" xlink:href="#P"/></g><path d="M33 0v-248h34V0H33" id="R"/><path d="M117-194c89-4 53 116 60 194h-32v-121c0-31-8-49-39-48C34-167 62-67 57 0H25l-1-190h30c1 10-1 24 2 32 11-22 29-35 61-36" id="S"/><path d="M115-194c55 1 70 41 70 98S169 2 115 4C84 4 66-9 55-30l1 105H24l-1-265h31l2 30c10-21 28-34 59-34zm-8 174c40 0 45-34 45-75s-6-73-45-74c-42 0-51 32-51 76 0 43 10 73 51 73" id="T"/><path d="M84 4C-5 8 30-112 23-190h32v120c0 31 7 50 39 49 72-2 45-101 50-169h31l1 190h-30c-1-10 1-25-2-33-11 22-28 36-60 37" id="U"/><g id="e"><use transform="matrix(0.04320987654320988,0,0,0.04320987654320988,0,0)" xlink:href="#R"/><use transform="matrix(0.04320987654320988,0,0,0.04320987654320988,4.320987654320988,0)" xlink:href="#S"/><use transform="matrix(0.04320987654320988,0,0,0.04320987654320988,12.962962962962964,0)" xlink:href="#T"/><use transform="matrix(0.04320987654320988,0,0,0.04320987654320988,21.604938271604944,0)" xlink:href="#U"/><use transform="matrix(0.04320987654320988,0,0,0.04320987654320988,30.24691358024692,0)" xlink:href="#E"/></g><path d="M85-194c31 0 48 13 60 33l-1-100h32l1 261h-30c-2-10 0-23-3-31C134-8 116 4 85 4 32 4 16-35 15-94c0-66 23-100 70-100zm9 24c-40 0-46 34-46 75 0 40 6 74 45 74 42 0 51-32 51-76 0-42-9-74-50-73" id="V"/><path d="M24 0v-261h32V0H24" id="W"/><g id="f"><use transform="matrix(0.04320987654320988,0,0,0.04320987654320988,0,0)" xlink:href="#I"/><use transform="matrix(0.04320987654320988,0,0,0.04320987654320988,11.19135802469136,0)" xlink:href="#G"/><use transform="matrix(0.04320987654320988,0,0,0.04320987654320988,16.333333333333336,0)" xlink:href="#H"/><use transform="matrix(0.04320987654320988,0,0,0.04320987654320988,24.97530864197531,0)" xlink:href="#V"/><use transform="matrix(0.04320987654320988,0,0,0.04320987654320988,33.617283950617285,0)" xlink:href="#H"/><use transform="matrix(0.04320987654320988,0,0,0.04320987654320988,42.25925925925926,0)" xlink:href="#S"/><use transform="matrix(0.04320987654320988,0,0,0.04320987654320988,50.90123456790123,0)" xlink:href="#E"/><use transform="matrix(0.04320987654320988,0,0,0.04320987654320988,55.22222222222222,0)" xlink:href="#M"/><use transform="matrix(0.04320987654320988,0,0,0.04320987654320988,58.63580246913581,0)" xlink:href="#J"/><use transform="matrix(0.04320987654320988,0,0,0.04320987654320988,67.27777777777779,0)" xlink:href="#W"/><use transform="matrix(0.04320987654320988,0,0,0.04320987654320988,70.69135802469137,0)" xlink:href="#K"/></g><path d="M87 75C49 33 22-17 22-94c0-76 28-126 65-167h31c-38 41-64 92-64 168S80 34 118 75H87" id="X"/><g id="g"><use transform="matrix(0.04320987654320988,0,0,0.04320987654320988,0,0)" xlink:href="#X"/><use transform="matrix(0.04320987654320988,0,0,0.04320987654320988,5.1419753086419755,0)" xlink:href="#O"/><use transform="matrix(0.04320987654320988,0,0,0.04320987654320988,16.333333333333336,0)" xlink:href="#K"/><use transform="matrix(0.04320987654320988,0,0,0.04320987654320988,24.111111111111114,0)" xlink:href="#H"/><use transform="matrix(0.04320987654320988,0,0,0.04320987654320988,32.75308641975309,0)" xlink:href="#G"/></g><path d="M30-248c118-7 216 8 213 122C240-48 200 0 122 0H30v-248zM63-27c89 8 146-16 146-99s-60-101-146-95v194" id="Y"/><path d="M68-38c1 34 0 65-14 84H32c9-13 17-26 17-46H33v-38h35" id="Z"/><g id="h"><use transform="matrix(0.04320987654320988,0,0,0.04320987654320988,0,0)" xlink:href="#R"/><use transform="matrix(0.04320987654320988,0,0,0.04320987654320988,4.320987654320988,0)" xlink:href="#Y"/><use transform="matrix(0.04320987654320988,0,0,0.04320987654320988,15.512345679012347,0)" xlink:href="#Z"/></g><path d="M30-248c87 1 191-15 191 75 0 78-77 80-158 76V0H30v-248zm33 125c57 0 124 11 124-50 0-59-68-47-124-48v98" id="aa"/><path d="M206 0h-36l-40-164L89 0H53L-1-190h32L70-26l43-164h34l41 164 42-164h31" id="ab"/><path d="M33-261c38 41 65 92 65 168S71 34 33 75H2C39 34 66-17 66-93S39-220 2-261h31" id="ac"/><g id="i"><use transform="matrix(0.04320987654320988,0,0,0.04320987654320988,0,0)" xlink:href="#aa"/><use transform="matrix(0.04320987654320988,0,0,0.04320987654320988,10.370370370370372,0)" xlink:href="#J"/><use transform="matrix(0.04320987654320988,0,0,0.04320987654320988,19.01234567901235,0)" xlink:href="#K"/><use transform="matrix(0.04320987654320988,0,0,0.04320987654320988,26.790123456790127,0)" xlink:href="#K"/><use transform="matrix(0.04320987654320988,0,0,0.04320987654320988,34.567901234567906,0)" xlink:href="#ab"/><use transform="matrix(0.04320987654320988,0,0,0.04320987654320988,45.75925925925927,0)" xlink:href="#F"/><use transform="matrix(0.04320987654320988,0,0,0.04320987654320988,54.40123456790124,0)" xlink:href="#G"/><use transform="matrix(0.04320987654320988,0,0,0.04320987654320988,59.543209876543216,0)" xlink:href="#V"/><use transform="matrix(0.04320987654320988,0,0,0.04320987654320988,68.18518518518519,0)" xlink:href="#ac"/></g><path d="M101-251c82-7 93 87 43 132L82-64C71-53 59-42 53-27h129V0H18c2-99 128-94 128-182 0-28-16-43-45-43s-46 15-49 41l-32-3c6-41 34-60 81-64" id="ad"/><g id="j"><use transform="matrix(0.04320987654320988,0,0,0.04320987654320988,0,0)" xlink:href="#ad"/><use transform="matrix(0.04320987654320988,0,0,0.04320987654320988,8.641975308641976,0)" xlink:href="#Q"/><use transform="matrix(0.04320987654320988,0,0,0.04320987654320988,12.962962962962964,0)" xlink:href="#ad"/><use transform="matrix(0.04320987654320988,0,0,0.04320987654320988,21.604938271604944,0)" xlink:href="#J"/></g><path d="M137 0h-34L2-248h35l83 218 83-218h36" id="ae"/><g id="k"><use transform="matrix(0.04320987654320988,0,0,0.04320987654320988,0,0)" xlink:href="#ae"/><use transform="matrix(0.04320987654320988,0,0,0.04320987654320988,9.203703703703706,0)" xlink:href="#J"/><use transform="matrix(0.04320987654320988,0,0,0.04320987654320988,17.845679012345684,0)" xlink:href="#W"/><use transform="matrix(0.04320987654320988,0,0,0.04320987654320988,21.259259259259267,0)" xlink:href="#M"/><use transform="matrix(0.04320987654320988,0,0,0.04320987654320988,24.672839506172846,0)" xlink:href="#V"/><use transform="matrix(0.04320987654320988,0,0,0.04320987654320988,33.314814814814824,0)" xlink:href="#J"/><use transform="matrix(0.04320987654320988,0,0,0.04320987654320988,41.9567901234568,0)" xlink:href="#E"/><use transform="matrix(0.04320987654320988,0,0,0.04320987654320988,46.277777777777786,0)" xlink:href="#H"/><use transform="matrix(0.04320987654320988,0,0,0.04320987654320988,54.91975308641976,0)" xlink:href="#V"/><use transform="matrix(0.04320987654320988,0,0,0.04320987654320988,63.561728395061735,0)" xlink:href="#N"/></g><path d="M143 4C61 4 22-44 18-125c-5-107 100-154 193-111 17 8 29 25 37 43l-32 9c-13-25-37-40-76-40-61 0-88 39-88 99 0 61 29 100 91 101 35 0 62-11 79-27v-45h-74v-28h105v86C228-13 192 4 143 4" id="af"/><g id="l"><use transform="matrix(0.04320987654320988,0,0,0.04320987654320988,0,0)" xlink:href="#af"/><use transform="matrix(0.04320987654320988,0,0,0.04320987654320988,12.098765432098766,0)" xlink:href="#G"/><use transform="matrix(0.04320987654320988,0,0,0.04320987654320988,17.24074074074074,0)" xlink:href="#J"/><use transform="matrix(0.04320987654320988,0,0,0.04320987654320988,25.882716049382715,0)" xlink:href="#S"/><use transform="matrix(0.04320987654320988,0,0,0.04320987654320988,34.52469135802469,0)" xlink:href="#E"/></g><path d="M205 0l-28-72H64L36 0H1l101-248h38L239 0h-34zm-38-99l-47-123c-12 45-31 82-46 123h93" id="ag"/><path d="M96-169c-40 0-48 33-48 73s9 75 48 75c24 0 41-14 43-38l32 2c-6 37-31 61-74 61-59 0-76-41-82-99-10-93 101-131 147-64 4 7 5 14 7 22l-32 3c-4-21-16-35-41-35" id="ah"/><g id="m"><use transform="matrix(0.04320987654320988,0,0,0.04320987654320988,0,0)" xlink:href="#ag"/><use transform="matrix(0.04320987654320988,0,0,0.04320987654320988,10.370370370370372,0)" xlink:href="#ah"/><use transform="matrix(0.04320987654320988,0,0,0.04320987654320988,18.148148148148152,0)" xlink:href="#ah"/><use transform="matrix(0.04320987654320988,0,0,0.04320987654320988,25.925925925925927,0)" xlink:href="#H"/><use transform="matrix(0.04320987654320988,0,0,0.04320987654320988,34.567901234567906,0)" xlink:href="#K"/><use transform="matrix(0.04320987654320988,0,0,0.04320987654320988,42.345679012345684,0)" xlink:href="#K"/></g><path d="M115-194c53 0 69 39 70 98 0 66-23 100-70 100C84 3 66-7 56-30L54 0H23l1-261h32v101c10-23 28-34 59-34zm-8 174c40 0 45-34 45-75 0-40-5-75-45-74-42 0-51 32-51 76 0 43 10 73 51 73" id="ai"/><g id="n"><use transform="matrix(0.04320987654320988,0,0,0.04320987654320988,0,0)" xlink:href="#ad"/><use transform="matrix(0.04320987654320988,0,0,0.04320987654320988,8.641975308641976,0)" xlink:href="#Q"/><use transform="matrix(0.04320987654320988,0,0,0.04320987654320988,12.962962962962964,0)" xlink:href="#ad"/><use transform="matrix(0.04320987654320988,0,0,0.04320987654320988,21.604938271604944,0)" xlink:href="#ai"/></g><path d="M108 0H70L1-190h34L89-25l56-165h34" id="aj"/><g id="o"><use transform="matrix(0.04320987654320988,0,0,0.04320987654320988,0,0)" xlink:href="#R"/><use transform="matrix(0.04320987654320988,0,0,0.04320987654320988,4.320987654320988,0)" xlink:href="#S"/><use transform="matrix(0.04320987654320988,0,0,0.04320987654320988,12.962962962962964,0)" xlink:href="#aj"/><use transform="matrix(0.04320987654320988,0,0,0.04320987654320988,20.740740740740744,0)" xlink:href="#J"/><use transform="matrix(0.04320987654320988,0,0,0.04320987654320988,29.382716049382726,0)" xlink:href="#W"/><use transform="matrix(0.04320987654320988,0,0,0.04320987654320988,32.796296296296305,0)" xlink:href="#M"/><use transform="matrix(0.04320987654320988,0,0,0.04320987654320988,36.20987654320989,0)" xlink:href="#V"/><use transform="matrix(0.04320987654320988,0,0,0.04320987654320988,44.85185185185187,0)" xlink:href="#N"/></g><path d="M179-190L93 31C79 59 56 82 12 73V49c39 6 53-20 64-50L1-190h34L92-34l54-156h33" id="ak"/><g id="p"><use transform="matrix(0.04320987654320988,0,0,0.04320987654320988,0,0)" xlink:href="#Y"/><use transform="matrix(0.04320987654320988,0,0,0.04320987654320988,11.19135802469136,0)" xlink:href="#M"/><use transform="matrix(0.04320987654320988,0,0,0.04320987654320988,14.60493827160494,0)" xlink:href="#K"/><use transform="matrix(0.04320987654320988,0,0,0.04320987654320988,22.38271604938272,0)" xlink:href="#T"/><use transform="matrix(0.04320987654320988,0,0,0.04320987654320988,31.024691358024693,0)" xlink:href="#W"/><use transform="matrix(0.04320987654320988,0,0,0.04320987654320988,34.43827160493828,0)" xlink:href="#J"/><use transform="matrix(0.04320987654320988,0,0,0.04320987654320988,43.080246913580254,0)" xlink:href="#ak"/></g><path d="M30 0v-248h33v221h125V0H30" id="al"/><path d="M177-190C167-65 218 103 67 71c-23-6-38-20-44-43l32-5c15 47 100 32 89-28v-30C133-14 115 1 83 1 29 1 15-40 15-95c0-56 16-97 71-98 29-1 48 16 59 35 1-10 0-23 2-32h30zM94-22c36 0 50-32 50-73 0-42-14-75-50-75-39 0-46 34-46 75s6 73 46 73" id="am"/><g id="q"><use transform="matrix(0.04320987654320988,0,0,0.04320987654320988,0,0)" xlink:href="#al"/><use transform="matrix(0.04320987654320988,0,0,0.04320987654320988,8.641975308641976,0)" xlink:href="#F"/><use transform="matrix(0.04320987654320988,0,0,0.04320987654320988,17.283950617283953,0)" xlink:href="#am"/><use transform="matrix(0.04320987654320988,0,0,0.04320987654320988,25.925925925925927,0)" xlink:href="#M"/><use transform="matrix(0.04320987654320988,0,0,0.04320987654320988,29.339506172839513,0)" xlink:href="#S"/></g><path d="M30 0v-248h187v28H63v79h144v27H63v87h162V0H30" id="an"/><g id="r"><use transform="matrix(0.04320987654320988,0,0,0.04320987654320988,0,0)" xlink:href="#an"/><use transform="matrix(0.04320987654320988,0,0,0.04320987654320988,10.370370370370372,0)" xlink:href="#G"/><use transform="matrix(0.04320987654320988,0,0,0.04320987654320988,15.512345679012347,0)" xlink:href="#G"/><use transform="matrix(0.04320987654320988,0,0,0.04320987654320988,20.654320987654323,0)" xlink:href="#F"/><use transform="matrix(0.04320987654320988,0,0,0.04320987654320988,29.296296296296298,0)" xlink:href="#G"/></g><path fill="#008a0e" d="M205 0l-28-72H64L36 0H1l101-248h38L239 0h-34zm-38-99l-47-123c-12 45-31 82-46 123h93" id="ao"/><path fill="#008a0e" d="M24 0v-261h32V0H24" id="ap"/><path fill="#008a0e" d="M59-47c-2 24 18 29 38 22v24C64 9 27 4 27-40v-127H5v-23h24l9-43h21v43h35v23H59v120" id="aq"/><g id="s"><use transform="matrix(0.04938271604938272,0,0,0.04938271604938272,0,0)" xlink:href="#ao"/><use transform="matrix(0.04938271604938272,0,0,0.04938271604938272,11.851851851851853,0)" xlink:href="#ap"/><use transform="matrix(0.04938271604938272,0,0,0.04938271604938272,15.753086419753087,0)" xlink:href="#aq"/></g><path d="M101-251c68 0 85 55 85 127S166 4 100 4C33 4 14-52 14-124c0-73 17-127 87-127zm-1 229c47 0 54-49 54-102s-4-102-53-102c-51 0-55 48-55 102 0 53 5 102 54 102" id="ar"/><g id="t"><use transform="matrix(0.05,0,0,0.05,0,0)" xlink:href="#ar"/><use transform="matrix(0.05,0,0,0.05,10,0)" xlink:href="#Q"/><use transform="matrix(0.05,0,0,0.05,15,0)" xlink:href="#P"/></g><g id="u"><use transform="matrix(0.05,0,0,0.05,0,0)" xlink:href="#R"/><use transform="matrix(0.05,0,0,0.05,5,0)" xlink:href="#S"/><use transform="matrix(0.05,0,0,0.05,15,0)" xlink:href="#M"/><use transform="matrix(0.05,0,0,0.05,18.95,0)" xlink:href="#E"/><use transform="matrix(0.05,0,0,0.05,23.95,0)" xlink:href="#M"/><use transform="matrix(0.05,0,0,0.05,27.899999999999995,0)" xlink:href="#J"/><use transform="matrix(0.05,0,0,0.05,37.9,0)" xlink:href="#E"/><use transform="matrix(0.05,0,0,0.05,42.9,0)" xlink:href="#H"/></g><g id="v"><use transform="matrix(0.05,0,0,0.05,0,0)" xlink:href="#al"/><use transform="matrix(0.05,0,0,0.05,10,0)" xlink:href="#F"/><use transform="matrix(0.05,0,0,0.05,20,0)" xlink:href="#am"/><use transform="matrix(0.05,0,0,0.05,30,0)" xlink:href="#M"/><use transform="matrix(0.05,0,0,0.05,33.95,0)" xlink:href="#S"/><use transform="matrix(0.05,0,0,0.05,43.95,0)" xlink:href="#X"/><use transform="matrix(0.05,0,0,0.05,49.900000000000006,0)" xlink:href="#ac"/></g><g id="w"><use transform="matrix(0.04320987654320988,0,0,0.04320987654320988,0,0)" xlink:href="#ar"/><use transform="matrix(0.04320987654320988,0,0,0.04320987654320988,8.641975308641976,0)" xlink:href="#Q"/><use transform="matrix(0.04320987654320988,0,0,0.04320987654320988,12.962962962962964,0)" xlink:href="#ad"/></g><path d="M233-177c-1 41-23 64-60 70L243 0h-38l-65-103H63V0H30v-248c88 3 205-21 203 71zM63-129c60-2 137 13 137-47 0-61-80-42-137-45v92" id="as"/><path d="M145-31C134-9 116 4 85 4 32 4 16-35 15-94c0-59 17-99 70-100 32-1 48 14 60 33 0-11-1-24 2-32h30l-1 268h-32zM93-21c41 0 51-33 51-76s-8-73-50-73c-40 0-46 35-46 75s5 74 45 74" id="at"/><g id="x"><use transform="matrix(0.04320987654320988,0,0,0.04320987654320988,0,0)" xlink:href="#as"/><use transform="matrix(0.04320987654320988,0,0,0.04320987654320988,11.19135802469136,0)" xlink:href="#H"/><use transform="matrix(0.04320987654320988,0,0,0.04320987654320988,19.833333333333336,0)" xlink:href="#at"/><use transform="matrix(0.04320987654320988,0,0,0.04320987654320988,28.47530864197531,0)" xlink:href="#U"/><use transform="matrix(0.04320987654320988,0,0,0.04320987654320988,37.117283950617285,0)" xlink:href="#H"/><use transform="matrix(0.04320987654320988,0,0,0.04320987654320988,45.75925925925927,0)" xlink:href="#K"/><use transform="matrix(0.04320987654320988,0,0,0.04320987654320988,53.537037037037045,0)" xlink:href="#E"/></g><path fill="#3a414a" d="M101-251c82-7 93 87 43 132L82-64C71-53 59-42 53-27h129V0H18c2-99 128-94 128-182 0-28-16-43-45-43s-46 15-49 41l-32-3c6-41 34-60 81-64" id="au"/><path fill="#3a414a" d="M33 0v-38h34V0H33" id="av"/><path fill="#3a414a" d="M27 0v-27h64v-190l-56 39v-29l58-41h29v221h61V0H27" id="aw"/><g id="y"><use transform="matrix(0.05,0,0,0.05,0,0)" xlink:href="#au"/><use transform="matrix(0.05,0,0,0.05,10,0)" xlink:href="#av"/><use transform="matrix(0.05,0,0,0.05,15,0)" xlink:href="#aw"/></g><path fill="#3a414a" d="M137 0h-34L2-248h35l83 218 83-218h36" id="ax"/><path fill="#3a414a" d="M141-36C126-15 110 5 73 4 37 3 15-17 15-53c-1-64 63-63 125-63 3-35-9-54-41-54-24 1-41 7-42 31l-33-3c5-37 33-52 76-52 45 0 72 20 72 64v82c-1 20 7 32 28 27v20c-31 9-61-2-59-35zM48-53c0 20 12 33 32 33 41-3 63-29 60-74-43 2-92-5-92 41" id="ay"/><path fill="#3a414a" d="M24 0v-261h32V0H24" id="az"/><path fill="#3a414a" d="M24-231v-30h32v30H24zM24 0v-190h32V0H24" id="aA"/><path fill="#3a414a" d="M85-194c31 0 48 13 60 33l-1-100h32l1 261h-30c-2-10 0-23-3-31C134-8 116 4 85 4 32 4 16-35 15-94c0-66 23-100 70-100zm9 24c-40 0-46 34-46 75 0 40 6 74 45 74 42 0 51-32 51-76 0-42-9-74-50-73" id="aB"/><path fill="#3a414a" d="M59-47c-2 24 18 29 38 22v24C64 9 27 4 27-40v-127H5v-23h24l9-43h21v43h35v23H59v120" id="aC"/><path fill="#3a414a" d="M100-194c63 0 86 42 84 106H49c0 40 14 67 53 68 26 1 43-12 49-29l28 8c-11 28-37 45-77 45C44 4 14-33 15-96c1-61 26-98 85-98zm52 81c6-60-76-77-97-28-3 7-6 17-6 28h103" id="aD"/><path fill="#3a414a" d="M87 75C49 33 22-17 22-94c0-76 28-126 65-167h31c-38 41-64 92-64 168S80 34 118 75H87" id="aE"/><path fill="#3a414a" d="M232-93c-1 65-40 97-104 97C67 4 28-28 28-90v-158h33c8 89-33 224 67 224 102 0 64-133 71-224h33v155" id="aF"/><path fill="#3a414a" d="M135-143c-3-34-86-38-87 0 15 53 115 12 119 90S17 21 10-45l28-5c4 36 97 45 98 0-10-56-113-15-118-90-4-57 82-63 122-42 12 7 21 19 24 35" id="aG"/><path fill="#3a414a" d="M114-163C36-179 61-72 57 0H25l-1-190h30c1 12-1 29 2 39 6-27 23-49 58-41v29" id="aH"/><g id="z"><use transform="matrix(0.05,0,0,0.05,0,0)" xlink:href="#ax"/><use transform="matrix(0.05,0,0,0.05,10.65,0)" xlink:href="#ay"/><use transform="matrix(0.05,0,0,0.05,20.65,0)" xlink:href="#az"/><use transform="matrix(0.05,0,0,0.05,24.599999999999998,0)" xlink:href="#aA"/><use transform="matrix(0.05,0,0,0.05,28.549999999999997,0)" xlink:href="#aB"/><use transform="matrix(0.05,0,0,0.05,38.55,0)" xlink:href="#aA"/><use transform="matrix(0.05,0,0,0.05,42.5,0)" xlink:href="#ay"/><use transform="matrix(0.05,0,0,0.05,52.5,0)" xlink:href="#aC"/><use transform="matrix(0.05,0,0,0.05,57.5,0)" xlink:href="#aD"/><use transform="matrix(0.05,0,0,0.05,67.5,0)" xlink:href="#aE"/><use transform="matrix(0.05,0,0,0.05,73.45,0)" xlink:href="#aF"/><use transform="matrix(0.05,0,0,0.05,86.4,0)" xlink:href="#aG"/><use transform="matrix(0.05,0,0,0.05,95.4,0)" xlink:href="#aD"/><use transform="matrix(0.05,0,0,0.05,105.4,0)" xlink:href="#aH"/></g><path fill="#3a414a" d="M33 0v-248h34V0H33" id="aI"/><path fill="#3a414a" d="M30-248c118-7 216 8 213 122C240-48 200 0 122 0H30v-248zM63-27c89 8 146-16 146-99s-60-101-146-95v194" id="aJ"/><g id="A"><use transform="matrix(0.05,0,0,0.05,0,0)" xlink:href="#aI"/><use transform="matrix(0.05,0,0,0.05,5,0)" xlink:href="#aJ"/></g><path fill="#3a414a" d="M117-194c89-4 53 116 60 194h-32v-121c0-31-8-49-39-48C34-167 62-67 57 0H25l-1-190h30c1 10-1 24 2 32 11-22 29-35 61-36" id="aK"/><g id="B"><use transform="matrix(0.05,0,0,0.05,0,0)" xlink:href="#ay"/><use transform="matrix(0.05,0,0,0.05,10,0)" xlink:href="#aK"/><use transform="matrix(0.05,0,0,0.05,20,0)" xlink:href="#aB"/></g><path fill="#3a414a" d="M30-248c87 1 191-15 191 75 0 78-77 80-158 76V0H30v-248zm33 125c57 0 124 11 124-50 0-59-68-47-124-48v98" id="aL"/><path fill="#3a414a" d="M206 0h-36l-40-164L89 0H53L-1-190h32L70-26l43-164h34l41 164 42-164h31" id="aM"/><path fill="#3a414a" d="M100-194c62-1 85 37 85 99 1 63-27 99-86 99S16-35 15-95c0-66 28-99 85-99zM99-20c44 1 53-31 53-75 0-43-8-75-51-75s-53 32-53 75 10 74 51 75" id="aN"/><path fill="#3a414a" d="M33-261c38 41 65 92 65 168S71 34 33 75H2C39 34 66-17 66-93S39-220 2-261h31" id="aO"/><g id="C"><use transform="matrix(0.05,0,0,0.05,0,0)" xlink:href="#aL"/><use transform="matrix(0.05,0,0,0.05,12,0)" xlink:href="#ay"/><use transform="matrix(0.05,0,0,0.05,22,0)" xlink:href="#aG"/><use transform="matrix(0.05,0,0,0.05,31,0)" xlink:href="#aG"/><use transform="matrix(0.05,0,0,0.05,40,0)" xlink:href="#aM"/><use transform="matrix(0.05,0,0,0.05,52.95,0)" xlink:href="#aN"/><use transform="matrix(0.05,0,0,0.05,62.95,0)" xlink:href="#aH"/><use transform="matrix(0.05,0,0,0.05,68.9,0)" xlink:href="#aB"/><use transform="matrix(0.05,0,0,0.05,78.9,0)" xlink:href="#aO"/></g></defs></g></svg>