<svg xmlns="http://www.w3.org/2000/svg" xmlns:xlink="http://www.w3.org/1999/xlink" xmlns:lucid="lucid" width="1803.5" height="1521"><g transform="translate(1061.5 480.5)" lucid:page-tab-id="gjTxyyeFoC3Q"><path d="M-1500-500h2500v2000h-2500z" fill="#fff"/><path d="M-660-53.22a8 8 0 0 1 8-8h24a8 8 0 0 1 8 8V-28a8 8 0 0 1-8 8h-24a8 8 0 0 1-8-8zM-960-224.3a8 8 0 0 1 8-8h24a8 8 0 0 1 8 8V792a8 8 0 0 1-8 8h-24a8 8 0 0 1-8-8z" stroke="#f2f2f2" fill="#ced4db"/><path d="M-941.13-316.58l.17.02.18.04.16.07.15.1.14.1.1.14.1.14.07.17.05.18v10.28m0 10.12V-275m0 10.13v20.22m0 10.12v20.22m0 10.1v20.23m0 10.12v20.22m0 10.12v20.22m0 10.1v20.24m0 10.1v20.24m0 10.1v20.24m0 10.1V-1.9m0 10.1v20.24m0 10.1v20.24m0 10.12V89.1m0 10.12v20.22m0 10.12v20.23m0 10.1v20.23m0 10.1v20.24m0 10.1v20.24m0 10.12v20.23m0 10.1v20.24m0 10.1v20.23m0 10.12v20.22m0 10.12v20.2m0 10.13v20.23m0 10.1v20.24m0 10.1v20.24m0 10.1v20.24m0 10.1v20.24m0 10.1v20.24m0 10.1v20.24m0 10.12v20.22m0 10.12v20.22m0 10.12v20.22m0 10.12v20.23m0 10.1v20.24m0 10.12v10.1M-941.12-316.58h-3.5M-940 776.82v.5" stroke="#333" fill="none"/><path d="M-921.88-392.56c0 10.9-8.85 19.75-19.75 19.75s-19.75-8.85-19.75-19.76c0-10.9 8.84-19.75 19.75-19.75 10.9 0 19.75 8.83 19.75 19.74z" stroke="#333" fill="#fff"/><path d="M-941.63-372.8v47.3a27.6 27.6 0 0 0 4.27 14.75l35.73 56.44m-40-63.2l-40 63.2m0-98.76h80" stroke="#333" fill="none"/><path d="M-981.63-404.3a8 8 0 0 1 8-8h64a8 8 0 0 1 8 8v164a8 8 0 0 1-8 8h-64a8 8 0 0 1-8-8z" fill="none"/><use xlink:href="#a" transform="matrix(1,0,0,1,-1061.6340139175652,-254.3122051583208) translate(35.18518518518516 14.555555555555555)"/><use xlink:href="#b" transform="matrix(1,0,0,1,-1061.6340139175652,-254.3122051583208) translate(91.38271604938271 14.555555555555555)"/><use xlink:href="#c" transform="matrix(1,0,0,1,-1061.6340139175652,-254.3122051583208) translate(127.92592592592592 14.555555555555555)"/><path d="M-641.45-181.52v10m0 10.02v20.02m0 10v20.02m0 10v20.03m0 10v20.03m0 10v20.03m0 10V8.67m0 10V38.7m0 10v20m0 10.02v20.02m0 10v20.03m0 10v20.03m0 10v20.03m0 10v20.03m0 10v20.02m0 10v20.03m0 10.02v20.02m0 10v20.03m0 10V369m0 10v20.03m0 10v20.03m0 10v20.02m0 10v20.03m0 10.02v20.02m0 10v20.03m0 10v20.03m0 10v20.03m0 10v20.02m0 10v20.03m0 10v20.03m0 10.02v20.02m0 10v20.03m0 10v20.03m0 10v20.02m0 10v20.03m0 10v20.03m0 10v10.02M-641.45-181.5v-.52M-641.45 899.5v.5" stroke="#333" fill="none"/><path d="M-720-272a8 8 0 0 1 8-8h174.08a8 8 0 0 1 8 8v106a8 8 0 0 1-8 8H-712a8 8 0 0 1-8-8z" stroke="#000" stroke-opacity="0" fill="#6db1ff"/><use xlink:href="#d" transform="matrix(1,0,0,1,-712,-272) translate(62.364197530864196 56.55555555555555)"/><path d="M-939.5-219h203.12M-939.5-219h-.5" stroke="#333" fill="none"/><path d="M-721.62-219l-14.26 4.63v-9.26z" stroke="#333" fill="#333"/><use xlink:href="#e" transform="matrix(1,0,0,1,-899.9752836419752,-214.99999999999997) translate(0.0049999999999954525 14.222222222222223)"/><use xlink:href="#f" transform="matrix(1,0,0,1,-899.9752836419752,-214.99999999999997) translate(128.20253086419754 14.222222222222223)"/><path d="M-641.95-120h-9.92m-9.9 0h-19.85m-9.92 0h-19.84m-9.92 0h-19.83m-9.92 0h-19.84m-9.9 0h-21m-11.07 0h-22.15m-11.08 0h-22.14m-11.08 0h-22.15m-11.07 0h-11.08M-641.96-120h.5" stroke="#333" fill="none"/><path d="M-938.38-120l14.26-4.64v9.28z" stroke="#333" fill="#333"/><path d="M-939.5-60h281.67M-939.5-60h-.5" stroke="#333" fill="none"/><path d="M-643.07-60l-14.26 4.63v-9.27z" stroke="#333" fill="#333"/><use xlink:href="#g" transform="matrix(1,0,0,1,-915.0205178960853,-55.99999999999868) translate(0.0049999999999954525 14.222222222222223)"/><use xlink:href="#h" transform="matrix(1,0,0,1,-915.0205178960853,-55.99999999999868) translate(34.5729012345679 14.222222222222223)"/><use xlink:href="#i" transform="matrix(1,0,0,1,-915.0205178960853,-55.99999999999868) translate(69.1408024691358 14.222222222222223)"/><use xlink:href="#j" transform="matrix(1,0,0,1,-915.0205178960853,-55.99999999999868) translate(108.5975925925926 14.222222222222223)"/><use xlink:href="#k" transform="matrix(1,0,0,1,-915.0205178960853,-55.99999999999868) translate(176.5975925925926 14.222222222222223)"/><path d="M-660-150a8 8 0 0 1 8-8h24a8 8 0 0 1 8 8v22a8 8 0 0 1-8 8h-24a8 8 0 0 1-8-8z" stroke="#f2f2f2" fill="#ced4db"/><path d="M-301.45 18.48l.02 9.86m.02 9.86l.03 19.72m.02 9.86l.04 19.7m0 9.87l.06 19.72m0 9.86l.06 19.72m0 9.86l.06 19.73m.02 9.86l.04 19.7m.02 9.87l.04 19.72m.02 9.85l.04 19.7m.02 9.88l.04 19.7m.02 9.87l.04 19.72m.02 9.86l.04 19.72m.02 9.86l.04 19.72m.02 9.86l.04 19.72m.02 9.86l.04 19.72m.02 9.86l.04 19.7m.02 9.88l.04 19.7m.02 9.87l.04 19.72m.02 9.86l.04 19.72m.02 9.86l.04 19.73m.02 9.86l.04 19.7m.03 9.87l.05 19.72m0 9.85l.05 19.72m.03 9.85l.04 19.72m.02 9.86l.03 19.72m.02 9.86l.04 19.72m0 9.86l.05 19.72m.02 9.86l.04 19.72m.03 9.86l.04 19.72m.02 9.86l.03 19.7m.02 9.87l.02 9.86M-301.45 18.5v-.52M-299.63 905.82v.5" stroke="#333" fill="none"/><path d="M-380-72a8 8 0 0 1 8-8h174.07a8 8 0 0 1 8 8V34a8 8 0 0 1-8 8H-372a8 8 0 0 1-8-8z" stroke="#000" stroke-opacity="0" fill="#6db1ff"/><use xlink:href="#l" transform="matrix(1,0,0,1,-372,-72) translate(45.59876543209876 56.55555555555555)"/><path d="M-320 68a8 8 0 0 1 8-8h24a8 8 0 0 1 8 8v4.78a8 8 0 0 1-8 8h-24a8 8 0 0 1-8-8z" stroke="#f2f2f2" fill="#ced4db"/><path d="M-638.67-19h242.3" stroke="#333" fill="none"/><path d="M-638.2-19h-.94v-.5h.95z" stroke="#333" stroke-width=".05" fill="#333"/><path d="M-381.62-19l-14.26 4.63v-9.27z" stroke="#333" fill="#333"/><use xlink:href="#m" transform="matrix(1,0,0,1,-696.8625063731369,-10.364745084375787) translate(0.0049999999999954525 14.222222222222223)"/><use xlink:href="#h" transform="matrix(1,0,0,1,-696.8625063731369,-10.364745084375787) translate(29.63462962962963 14.222222222222223)"/><use xlink:href="#n" transform="matrix(1,0,0,1,-696.8625063731369,-10.364745084375787) translate(64.20253086419754 14.222222222222223)"/><use xlink:href="#j" transform="matrix(1,0,0,1,-696.8625063731369,-10.364745084375787) translate(102.67166666666668 14.222222222222223)"/><use xlink:href="#k" transform="matrix(1,0,0,1,-696.8625063731369,-10.364745084375787) translate(170.67166666666668 14.222222222222223)"/><path d="M-120-472a8 8 0 0 1 8-8H62.07a8 8 0 0 1 8 8v106a8 8 0 0 1-8 8H-112a8 8 0 0 1-8-8z" stroke="#000" stroke-opacity="0" fill="#6db1ff"/><use xlink:href="#o" transform="matrix(1,0,0,1,-112,-472) translate(53.969135802469125 56.55555555555555)"/><path d="M-24.05-357.5l.03 9.98m.03 9.97l.08 19.95m.03 9.98l.07 19.95m.04 9.98l.07 19.96m.03 9.98l.07 19.95m.03 9.97l.06 19.95m.04 9.97l.06 19.95m.03 9.97l.06 19.96m.03 9.97l.05 19.96m.04 9.98l.05 19.95m.03 9.98l.07 19.96m.03 9.98l.06 19.95m.03 9.97l.07 19.95m.03 9.97l.06 19.95m.04 9.97l.06 19.96m.03 9.97l.07 19.95m.03 9.98l.06 19.95m.04 9.98l.06 19.96m.03 9.98l.07 19.95m.03 9.97l.06 19.95m.04 9.97l.07 19.95m.04 9.97l.07 19.96m.04 9.97l.06 19.95m.03 9.98l.07 19.95m.03 9.98l.07 19.96m.03 9.98l.06 19.95m.02 9.97l.07 19.95m.02 9.98l.06 19.95m.04 9.97l.06 19.96m.03 9.97l.08 19.95m.03 9.98l.07 19.95m.04 9.98l.07 19.96m.03 9.98l.07 19.95m.03 9.97l.06 19.95m.04 9.98l.06 19.95m.03 9.97l.06 19.96m.03 9.97l.05 19.95m.03 9.98l.07 19.95m.03 9.98l.07 19.96m.03 9.98l.06 19.95m.03 9.97l.07 19.95m.03 9.98l.06 19.95m.04 9.97l.03 9.98" stroke="#333" fill="none"/><path d="M-23.58-357.5h-.95v-.5h.95z" stroke="#333" stroke-width=".05" fill="#333"/><path d="M-20 899.5v.5" stroke="#333" fill="none"/><path d="M-40 88.78a8 8 0 0 1 8-8h24a8 8 0 0 1 8 8V114a8 8 0 0 1-8 8h-24a8 8 0 0 1-8-8z" stroke="#f2f2f2" fill="#ced4db"/><path d="M-300.82 80.78h249.6M-300.8 80.78h-.52" stroke="#333" fill="none"/><path d="M-36.45 80.78l-14.27 4.63v-9.26z" stroke="#333" fill="#333"/><use xlink:href="#p" transform="matrix(1,0,0,1,-254.32221163456973,84.77709916938454) translate(0.0049999999999954525 14.222222222222223)"/><use xlink:href="#q" transform="matrix(1,0,0,1,-254.32221163456973,84.77709916938454) translate(29.63462962962963 14.222222222222223)"/><use xlink:href="#i" transform="matrix(1,0,0,1,-254.32221163456973,84.77709916938454) translate(63.165493827160496 14.222222222222223)"/><use xlink:href="#r" transform="matrix(1,0,0,1,-254.32221163456973,84.77709916938454) translate(102.62228395061729 14.222222222222223)"/><path d="M-320 130a8 8 0 0 1 8-8h24a8 8 0 0 1 8 8v25.22a8 8 0 0 1-8 8h-24a8 8 0 0 1-8-8zM-660 168a8 8 0 0 1 8-8h24a8 8 0 0 1 8 8v25.22a8 8 0 0 1-8 8h-24a8 8 0 0 1-8-8z" stroke="#f2f2f2" fill="#ced4db"/><path d="M-40.5 122.5h-9.46m-9.47 0h-18.93m-9.46 0h-18.93m-9.46 0h-18.94m-9.46 0h-18.93m-9.47 0h-18.92m-9.47 0h-18.9m-9.48 0h-18.93m-9.47 0h-9.46M-40.5 122.5h.5" stroke="#333" fill="none"/><path d="M-282.4 122.5l14.27-4.64v9.28z" stroke="#333" fill="#333"/><path d="M-315.33 163.22h-9.65m-9.64 0h-19.28m-9.64 0h-19.3m-9.63 0h-19.3m-9.63 0h-19.28m-9.64 0h-19.3m-9.63 0h-19.3m-9.63 0h-19.28m-9.65 0h-19.3m-9.63 0h-19.3m-9.63 0h-9.64" stroke="#333" fill="none"/><path stroke="#333" stroke-width=".05" fill="#333"/><path d="M-619.37 163.22l14.27-4.63v9.26z" stroke="#333" fill="#333"/><path d="M-657.6 200h-9.87m-9.85 0h-19.7m-9.85 0h-19.7m-9.86 0h-19.7m-9.86 0h-19.7m-9.84 0h-19.7m-9.86 0h-19.7m-9.85 0h-19.7m-9.86 0h-19.7m-9.86 0h-9.86" stroke="#333" fill="none"/><path stroke="#333" stroke-width=".05" fill="#333"/><path d="M-938.38 200l14.26-4.63v9.26z" stroke="#333" fill="#333"/><path d="M-600 206.78a6 6 0 0 1 6-6h228a6 6 0 0 1 6 6v27.6a6 6 0 0 1-6 6h-228a6 6 0 0 1-6-6z" fill="none"/><use xlink:href="#s" transform="matrix(1,0,0,1,-600,200.7770991693718) translate(27.724999999999994 23.6)"/><use xlink:href="#t" transform="matrix(1,0,0,1,-600,200.7770991693718) translate(83.525 23.6)"/><use xlink:href="#u" transform="matrix(1,0,0,1,-600,200.7770991693718) translate(110.425 23.6)"/><use xlink:href="#v" transform="matrix(1,0,0,1,-600,200.7770991693718) translate(159.375 23.6)"/><path d="M-623.07 320h746.7" stroke="#333" fill="none"/><path stroke="#333" stroke-width=".05" fill="#333"/><path d="M138.38 320l-14.27 4.63.02-9.26z" stroke="#333" fill="#333"/><use xlink:href="#w" transform="matrix(1,0,0,1,-486.25060464933335,324.0000000000052) translate(0.0049999999999954525 12.444444444444446)"/><use xlink:href="#x" transform="matrix(1,0,0,1,-486.25060464933335,324.0000000000052) translate(25.930925925925926 12.444444444444446)"/><use xlink:href="#y" transform="matrix(1,0,0,1,-486.25060464933335,324.0000000000052) translate(73.41858024691358 12.444444444444446)"/><use xlink:href="#z" transform="matrix(1,0,0,1,-486.25060464933335,324.0000000000052) translate(139.0543827160494 12.444444444444446)"/><use xlink:href="#A" transform="matrix(1,0,0,1,-486.25060464933335,324.0000000000052) translate(206.37537037037038 12.444444444444446)"/><use xlink:href="#B" transform="matrix(1,0,0,1,-486.25060464933335,324.0000000000052) translate(248.67783950617286 12.444444444444446)"/><use xlink:href="#C" transform="matrix(1,0,0,1,-486.25060464933335,324.0000000000052) translate(288.34450617283954 12.444444444444446)"/><path d="M-660 308a8 8 0 0 1 8-8h24a8 8 0 0 1 8 8v4.78a8 8 0 0 1-8 8h-24a8 8 0 0 1-8-8z" stroke="#f2f2f2" fill="#ced4db"/><path d="M-919 292h261.17" stroke="#333" fill="none"/><path d="M-919 292.48h-.5v-.96h.5z" stroke="#333" stroke-width=".05" fill="#333"/><path d="M-643.07 292l-14.26 4.63v-9.26z" stroke="#333" fill="#333"/><use xlink:href="#D" transform="matrix(1,0,0,1,-919.9341227417397,300.63524758227925) translate(0.0049999999999954525 12.444444444444446)"/><use xlink:href="#E" transform="matrix(1,0,0,1,-919.9341227417397,300.63524758227925) translate(25.930925925925926 12.444444444444446)"/><use xlink:href="#y" transform="matrix(1,0,0,1,-919.9341227417397,300.63524758227925) translate(88.06672839506174 12.444444444444446)"/><use xlink:href="#z" transform="matrix(1,0,0,1,-919.9341227417397,300.63524758227925) translate(153.70253086419757 12.444444444444446)"/><use xlink:href="#A" transform="matrix(1,0,0,1,-919.9341227417397,300.63524758227925) translate(221.02351851851856 12.444444444444446)"/><use xlink:href="#B" transform="matrix(1,0,0,1,-919.9341227417397,300.63524758227925) translate(263.325987654321 12.444444444444446)"/><use xlink:href="#C" transform="matrix(1,0,0,1,-919.9341227417397,300.63524758227925) translate(302.9926543209877 12.444444444444446)"/><path d="M140 268a8 8 0 0 1 8-8h174.07a8 8 0 0 1 8 8v106a8 8 0 0 1-8 8H148a8 8 0 0 1-8-8z" stroke="#000" stroke-opacity="0" fill="#6db1ff"/><use xlink:href="#F" transform="matrix(1,0,0,1,148,268) translate(49.99382716049382 56.55555555555555)"/><path d="M235.04 382.5v9.95m0 9.96v19.92m0 9.95v19.9m0 9.97v19.9m0 9.96v19.9m0 9.96v19.9m0 9.97v19.9m0 9.96v19.9m0 9.96v19.9m0 9.96v19.9m0 9.96v19.9m0 9.96v19.92m0 9.95v19.92m0 9.95v19.9m0 9.97v19.9m0 9.96v19.9m0 9.96v19.9m0 9.97v19.9m0 9.96V930m0 9.96v19.9m0 9.96v19.9m0 9.96v19.9m0 9.97v9.95" stroke="#333" fill="none"/><path d="M235.5 382.5h-.94v-.5h.95z" stroke="#333" stroke-width=".05" fill="#333"/><path d="M235.04 1039.5v.5" stroke="#333" fill="none"/><path d="M220 408a8 8 0 0 1 8-8h24a8 8 0 0 1 8 8v25.22a8 8 0 0 1-8 8h-24a8 8 0 0 1-8-8z" stroke="#f2f2f2" fill="#ced4db"/><path d="M261 421h14.5a5 5 0 0 1 5 5v42.83a3.63 3.63 0 0 1-3.62 3.63" stroke="#333" fill="none"/><path d="M261 421.48h-.5v-.96h.5z" stroke="#333" stroke-width=".05" fill="#333"/><path d="M262.12 472.46l14.26-4.63v9.27z" stroke="#333" fill="#333"/><use xlink:href="#G" transform="matrix(1,0,0,1,288.51256630053433,437.39773362343993) translate(0.005000000000002558 12.444444444444446)"/><path d="M234.54 573.78h-9.76m-9.76 0H195.5m-9.76 0h-19.52m-9.76 0h-19.52m-9.76 0h-19.52m-9.76 0H78.38m-9.76 0H49.1m-9.76 0H19.82m-9.76 0H-9.46m-9.76 0h-19.52m-9.76 0h-19.52m-9.76 0H-97.3m-9.76 0h-19.52m-9.76 0h-19.52m-9.76 0h-19.52m-9.76 0h-19.52m-9.76 0h-19.52m-9.76 0h-9.76M234.53 573.78h.5" stroke="#333" fill="none"/><path d="M-278 573.78l14.28-4.64v9.27z" stroke="#333" fill="#333"/><path d="M-321 575.55h-10.04m-10.05 0h-20.07m-10.05 0h-20.08m-10.05 0h-20.1m-10.03 0h-20.1m-10.03 0h-20.1m-10.04 0h-20.1m-10.03 0h-20.1m-10.03 0h-20.1m-10.03 0h-20.1m-10.03 0h-20.1m-10.03 0h-20.08m-10.05 0h-20.08m-10.06 0h-20.08m-10.05 0h-20.08m-10.04 0h-20.1m-10.03 0h-20.1m-10.03 0h-20.1m-10.03 0h-20.1m-10.04 0h-20.1m-10.03 0h-10.05" stroke="#333" fill="none"/><path d="M-320.5 575.1v.93h-.5v-.95h.5z" stroke="#333" stroke-width=".05" fill="#333"/><path d="M-938.38 575.55l14.26-4.63v9.27z" stroke="#333" fill="#333"/><path d="M-603.14 469.68h822.16" stroke="#333" fill="none"/><path d="M-617.9 469.68l14.26-4.64v9.27z" stroke="#333" fill="#333"/><path d="M219.5 469.98v.17h-.5v-.95h.56z" stroke="#333" stroke-width=".05" fill="#333"/><use xlink:href="#H" transform="matrix(1,0,0,1,-414.1149059824529,473.678396717984) translate(0.0049999999999954525 12.444444444444446)"/><use xlink:href="#I" transform="matrix(1,0,0,1,-414.1149059824529,473.678396717984) translate(25.930925925925926 12.444444444444446)"/><use xlink:href="#y" transform="matrix(1,0,0,1,-414.1149059824529,473.678396717984) translate(56.177839506172845 12.444444444444446)"/><use xlink:href="#z" transform="matrix(1,0,0,1,-414.1149059824529,473.678396717984) translate(121.81364197530866 12.444444444444446)"/><use xlink:href="#A" transform="matrix(1,0,0,1,-414.1149059824529,473.678396717984) translate(189.13462962962964 12.444444444444446)"/><use xlink:href="#B" transform="matrix(1,0,0,1,-414.1149059824529,473.678396717984) translate(231.4370987654321 12.444444444444446)"/><use xlink:href="#C" transform="matrix(1,0,0,1,-414.1149059824529,473.678396717984) translate(271.1037654320988 12.444444444444446)"/><path d="M-280 503.22a6 6 0 0 1 6-6h228a6 6 0 0 1 6 6v48a6 6 0 0 1-6 6h-228a6 6 0 0 1-6-6z" fill="none"/><use xlink:href="#s" transform="matrix(1,0,0,1,-280,497.2229008306282) translate(0.2749999999999915 33.6)"/><use xlink:href="#J" transform="matrix(1,0,0,1,-280,497.2229008306282) translate(56.074999999999996 33.6)"/><use xlink:href="#K" transform="matrix(1,0,0,1,-280,497.2229008306282) translate(134.925 33.6)"/><use xlink:href="#L" transform="matrix(1,0,0,1,-280,497.2229008306282) translate(154.925 33.6)"/><path d="M-1040 264.55a8 8 0 0 1 8-8h84a8 8 0 0 1 8 8v4.93a17.07 17.07 0 0 1-5 12.07 17.07 17.07 0 0 1-12.07 5H-1032a8 8 0 0 1-8-8z" fill="#fff"/><path d="M-940 256.55v20l-10 10h-90" stroke="#008a0e" stroke-width="4" fill="none"/><path d="M-1040 264.55a8 8 0 0 1 8-8H732a8 8 0 0 1 8 8V532a8 8 0 0 1-8 8h-1764a8 8 0 0 1-8-8z" stroke="#008a0e" stroke-width="4" fill="none"/><path d="M-40 562.16a6 6 0 0 1 6-6h228a6 6 0 0 1 6 6v48a6 6 0 0 1-6 6H-34a6 6 0 0 1-6-6z" fill="none"/><use xlink:href="#M" transform="matrix(1,0,0,1,-40,556.1595412784045) translate(53.57499999999999 33.6)"/><use xlink:href="#N" transform="matrix(1,0,0,1,-40,556.1595412784045) translate(83.57499999999999 33.6)"/><path d="M-640 566a6 6 0 0 1 6-6h228a6 6 0 0 1 6 6v48a6 6 0 0 1-6 6h-228a6 6 0 0 1-6-6z" fill="none"/><use xlink:href="#O" transform="matrix(1,0,0,1,-640,560) translate(58.05 33.6)"/><use xlink:href="#P" transform="matrix(1,0,0,1,-640,560) translate(88.05 33.6)"/><use xlink:href="#Q" transform="matrix(1,0,0,1,-640,560) translate(127 33.6)"/><path d="M214.04 631.2h-9.92m-9.92 0h-19.83m-9.92 0h-19.83m-9.92 0h-19.83m-9.92 0H85.1m-9.9 0H55.36m-9.9 0H25.6m-9.9 0H-4.14m-9.92 0H-33.9m-9.9 0h-19.84m-9.92 0H-93.4m-9.9 0h-19.84m-9.92 0h-19.84m-9.9 0h-19.85m-9.9 0h-20.2m-10.28 0h-20.54m-10.28 0h-20.54m-10.26 0h-20.55m-10.28 0h-20.55m-10.27 0h-20.54m-10.28 0h-20.54m-10.27 0h-20.55m-10.27 0h-20.55m-10.27 0h-20.55m-10.27 0h-20.53m-10.28 0h-20.55m-10.27 0h-20.55m-10.27 0h-10.27" stroke="#333" fill="none"/><path d="M214.54 631.67h-.5v-.94h.5z" stroke="#333" stroke-width=".05" fill="#333"/><path d="M-617.88 631.2l14.26-4.63v9.26z" stroke="#333" fill="#333"/><path d="M215.04 628a8 8 0 0 1 8-8h24a8 8 0 0 1 8 8v4.78a8 8 0 0 1-8 8h-24a8 8 0 0 1-8-8zM-660 628a8 8 0 0 1 8-8h24a8 8 0 0 1 8 8v4.78a8 8 0 0 1-8 8h-24a8 8 0 0 1-8-8z" stroke="#f2f2f2" fill="#ced4db"/><path d="M-661 632h-9.73m-9.72 0h-19.46m-9.73 0h-19.46m-9.7 0h-19.47m-9.72 0h-19.45m-9.72 0h-19.45m-9.73 0h-19.45m-9.73 0h-19.45m-9.73 0h-19.46m-9.73 0h-9.72" stroke="#333" fill="none"/><path d="M-660.5 632.48h-.5v-.96h.5z" stroke="#333" stroke-width=".05" fill="#333"/><path d="M-938.38 632l14.26-4.63v9.26z" stroke="#333" fill="#333"/><path d="M-280 626a6 6 0 0 1 6-6h228a6 6 0 0 1 6 6v48a6 6 0 0 1-6 6h-228a6 6 0 0 1-6-6z" fill="none"/><g><use xlink:href="#R" transform="matrix(1,0,0,1,-280,620) translate(78.05 33.6)"/><use xlink:href="#S" transform="matrix(1,0,0,1,-280,620) translate(108.05 33.6)"/></g><path d="M-920 626a6 6 0 0 1 6-6h228a6 6 0 0 1 6 6v48a6 6 0 0 1-6 6h-228a6 6 0 0 1-6-6z" fill="none"/><g><use xlink:href="#T" transform="matrix(1,0,0,1,-920,620) translate(75.55 33.6)"/><use xlink:href="#S" transform="matrix(1,0,0,1,-920,620) translate(110.55 33.6)"/></g><path d="M-660 687.22a8 8 0 0 1 8-8h24a8 8 0 0 1 8 8V692a8 8 0 0 1-8 8h-24a8 8 0 0 1-8-8z" stroke="#f2f2f2" fill="#ced4db"/><path d="M-914.74 689H-661" stroke="#333" fill="none"/><path d="M-929.5 689l14.26-4.62v9.27z" stroke="#333" fill="#333"/><path d="M-660.5 689.5h-.5v-.96h.5z" stroke="#333" stroke-width=".05" fill="#333"/><g><use xlink:href="#U" transform="matrix(1,0,0,1,-901.1153519224981,693.0107621467845) translate(0.0049999999999954525 12.444444444444446)"/><use xlink:href="#V" transform="matrix(1,0,0,1,-901.1153519224981,693.0107621467845) translate(25.930925925925926 12.444444444444446)"/><use xlink:href="#W" transform="matrix(1,0,0,1,-901.1153519224981,693.0107621467845) translate(77.78277777777778 12.444444444444446)"/><use xlink:href="#X" transform="matrix(1,0,0,1,-901.1153519224981,693.0107621467845) translate(147.73956790123458 12.444444444444446)"/><use xlink:href="#Y" transform="matrix(1,0,0,1,-901.1153519224981,693.0107621467845) translate(200.325987654321 12.444444444444446)"/></g><path d="M-660 725.67a8 8 0 0 1 8-8h24a8 8 0 0 1 8 8v4.78a8 8 0 0 1-8 8h-24a8 8 0 0 1-8-8z" stroke="#f2f2f2" fill="#ced4db"/><path d="M-619 729.73H443.12" stroke="#333" fill="none"/><path d="M-619 730.2h-.5v-.95h.5z" stroke="#333" stroke-width=".05" fill="#333"/><path d="M457.88 729.73l-14.26 4.63v-9.27z" stroke="#333" fill="#333"/><g><use xlink:href="#Z" transform="matrix(1,0,0,1,-281.4919221253657,733.7283753069513) translate(0.0049999999999954525 12.444444444444446)"/><use xlink:href="#V" transform="matrix(1,0,0,1,-281.4919221253657,733.7283753069513) translate(25.930925925925926 12.444444444444446)"/><use xlink:href="#aa" transform="matrix(1,0,0,1,-281.4919221253657,733.7283753069513) translate(77.78277777777778 12.444444444444446)"/><use xlink:href="#ab" transform="matrix(1,0,0,1,-281.4919221253657,733.7283753069513) translate(146.01117283950617 12.444444444444446)"/><use xlink:href="#ac" transform="matrix(1,0,0,1,-281.4919221253657,733.7283753069513) translate(239.21487654320987 12.444444444444446)"/></g><path d="M380 565.22a8 8 0 0 1 8-8h174.08a8 8 0 0 1 8 8v106a8 8 0 0 1-8 8H388a8 8 0 0 1-8-8z" stroke="#000" stroke-opacity="0" fill="#6db1ff"/><g><use xlink:href="#ad" transform="matrix(1,0,0,1,388,565.2229008306282) translate(48.51234567901235 56.55555555555555)"/></g><path d="M475.04 679.72v9.62m0 9.63v19.24m0 9.63v19.24m0 9.62v19.24m0 9.62v19.24m0 9.62v19.25m0 9.62v19.23m0 9.62v19.24m0 9.6v19.26m0 9.62v9.62" stroke="#333" fill="none"/><path d="M475.5 679.74h-.94v-.52h.95z" stroke="#333" stroke-width=".05" fill="#333"/><path d="M475.04 939.5v.5" stroke="#333" fill="none"/><path d="M460 725.67a8 8 0 0 1 8-8h24a8 8 0 0 1 8 8v4.78a8 8 0 0 1-8 8h-24a8 8 0 0 1-8-8zM-660 768a8 8 0 0 1 8-8h24a8 8 0 0 1 8 8v4.78a8 8 0 0 1-8 8h-24a8 8 0 0 1-8-8z" stroke="#f2f2f2" fill="#ced4db"/><path d="M-919.1 771.33H-661" stroke="#333" fill="none"/><path d="M-933.86 771.33l14.26-4.64v9.26z" stroke="#333" fill="#333"/><path d="M-660.5 771.8h-.5v-.95h.5z" stroke="#333" stroke-width=".05" fill="#333"/><g><use xlink:href="#ae" transform="matrix(1,0,0,1,-901.9527215655457,775.3283896045965) translate(0.0049999999999954525 12.444444444444446)"/><use xlink:href="#I" transform="matrix(1,0,0,1,-901.9527215655457,775.3283896045965) translate(25.930925925925926 12.444444444444446)"/><use xlink:href="#af" transform="matrix(1,0,0,1,-901.9527215655457,775.3283896045965) translate(56.177839506172845 12.444444444444446)"/><use xlink:href="#ag" transform="matrix(1,0,0,1,-901.9527215655457,775.3283896045965) translate(121.72722222222224 12.444444444444446)"/></g><path d="M215.04 571.55a8 8 0 0 1 8-8h24a8 8 0 0 1 8 8v4.78a8 8 0 0 1-8 8h-24a8 8 0 0 1-8-8zM-320 575.1a8 8 0 0 1 8-8h24a8 8 0 0 1 8 8v4.78a8 8 0 0 1-8 8h-24a8 8 0 0 1-8-8zM-660 470a8 8 0 0 1 8-8h24a8 8 0 0 1 8 8v4.78a8 8 0 0 1-8 8h-24a8 8 0 0 1-8-8z" stroke="#f2f2f2" fill="#ced4db"/><path d="M-1060-91.6a8 8 0 0 1 8-8h84a8 8 0 0 1 8 8v4.92a17.07 17.07 0 0 1-5 12.07 17.07 17.07 0 0 1-12.07 5H-1052a8 8 0 0 1-8-8z" fill="#fff"/><path d="M-960-99.6v20l-10 10h-90" stroke="#008a0e" stroke-width="3" fill="none"/><path d="M-1060-91.6a8 8 0 0 1 8-8H52a8 8 0 0 1 8 8v324a8 8 0 0 1-8 8h-1104a8 8 0 0 1-8-8z" stroke="#008a0e" stroke-width="3" fill="none"/><path d="M220 470a8 8 0 0 1 8-8h24a8 8 0 0 1 8 8v4.78a8 8 0 0 1-8 8h-24a8 8 0 0 1-8-8z" stroke="#f2f2f2" fill="#ced4db"/><path d="M-280 118.6a6 6 0 0 1 6-6h228a6 6 0 0 1 6 6v48a6 6 0 0 1-6 6h-228a6 6 0 0 1-6-6z" fill="none"/><g><use xlink:href="#ah" transform="matrix(1,0,0,1,-280,112.61145043766584) translate(36.125 33.6)"/><use xlink:href="#ai" transform="matrix(1,0,0,1,-280,112.61145043766584) translate(66.125 33.6)"/><use xlink:href="#aj" transform="matrix(1,0,0,1,-280,112.61145043766584) translate(106.075 33.6)"/></g><path d="M-590 166a6 6 0 0 1 6-6h228a6 6 0 0 1 6 6v48a6 6 0 0 1-6 6h-228a6 6 0 0 1-6-6z" fill="none"/><g><use xlink:href="#ak" transform="matrix(1,0,0,1,-590,160) translate(36.125 33.6)"/><use xlink:href="#ai" transform="matrix(1,0,0,1,-590,160) translate(66.125 33.6)"/><use xlink:href="#aj" transform="matrix(1,0,0,1,-590,160) translate(106.075 33.6)"/></g><path d="M-920 196.58a6 6 0 0 1 6-6h228a6 6 0 0 1 6 6v48a6 6 0 0 1-6 6h-228a6 6 0 0 1-6-6z" fill="none"/><g><use xlink:href="#al" transform="matrix(1,0,0,1,-920,190.58282437702886) translate(36.125 33.6)"/><use xlink:href="#ai" transform="matrix(1,0,0,1,-920,190.58282437702886) translate(66.125 33.6)"/><use xlink:href="#aj" transform="matrix(1,0,0,1,-920,190.58282437702886) translate(106.075 33.6)"/></g><defs><path d="M140-251c81 0 123 46 123 126C263-46 219 4 140 4 59 4 17-45 17-125s42-126 123-126zm0 227c63 0 89-41 89-101s-29-99-89-99c-61 0-89 39-89 99S79-25 140-24" id="am"/><path d="M117-194c89-4 53 116 60 194h-32v-121c0-31-8-49-39-48C34-167 62-67 57 0H25l-1-190h30c1 10-1 24 2 32 11-22 29-35 61-36" id="an"/><path d="M24 0v-261h32V0H24" id="ao"/><path d="M24-231v-30h32v30H24zM24 0v-190h32V0H24" id="ap"/><path d="M100-194c63 0 86 42 84 106H49c0 40 14 67 53 68 26 1 43-12 49-29l28 8c-11 28-37 45-77 45C44 4 14-33 15-96c1-61 26-98 85-98zm52 81c6-60-76-77-97-28-3 7-6 17-6 28h103" id="aq"/><g id="a"><use transform="matrix(0.04938271604938272,0,0,0.04938271604938272,0,0)" xlink:href="#am"/><use transform="matrix(0.04938271604938272,0,0,0.04938271604938272,13.827160493827162,0)" xlink:href="#an"/><use transform="matrix(0.04938271604938272,0,0,0.04938271604938272,23.703703703703706,0)" xlink:href="#ao"/><use transform="matrix(0.04938271604938272,0,0,0.04938271604938272,27.60493827160494,0)" xlink:href="#ap"/><use transform="matrix(0.04938271604938272,0,0,0.04938271604938272,31.506172839506174,0)" xlink:href="#an"/><use transform="matrix(0.04938271604938272,0,0,0.04938271604938272,41.38271604938272,0)" xlink:href="#aq"/></g><path d="M205 0l-28-72H64L36 0H1l101-248h38L239 0h-34zm-38-99l-47-123c-12 45-31 82-46 123h93" id="ar"/><path d="M115-194c55 1 70 41 70 98S169 2 115 4C84 4 66-9 55-30l1 105H24l-1-265h31l2 30c10-21 28-34 59-34zm-8 174c40 0 45-34 45-75s-6-73-45-74c-42 0-51 32-51 76 0 43 10 73 51 73" id="as"/><g id="b"><use transform="matrix(0.04938271604938272,0,0,0.04938271604938272,0,0)" xlink:href="#ar"/><use transform="matrix(0.04938271604938272,0,0,0.04938271604938272,11.851851851851853,0)" xlink:href="#as"/><use transform="matrix(0.04938271604938272,0,0,0.04938271604938272,21.7283950617284,0)" xlink:href="#as"/></g><path d="M212-179c-10-28-35-45-73-45-59 0-87 40-87 99 0 60 29 101 89 101 43 0 62-24 78-52l27 14C228-24 195 4 139 4 59 4 22-46 18-125c-6-104 99-153 187-111 19 9 31 26 39 46" id="at"/><path d="M84 4C-5 8 30-112 23-190h32v120c0 31 7 50 39 49 72-2 45-101 50-169h31l1 190h-30c-1-10 1-25-2-33-11 22-28 36-60 37" id="au"/><path d="M135-143c-3-34-86-38-87 0 15 53 115 12 119 90S17 21 10-45l28-5c4 36 97 45 98 0-10-56-113-15-118-90-4-57 82-63 122-42 12 7 21 19 24 35" id="av"/><path d="M59-47c-2 24 18 29 38 22v24C64 9 27 4 27-40v-127H5v-23h24l9-43h21v43h35v23H59v120" id="aw"/><path d="M100-194c62-1 85 37 85 99 1 63-27 99-86 99S16-35 15-95c0-66 28-99 85-99zM99-20c44 1 53-31 53-75 0-43-8-75-51-75s-53 32-53 75 10 74 51 75" id="ax"/><path d="M210-169c-67 3-38 105-44 169h-31v-121c0-29-5-50-35-48C34-165 62-65 56 0H25l-1-190h30c1 10-1 24 2 32 10-44 99-50 107 0 11-21 27-35 58-36 85-2 47 119 55 194h-31v-121c0-29-5-49-35-48" id="ay"/><path d="M114-163C36-179 61-72 57 0H25l-1-190h30c1 12-1 29 2 39 6-27 23-49 58-41v29" id="az"/><g id="c"><use transform="matrix(0.04938271604938272,0,0,0.04938271604938272,0,0)" xlink:href="#at"/><use transform="matrix(0.04938271604938272,0,0,0.04938271604938272,12.790123456790125,0)" xlink:href="#au"/><use transform="matrix(0.04938271604938272,0,0,0.04938271604938272,22.66666666666667,0)" xlink:href="#av"/><use transform="matrix(0.04938271604938272,0,0,0.04938271604938272,31.555555555555557,0)" xlink:href="#aw"/><use transform="matrix(0.04938271604938272,0,0,0.04938271604938272,36.49382716049384,0)" xlink:href="#ax"/><use transform="matrix(0.04938271604938272,0,0,0.04938271604938272,46.37037037037038,0)" xlink:href="#ay"/><use transform="matrix(0.04938271604938272,0,0,0.04938271604938272,61.13580246913581,0)" xlink:href="#aq"/><use transform="matrix(0.04938271604938272,0,0,0.04938271604938272,71.01234567901236,0)" xlink:href="#az"/></g><path d="M33-154v-36h34v36H33zM33 0v-36h34V0H33" id="aA"/><path d="M85-194c31 0 48 13 60 33l-1-100h32l1 261h-30c-2-10 0-23-3-31C134-8 116 4 85 4 32 4 16-35 15-94c0-66 23-100 70-100zm9 24c-40 0-46 34-46 75 0 40 6 74 45 74 42 0 51-32 51-76 0-42-9-74-50-73" id="aB"/><g id="d"><use transform="matrix(0.04938271604938272,0,0,0.04938271604938272,0,0)" xlink:href="#aA"/><use transform="matrix(0.04938271604938272,0,0,0.04938271604938272,4.938271604938272,0)" xlink:href="#am"/><use transform="matrix(0.04938271604938272,0,0,0.04938271604938272,18.765432098765434,0)" xlink:href="#az"/><use transform="matrix(0.04938271604938272,0,0,0.04938271604938272,24.641975308641978,0)" xlink:href="#aB"/><use transform="matrix(0.04938271604938272,0,0,0.04938271604938272,34.51851851851852,0)" xlink:href="#aq"/><use transform="matrix(0.04938271604938272,0,0,0.04938271604938272,44.39506172839506,0)" xlink:href="#az"/></g><path d="M27 0v-27h64v-190l-56 39v-29l58-41h29v221h61V0H27" id="aC"/><path d="M33 0v-38h34V0H33" id="aD"/><path d="M141-36C126-15 110 5 73 4 37 3 15-17 15-53c-1-64 63-63 125-63 3-35-9-54-41-54-24 1-41 7-42 31l-33-3c5-37 33-52 76-52 45 0 72 20 72 64v82c-1 20 7 32 28 27v20c-31 9-61-2-59-35zM48-53c0 20 12 33 32 33 41-3 63-29 60-74-43 2-92-5-92 41" id="aE"/><g id="e"><use transform="matrix(0.04938271604938272,0,0,0.04938271604938272,0,0)" xlink:href="#aC"/><use transform="matrix(0.04938271604938272,0,0,0.04938271604938272,9.876543209876544,0)" xlink:href="#aD"/><use transform="matrix(0.04938271604938272,0,0,0.04938271604938272,14.814814814814817,0)" xlink:href="#aC"/><use transform="matrix(0.04938271604938272,0,0,0.04938271604938272,24.69135802469136,0)" xlink:href="#at"/><use transform="matrix(0.04938271604938272,0,0,0.04938271604938272,37.48148148148149,0)" xlink:href="#az"/><use transform="matrix(0.04938271604938272,0,0,0.04938271604938272,43.35802469135803,0)" xlink:href="#aq"/><use transform="matrix(0.04938271604938272,0,0,0.04938271604938272,53.23456790123457,0)" xlink:href="#aE"/><use transform="matrix(0.04938271604938272,0,0,0.04938271604938272,63.111111111111114,0)" xlink:href="#aw"/><use transform="matrix(0.04938271604938272,0,0,0.04938271604938272,68.0493827160494,0)" xlink:href="#aq"/><use transform="matrix(0.04938271604938272,0,0,0.04938271604938272,77.92592592592594,0)" xlink:href="#am"/><use transform="matrix(0.04938271604938272,0,0,0.04938271604938272,91.7530864197531,0)" xlink:href="#az"/><use transform="matrix(0.04938271604938272,0,0,0.04938271604938272,97.62962962962965,0)" xlink:href="#aB"/><use transform="matrix(0.04938271604938272,0,0,0.04938271604938272,107.50617283950618,0)" xlink:href="#aq"/><use transform="matrix(0.04938271604938272,0,0,0.04938271604938272,117.38271604938272,0)" xlink:href="#az"/></g><path d="M87 75C49 33 22-17 22-94c0-76 28-126 65-167h31c-38 41-64 92-64 168S80 34 118 75H87" id="aF"/><path d="M33-261c38 41 65 92 65 168S71 34 33 75H2C39 34 66-17 66-93S39-220 2-261h31" id="aG"/><g id="f"><use transform="matrix(0.04938271604938272,0,0,0.04938271604938272,0,0)" xlink:href="#aF"/><use transform="matrix(0.04938271604938272,0,0,0.04938271604938272,5.8765432098765435,0)" xlink:href="#aG"/></g><path d="M68-38c1 34 0 65-14 84H32c9-13 17-26 17-46H33v-38h35" id="aH"/><path d="M101-251c82-7 93 87 43 132L82-64C71-53 59-42 53-27h129V0H18c2-99 128-94 128-182 0-28-16-43-45-43s-46 15-49 41l-32-3c6-41 34-60 81-64" id="aI"/><g id="g"><use transform="matrix(0.04938271604938272,0,0,0.04938271604938272,0,0)" xlink:href="#aC"/><use transform="matrix(0.04938271604938272,0,0,0.04938271604938272,9.876543209876544,0)" xlink:href="#aH"/><use transform="matrix(0.04938271604938272,0,0,0.04938271604938272,14.814814814814817,0)" xlink:href="#aD"/><use transform="matrix(0.04938271604938272,0,0,0.04938271604938272,19.75308641975309,0)" xlink:href="#aI"/></g><g id="h"><use transform="matrix(0.04938271604938272,0,0,0.04938271604938272,0,0)" xlink:href="#aE"/><use transform="matrix(0.04938271604938272,0,0,0.04938271604938272,9.876543209876544,0)" xlink:href="#aB"/><use transform="matrix(0.04938271604938272,0,0,0.04938271604938272,19.75308641975309,0)" xlink:href="#aB"/></g><path d="M33 0v-248h34V0H33" id="aJ"/><g id="i"><use transform="matrix(0.04938271604938272,0,0,0.04938271604938272,0,0)" xlink:href="#aJ"/><use transform="matrix(0.04938271604938272,0,0,0.04938271604938272,4.938271604938272,0)" xlink:href="#aw"/><use transform="matrix(0.04938271604938272,0,0,0.04938271604938272,9.876543209876544,0)" xlink:href="#aq"/><use transform="matrix(0.04938271604938272,0,0,0.04938271604938272,19.75308641975309,0)" xlink:href="#ay"/></g><path d="M30-248c118-7 216 8 213 122C240-48 200 0 122 0H30v-248zM63-27c89 8 146-16 146-99s-60-101-146-95v194" id="aK"/><g id="j"><use transform="matrix(0.04938271604938272,0,0,0.04938271604938272,0,0)" xlink:href="#aF"/><use transform="matrix(0.04938271604938272,0,0,0.04938271604938272,5.8765432098765435,0)" xlink:href="#aJ"/><use transform="matrix(0.04938271604938272,0,0,0.04938271604938272,10.814814814814817,0)" xlink:href="#aw"/><use transform="matrix(0.04938271604938272,0,0,0.04938271604938272,15.753086419753087,0)" xlink:href="#aq"/><use transform="matrix(0.04938271604938272,0,0,0.04938271604938272,25.629629629629633,0)" xlink:href="#ay"/><use transform="matrix(0.04938271604938272,0,0,0.04938271604938272,40.39506172839506,0)" xlink:href="#aJ"/><use transform="matrix(0.04938271604938272,0,0,0.04938271604938272,45.333333333333336,0)" xlink:href="#aK"/><use transform="matrix(0.04938271604938272,0,0,0.04938271604938272,58.12345679012346,0)" xlink:href="#aH"/></g><path d="M140-251c81 0 123 46 123 126C263-53 228-8 163 1c7 30 30 48 69 40v23c-55 16-95-15-103-61C56-3 17-48 17-125c0-80 42-126 123-126zm0 227c63 0 89-41 89-101s-29-99-89-99c-61 0-89 39-89 99S79-25 140-24" id="aL"/><path d="M179-190L93 31C79 59 56 82 12 73V49c39 6 53-20 64-50L1-190h34L92-34l54-156h33" id="aM"/><g id="k"><use transform="matrix(0.04938271604938272,0,0,0.04938271604938272,0,0)" xlink:href="#aL"/><use transform="matrix(0.04938271604938272,0,0,0.04938271604938272,13.827160493827162,0)" xlink:href="#au"/><use transform="matrix(0.04938271604938272,0,0,0.04938271604938272,23.703703703703706,0)" xlink:href="#aE"/><use transform="matrix(0.04938271604938272,0,0,0.04938271604938272,33.580246913580254,0)" xlink:href="#an"/><use transform="matrix(0.04938271604938272,0,0,0.04938271604938272,43.4567901234568,0)" xlink:href="#aw"/><use transform="matrix(0.04938271604938272,0,0,0.04938271604938272,48.39506172839507,0)" xlink:href="#ap"/><use transform="matrix(0.04938271604938272,0,0,0.04938271604938272,52.2962962962963,0)" xlink:href="#aw"/><use transform="matrix(0.04938271604938272,0,0,0.04938271604938272,57.23456790123457,0)" xlink:href="#aM"/><use transform="matrix(0.04938271604938272,0,0,0.04938271604938272,66.12345679012347,0)" xlink:href="#aG"/></g><path d="M30 0v-248h33v221h125V0H30" id="aN"/><g id="l"><use transform="matrix(0.04938271604938272,0,0,0.04938271604938272,0,0)" xlink:href="#aA"/><use transform="matrix(0.04938271604938272,0,0,0.04938271604938272,4.938271604938272,0)" xlink:href="#am"/><use transform="matrix(0.04938271604938272,0,0,0.04938271604938272,18.765432098765434,0)" xlink:href="#az"/><use transform="matrix(0.04938271604938272,0,0,0.04938271604938272,24.641975308641978,0)" xlink:href="#aB"/><use transform="matrix(0.04938271604938272,0,0,0.04938271604938272,34.51851851851852,0)" xlink:href="#aq"/><use transform="matrix(0.04938271604938272,0,0,0.04938271604938272,44.39506172839506,0)" xlink:href="#az"/><use transform="matrix(0.04938271604938272,0,0,0.04938271604938272,50.27160493827161,0)" xlink:href="#aN"/><use transform="matrix(0.04938271604938272,0,0,0.04938271604938272,60.14814814814815,0)" xlink:href="#ap"/><use transform="matrix(0.04938271604938272,0,0,0.04938271604938272,64.0493827160494,0)" xlink:href="#an"/><use transform="matrix(0.04938271604938272,0,0,0.04938271604938272,73.92592592592594,0)" xlink:href="#aq"/></g><path d="M126-127c33 6 58 20 58 59 0 88-139 92-164 29-3-8-5-16-6-25l32-3c6 27 21 44 54 44 32 0 52-15 52-46 0-38-36-46-79-43v-28c39 1 72-4 72-42 0-27-17-43-46-43-28 0-47 15-49 41l-32-3c6-42 35-63 81-64 48-1 79 21 79 65 0 36-21 52-52 59" id="aO"/><g id="m"><use transform="matrix(0.04938271604938272,0,0,0.04938271604938272,0,0)" xlink:href="#aC"/><use transform="matrix(0.04938271604938272,0,0,0.04938271604938272,9.876543209876544,0)" xlink:href="#aD"/><use transform="matrix(0.04938271604938272,0,0,0.04938271604938272,14.814814814814817,0)" xlink:href="#aO"/></g><g id="n"><use transform="matrix(0.04938271604938272,0,0,0.04938271604938272,0,0)" xlink:href="#aN"/><use transform="matrix(0.04938271604938272,0,0,0.04938271604938272,9.876543209876544,0)" xlink:href="#ap"/><use transform="matrix(0.04938271604938272,0,0,0.04938271604938272,13.777777777777779,0)" xlink:href="#an"/><use transform="matrix(0.04938271604938272,0,0,0.04938271604938272,23.654320987654323,0)" xlink:href="#aq"/></g><g id="o"><use transform="matrix(0.04938271604938272,0,0,0.04938271604938272,0,0)" xlink:href="#aA"/><use transform="matrix(0.04938271604938272,0,0,0.04938271604938272,4.938271604938272,0)" xlink:href="#aJ"/><use transform="matrix(0.04938271604938272,0,0,0.04938271604938272,9.876543209876544,0)" xlink:href="#aw"/><use transform="matrix(0.04938271604938272,0,0,0.04938271604938272,14.814814814814817,0)" xlink:href="#aq"/><use transform="matrix(0.04938271604938272,0,0,0.04938271604938272,24.69135802469136,0)" xlink:href="#ay"/><use transform="matrix(0.04938271604938272,0,0,0.04938271604938272,39.4567901234568,0)" xlink:href="#aN"/><use transform="matrix(0.04938271604938272,0,0,0.04938271604938272,49.33333333333334,0)" xlink:href="#ap"/><use transform="matrix(0.04938271604938272,0,0,0.04938271604938272,53.23456790123457,0)" xlink:href="#av"/><use transform="matrix(0.04938271604938272,0,0,0.04938271604938272,62.12345679012347,0)" xlink:href="#aw"/></g><path d="M155-56V0h-30v-56H8v-25l114-167h33v167h35v25h-35zm-30-156c-27 46-58 90-88 131h88v-131" id="aP"/><g id="p"><use transform="matrix(0.04938271604938272,0,0,0.04938271604938272,0,0)" xlink:href="#aC"/><use transform="matrix(0.04938271604938272,0,0,0.04938271604938272,9.876543209876544,0)" xlink:href="#aD"/><use transform="matrix(0.04938271604938272,0,0,0.04938271604938272,14.814814814814817,0)" xlink:href="#aP"/></g><path d="M101-234c-31-9-42 10-38 44h38v23H63V0H32v-167H5v-23h27c-7-52 17-82 69-68v24" id="aQ"/><g id="q"><use transform="matrix(0.04938271604938272,0,0,0.04938271604938272,0,0)" xlink:href="#aQ"/><use transform="matrix(0.04938271604938272,0,0,0.04938271604938272,4.938271604938272,0)" xlink:href="#ap"/><use transform="matrix(0.04938271604938272,0,0,0.04938271604938272,8.839506172839506,0)" xlink:href="#an"/><use transform="matrix(0.04938271604938272,0,0,0.04938271604938272,18.71604938271605,0)" xlink:href="#aB"/></g><g id="r"><use transform="matrix(0.04938271604938272,0,0,0.04938271604938272,0,0)" xlink:href="#aF"/><use transform="matrix(0.04938271604938272,0,0,0.04938271604938272,5.8765432098765435,0)" xlink:href="#aJ"/><use transform="matrix(0.04938271604938272,0,0,0.04938271604938272,10.814814814814817,0)" xlink:href="#aw"/><use transform="matrix(0.04938271604938272,0,0,0.04938271604938272,15.753086419753087,0)" xlink:href="#aq"/><use transform="matrix(0.04938271604938272,0,0,0.04938271604938272,25.629629629629633,0)" xlink:href="#ay"/><use transform="matrix(0.04938271604938272,0,0,0.04938271604938272,40.39506172839506,0)" xlink:href="#aJ"/><use transform="matrix(0.04938271604938272,0,0,0.04938271604938272,45.333333333333336,0)" xlink:href="#aK"/><use transform="matrix(0.04938271604938272,0,0,0.04938271604938272,58.12345679012346,0)" xlink:href="#aG"/></g><path fill="#008a0e" d="M20 75v-336h95v34H67V41h48v34H20" id="aR"/><path fill="#008a0e" d="M86-200l42-18 12 35-44 11 32 37-32 21-26-44-26 44-32-21 33-37-44-11 12-35 42 18-3-48h38" id="aS"/><path fill="#008a0e" d="M85 4C-2 5 27-109 22-190h50c7 57-23 150 33 157 60-5 35-97 40-157h50l1 190h-47c-2-12 1-28-3-38-12 25-28 42-61 42" id="aT"/><path fill="#008a0e" d="M135-194c87-1 58 113 63 194h-50c-7-57 23-157-34-157-59 0-34 97-39 157H25l-1-190h47c2 12-1 28 3 38 12-26 28-41 61-42" id="aU"/><path fill="#008a0e" d="M115-3C79 11 28 4 28-45v-112H4v-33h27l15-45h31v45h36v33H77v99c-1 23 16 31 38 25v30" id="aV"/><path fill="#008a0e" d="M25-224v-37h50v37H25zM25 0v-190h50V0H25" id="aW"/><path fill="#008a0e" d="M25 0v-261h50V0H25" id="aX"/><g id="s"><use transform="matrix(0.05,0,0,0.05,0,0)" xlink:href="#aR"/><use transform="matrix(0.05,0,0,0.05,5.95,0)" xlink:href="#aS"/><use transform="matrix(0.05,0,0,0.05,12.949999999999998,0)" xlink:href="#aT"/><use transform="matrix(0.05,0,0,0.05,23.9,0)" xlink:href="#aU"/><use transform="matrix(0.05,0,0,0.05,34.85,0)" xlink:href="#aV"/><use transform="matrix(0.05,0,0,0.05,40.800000000000004,0)" xlink:href="#aW"/><use transform="matrix(0.05,0,0,0.05,45.800000000000004,0)" xlink:href="#aX"/></g><path fill="#008a0e" d="M110-194c64 0 96 36 96 99 0 64-35 99-97 99-61 0-95-36-95-99 0-62 34-99 96-99zm-1 164c35 0 45-28 45-65 0-40-10-65-43-65-34 0-45 26-45 65 0 36 10 65 43 65" id="aY"/><g id="t"><use transform="matrix(0.05,0,0,0.05,0,0)" xlink:href="#aU"/><use transform="matrix(0.05,0,0,0.05,10.950000000000001,0)" xlink:href="#aY"/></g><path fill="#008a0e" d="M220-157c-53 9-28 100-34 157h-49v-107c1-27-5-49-29-50C55-147 81-57 75 0H25l-1-190h47c2 12-1 28 3 38 10-53 101-56 108 0 13-22 24-43 59-42 82 1 51 116 57 194h-49v-107c-1-25-5-48-29-50" id="aZ"/><path fill="#008a0e" d="M135-150c-39-12-60 13-60 57V0H25l-1-190h47c2 13-1 29 3 40 6-28 27-53 61-41v41" id="ba"/><path fill="#008a0e" d="M185-48c-13 30-37 53-82 52C43 2 14-33 14-96s30-98 90-98c62 0 83 45 84 108H66c0 31 8 55 39 56 18 0 30-7 34-22zm-45-69c5-46-57-63-70-21-2 6-4 13-4 21h74" id="bb"/><g id="u"><use transform="matrix(0.05,0,0,0.05,0,0)" xlink:href="#aZ"/><use transform="matrix(0.05,0,0,0.05,16,0)" xlink:href="#aY"/><use transform="matrix(0.05,0,0,0.05,26.950000000000003,0)" xlink:href="#ba"/><use transform="matrix(0.05,0,0,0.05,33.95,0)" xlink:href="#bb"/></g><path fill="#008a0e" d="M137-138c1-29-70-34-71-4 15 46 118 7 119 86 1 83-164 76-172 9l43-7c4 19 20 25 44 25 33 8 57-30 24-41C81-84 22-81 20-136c-2-80 154-74 161-7" id="bc"/><path fill="#008a0e" d="M4 75V41h49v-268H4v-34h96V75H4" id="bd"/><g id="v"><use transform="matrix(0.05,0,0,0.05,0,0)" xlink:href="#aW"/><use transform="matrix(0.05,0,0,0.05,5,0)" xlink:href="#aV"/><use transform="matrix(0.05,0,0,0.05,10.95,0)" xlink:href="#bb"/><use transform="matrix(0.05,0,0,0.05,20.95,0)" xlink:href="#aZ"/><use transform="matrix(0.05,0,0,0.05,36.95,0)" xlink:href="#bc"/><use transform="matrix(0.05,0,0,0.05,46.95,0)" xlink:href="#bd"/></g><g id="w"><use transform="matrix(0.04320987654320988,0,0,0.04320987654320988,0,0)" xlink:href="#aO"/><use transform="matrix(0.04320987654320988,0,0,0.04320987654320988,8.641975308641976,0)" xlink:href="#aD"/><use transform="matrix(0.04320987654320988,0,0,0.04320987654320988,12.962962962962964,0)" xlink:href="#aI"/></g><path d="M96-169c-40 0-48 33-48 73s9 75 48 75c24 0 41-14 43-38l32 2c-6 37-31 61-74 61-59 0-76-41-82-99-10-93 101-131 147-64 4 7 5 14 7 22l-32 3c-4-21-16-35-41-35" id="be"/><g id="x"><use transform="matrix(0.04320987654320988,0,0,0.04320987654320988,0,0)" xlink:href="#be"/><use transform="matrix(0.04320987654320988,0,0,0.04320987654320988,7.777777777777779,0)" xlink:href="#az"/><use transform="matrix(0.04320987654320988,0,0,0.04320987654320988,12.919753086419751,0)" xlink:href="#aq"/><use transform="matrix(0.04320987654320988,0,0,0.04320987654320988,21.561728395061728,0)" xlink:href="#aE"/><use transform="matrix(0.04320987654320988,0,0,0.04320987654320988,30.203703703703702,0)" xlink:href="#aw"/><use transform="matrix(0.04320987654320988,0,0,0.04320987654320988,34.52469135802469,0)" xlink:href="#aq"/></g><path d="M30-248c87 1 191-15 191 75 0 78-77 80-158 76V0H30v-248zm33 125c57 0 124 11 124-50 0-59-68-47-124-48v98" id="bf"/><g id="y"><use transform="matrix(0.04320987654320988,0,0,0.04320987654320988,0,0)" xlink:href="#bf"/><use transform="matrix(0.04320987654320988,0,0,0.04320987654320988,10.370370370370372,0)" xlink:href="#aE"/><use transform="matrix(0.04320987654320988,0,0,0.04320987654320988,19.01234567901235,0)" xlink:href="#aM"/><use transform="matrix(0.04320987654320988,0,0,0.04320987654320988,26.790123456790127,0)" xlink:href="#ay"/><use transform="matrix(0.04320987654320988,0,0,0.04320987654320988,39.70987654320988,0)" xlink:href="#aq"/><use transform="matrix(0.04320987654320988,0,0,0.04320987654320988,48.351851851851855,0)" xlink:href="#an"/><use transform="matrix(0.04320987654320988,0,0,0.04320987654320988,56.99382716049384,0)" xlink:href="#aw"/></g><g id="z"><use transform="matrix(0.04320987654320988,0,0,0.04320987654320988,0,0)" xlink:href="#aF"/><use transform="matrix(0.04320987654320988,0,0,0.04320987654320988,5.1419753086419755,0)" xlink:href="#ar"/><use transform="matrix(0.04320987654320988,0,0,0.04320987654320988,15.512345679012347,0)" xlink:href="#ay"/><use transform="matrix(0.04320987654320988,0,0,0.04320987654320988,28.4320987654321,0)" xlink:href="#ax"/><use transform="matrix(0.04320987654320988,0,0,0.04320987654320988,37.074074074074076,0)" xlink:href="#au"/><use transform="matrix(0.04320987654320988,0,0,0.04320987654320988,45.71604938271605,0)" xlink:href="#an"/><use transform="matrix(0.04320987654320988,0,0,0.04320987654320988,54.35802469135802,0)" xlink:href="#aw"/><use transform="matrix(0.04320987654320988,0,0,0.04320987654320988,58.679012345679006,0)" xlink:href="#aH"/></g><path d="M127-220V0H93v-220H8v-28h204v28h-85" id="bg"/><g id="A"><use transform="matrix(0.04320987654320988,0,0,0.04320987654320988,0,0)" xlink:href="#bg"/><use transform="matrix(0.04320987654320988,0,0,0.04320987654320988,8.598765432098766,0)" xlink:href="#aM"/><use transform="matrix(0.04320987654320988,0,0,0.04320987654320988,16.376543209876544,0)" xlink:href="#as"/><use transform="matrix(0.04320987654320988,0,0,0.04320987654320988,25.018518518518523,0)" xlink:href="#aq"/><use transform="matrix(0.04320987654320988,0,0,0.04320987654320988,33.660493827160494,0)" xlink:href="#aH"/></g><path d="M158-156l-14 65h45v19h-49L124 0h-19l15-72H56L41 0H22l15-72H2v-19h39l14-65H11v-19h48l15-71h20l-16 71h64l16-71h19l-16 71h37v19h-40zm-83 0L61-91h63l14-65H75" id="bh"/><g id="B"><use transform="matrix(0.04320987654320988,0,0,0.04320987654320988,0,0)" xlink:href="#at"/><use transform="matrix(0.04320987654320988,0,0,0.04320987654320988,11.19135802469136,0)" xlink:href="#at"/><use transform="matrix(0.04320987654320988,0,0,0.04320987654320988,22.38271604938272,0)" xlink:href="#bh"/><use transform="matrix(0.04320987654320988,0,0,0.04320987654320988,31.024691358024693,0)" xlink:href="#aH"/></g><path d="M30 0v-248h187v28H63v79h144v27H63v87h162V0H30" id="bi"/><path d="M141 0L90-78 38 0H4l68-98-65-92h35l48 74 47-74h35l-64 92 68 98h-35" id="bj"/><g id="C"><use transform="matrix(0.04320987654320988,0,0,0.04320987654320988,0,0)" xlink:href="#bi"/><use transform="matrix(0.04320987654320988,0,0,0.04320987654320988,10.370370370370372,0)" xlink:href="#bj"/><use transform="matrix(0.04320987654320988,0,0,0.04320987654320988,18.148148148148152,0)" xlink:href="#as"/><use transform="matrix(0.04320987654320988,0,0,0.04320987654320988,26.790123456790127,0)" xlink:href="#aG"/></g><g id="D"><use transform="matrix(0.04320987654320988,0,0,0.04320987654320988,0,0)" xlink:href="#aO"/><use transform="matrix(0.04320987654320988,0,0,0.04320987654320988,8.641975308641976,0)" xlink:href="#aD"/><use transform="matrix(0.04320987654320988,0,0,0.04320987654320988,12.962962962962964,0)" xlink:href="#aC"/></g><path d="M108 0H70L1-190h34L89-25l56-165h34" id="bk"/><g id="E"><use transform="matrix(0.04320987654320988,0,0,0.04320987654320988,0,0)" xlink:href="#az"/><use transform="matrix(0.04320987654320988,0,0,0.04320987654320988,5.1419753086419755,0)" xlink:href="#aq"/><use transform="matrix(0.04320987654320988,0,0,0.04320987654320988,13.783950617283953,0)" xlink:href="#be"/><use transform="matrix(0.04320987654320988,0,0,0.04320987654320988,21.56172839506173,0)" xlink:href="#aq"/><use transform="matrix(0.04320987654320988,0,0,0.04320987654320988,30.203703703703713,0)" xlink:href="#ap"/><use transform="matrix(0.04320987654320988,0,0,0.04320987654320988,33.61728395061729,0)" xlink:href="#bk"/><use transform="matrix(0.04320987654320988,0,0,0.04320987654320988,41.39506172839507,0)" xlink:href="#aq"/><use transform="matrix(0.04320987654320988,0,0,0.04320987654320988,50.037037037037045,0)" xlink:href="#av"/></g><g id="F"><use transform="matrix(0.04938271604938272,0,0,0.04938271604938272,0,0)" xlink:href="#aA"/><use transform="matrix(0.04938271604938272,0,0,0.04938271604938272,4.938271604938272,0)" xlink:href="#bf"/><use transform="matrix(0.04938271604938272,0,0,0.04938271604938272,16.790123456790127,0)" xlink:href="#aE"/><use transform="matrix(0.04938271604938272,0,0,0.04938271604938272,26.666666666666668,0)" xlink:href="#aM"/><use transform="matrix(0.04938271604938272,0,0,0.04938271604938272,35.55555555555556,0)" xlink:href="#ay"/><use transform="matrix(0.04938271604938272,0,0,0.04938271604938272,50.32098765432099,0)" xlink:href="#aq"/><use transform="matrix(0.04938271604938272,0,0,0.04938271604938272,60.19753086419754,0)" xlink:href="#an"/><use transform="matrix(0.04938271604938272,0,0,0.04938271604938272,70.07407407407408,0)" xlink:href="#aw"/></g><g id="G"><use transform="matrix(0.04320987654320988,0,0,0.04320987654320988,0,0)" xlink:href="#aP"/><use transform="matrix(0.04320987654320988,0,0,0.04320987654320988,8.641975308641976,0)" xlink:href="#aD"/><use transform="matrix(0.04320987654320988,0,0,0.04320987654320988,12.962962962962964,0)" xlink:href="#aC"/><use transform="matrix(0.04320987654320988,0,0,0.04320987654320988,21.604938271604944,0)" xlink:href="#bk"/><use transform="matrix(0.04320987654320988,0,0,0.04320987654320988,29.382716049382726,0)" xlink:href="#aq"/><use transform="matrix(0.04320987654320988,0,0,0.04320987654320988,38.0246913580247,0)" xlink:href="#az"/><use transform="matrix(0.04320987654320988,0,0,0.04320987654320988,43.16666666666667,0)" xlink:href="#ap"/><use transform="matrix(0.04320987654320988,0,0,0.04320987654320988,46.580246913580254,0)" xlink:href="#aQ"/><use transform="matrix(0.04320987654320988,0,0,0.04320987654320988,50.90123456790124,0)" xlink:href="#aM"/><use transform="matrix(0.04320987654320988,0,0,0.04320987654320988,58.67901234567902,0)" xlink:href="#aF"/><use transform="matrix(0.04320987654320988,0,0,0.04320987654320988,63.820987654320994,0)" xlink:href="#aG"/></g><g id="H"><use transform="matrix(0.04320987654320988,0,0,0.04320987654320988,0,0)" xlink:href="#aP"/><use transform="matrix(0.04320987654320988,0,0,0.04320987654320988,8.641975308641976,0)" xlink:href="#aD"/><use transform="matrix(0.04320987654320988,0,0,0.04320987654320988,12.962962962962964,0)" xlink:href="#aI"/></g><g id="I"><use transform="matrix(0.04320987654320988,0,0,0.04320987654320988,0,0)" xlink:href="#aE"/><use transform="matrix(0.04320987654320988,0,0,0.04320987654320988,8.641975308641976,0)" xlink:href="#aB"/><use transform="matrix(0.04320987654320988,0,0,0.04320987654320988,17.283950617283953,0)" xlink:href="#aB"/></g><path fill="#008a0e" d="M135-194c53 0 70 44 70 98 0 56-19 98-73 100-31 1-45-17-59-34 3 33 2 69 2 105H25l-1-265h48c2 10 0 23 3 31 11-24 29-35 60-35zM114-30c33 0 39-31 40-66 0-38-9-64-40-64-56 0-55 130 0 130" id="bl"/><path fill="#008a0e" d="M133-34C117-15 103 5 69 4 32 3 11-16 11-54c-1-60 55-63 116-61 1-26-3-47-28-47-18 1-26 9-28 27l-52-2c7-38 36-58 82-57s74 22 75 68l1 82c-1 14 12 18 25 15v27c-30 8-71 5-69-32zm-48 3c29 0 43-24 42-57-32 0-66-3-65 30 0 17 8 27 23 27" id="bm"/><path fill="#008a0e" d="M123 10C108 53 80 86 19 72V37c35 8 53-11 59-39L3-190h52l48 148c12-52 28-100 44-148h51" id="bn"/><g id="J"><use transform="matrix(0.05,0,0,0.05,0,0)" xlink:href="#bl"/><use transform="matrix(0.05,0,0,0.05,10.950000000000001,0)" xlink:href="#bm"/><use transform="matrix(0.05,0,0,0.05,20.950000000000003,0)" xlink:href="#bn"/><use transform="matrix(0.05,0,0,0.05,30.950000000000003,0)" xlink:href="#aZ"/><use transform="matrix(0.05,0,0,0.05,46.95,0)" xlink:href="#bb"/><use transform="matrix(0.05,0,0,0.05,56.95,0)" xlink:href="#aU"/><use transform="matrix(0.05,0,0,0.05,67.9,0)" xlink:href="#aV"/></g><g id="K"><use transform="matrix(0.05,0,0,0.05,0,0)" xlink:href="#aW"/><use transform="matrix(0.05,0,0,0.05,5,0)" xlink:href="#bc"/></g><path fill="#008a0e" d="M190-63c-7 42-38 67-86 67-59 0-84-38-90-98-12-110 154-137 174-36l-49 2c-2-19-15-32-35-32-30 0-35 28-38 64-6 74 65 87 74 30" id="bo"/><g id="L"><use transform="matrix(0.05,0,0,0.05,0,0)" xlink:href="#bo"/><use transform="matrix(0.05,0,0,0.05,10,0)" xlink:href="#aY"/><use transform="matrix(0.05,0,0,0.05,20.950000000000003,0)" xlink:href="#aZ"/><use transform="matrix(0.05,0,0,0.05,36.95,0)" xlink:href="#bl"/><use transform="matrix(0.05,0,0,0.05,47.900000000000006,0)" xlink:href="#aX"/><use transform="matrix(0.05,0,0,0.05,52.900000000000006,0)" xlink:href="#bb"/><use transform="matrix(0.05,0,0,0.05,62.900000000000006,0)" xlink:href="#aV"/><use transform="matrix(0.05,0,0,0.05,68.85000000000001,0)" xlink:href="#bb"/><use transform="matrix(0.05,0,0,0.05,78.85000000000001,0)" xlink:href="#bd"/></g><path fill="#3a414a" d="M155-56V0h-30v-56H8v-25l114-167h33v167h35v25h-35zm-30-156c-27 46-58 90-88 131h88v-131" id="bp"/><path fill="#3a414a" d="M33 0v-38h34V0H33" id="bq"/><path fill="#3a414a" d="M126-127c33 6 58 20 58 59 0 88-139 92-164 29-3-8-5-16-6-25l32-3c6 27 21 44 54 44 32 0 52-15 52-46 0-38-36-46-79-43v-28c39 1 72-4 72-42 0-27-17-43-46-43-28 0-47 15-49 41l-32-3c6-42 35-63 81-64 48-1 79 21 79 65 0 36-21 52-52 59" id="br"/><g id="M"><use transform="matrix(0.05,0,0,0.05,0,0)" xlink:href="#bp"/><use transform="matrix(0.05,0,0,0.05,10,0)" xlink:href="#bq"/><use transform="matrix(0.05,0,0,0.05,15,0)" xlink:href="#br"/></g><path fill="#3a414a" d="M141-36C126-15 110 5 73 4 37 3 15-17 15-53c-1-64 63-63 125-63 3-35-9-54-41-54-24 1-41 7-42 31l-33-3c5-37 33-52 76-52 45 0 72 20 72 64v82c-1 20 7 32 28 27v20c-31 9-61-2-59-35zM48-53c0 20 12 33 32 33 41-3 63-29 60-74-43 2-92-5-92 41" id="bs"/><path fill="#3a414a" d="M84 4C-5 8 30-112 23-190h32v120c0 31 7 50 39 49 72-2 45-101 50-169h31l1 190h-30c-1-10 1-25-2-33-11 22-28 36-60 37" id="bt"/><path fill="#3a414a" d="M59-47c-2 24 18 29 38 22v24C64 9 27 4 27-40v-127H5v-23h24l9-43h21v43h35v23H59v120" id="bu"/><path fill="#3a414a" d="M106-169C34-169 62-67 57 0H25v-261h32l-1 103c12-21 28-36 61-36 89 0 53 116 60 194h-32v-121c2-32-8-49-39-48" id="bv"/><path fill="#3a414a" d="M100-194c62-1 85 37 85 99 1 63-27 99-86 99S16-35 15-95c0-66 28-99 85-99zM99-20c44 1 53-31 53-75 0-43-8-75-51-75s-53 32-53 75 10 74 51 75" id="bw"/><path fill="#3a414a" d="M114-163C36-179 61-72 57 0H25l-1-190h30c1 12-1 29 2 39 6-27 23-49 58-41v29" id="bx"/><path fill="#3a414a" d="M24-231v-30h32v30H24zM24 0v-190h32V0H24" id="by"/><path fill="#3a414a" d="M9 0v-24l116-142H16v-24h144v24L44-24h123V0H9" id="bz"/><path fill="#3a414a" d="M117-194c89-4 53 116 60 194h-32v-121c0-31-8-49-39-48C34-167 62-67 57 0H25l-1-190h30c1 10-1 24 2 32 11-22 29-35 61-36" id="bA"/><g id="N"><use transform="matrix(0.05,0,0,0.05,0,0)" xlink:href="#bs"/><use transform="matrix(0.05,0,0,0.05,10,0)" xlink:href="#bt"/><use transform="matrix(0.05,0,0,0.05,20,0)" xlink:href="#bu"/><use transform="matrix(0.05,0,0,0.05,25,0)" xlink:href="#bv"/><use transform="matrix(0.05,0,0,0.05,35,0)" xlink:href="#bw"/><use transform="matrix(0.05,0,0,0.05,45,0)" xlink:href="#bx"/><use transform="matrix(0.05,0,0,0.05,50.95,0)" xlink:href="#by"/><use transform="matrix(0.05,0,0,0.05,54.900000000000006,0)" xlink:href="#bz"/><use transform="matrix(0.05,0,0,0.05,63.900000000000006,0)" xlink:href="#bs"/><use transform="matrix(0.05,0,0,0.05,73.9,0)" xlink:href="#bu"/><use transform="matrix(0.05,0,0,0.05,78.9,0)" xlink:href="#by"/><use transform="matrix(0.05,0,0,0.05,82.85000000000001,0)" xlink:href="#bw"/><use transform="matrix(0.05,0,0,0.05,92.85000000000001,0)" xlink:href="#bA"/></g><path fill="#3a414a" d="M54-142c48-35 137-8 131 61C196 18 31 33 14-55l32-4c7 23 22 37 52 37 35-1 51-22 54-58 4-55-73-65-99-34H22l8-134h141v27H59" id="bB"/><path fill="#3a414a" d="M27 0v-27h64v-190l-56 39v-29l58-41h29v221h61V0H27" id="bC"/><g id="O"><use transform="matrix(0.05,0,0,0.05,0,0)" xlink:href="#bB"/><use transform="matrix(0.05,0,0,0.05,10,0)" xlink:href="#bq"/><use transform="matrix(0.05,0,0,0.05,15,0)" xlink:href="#bC"/></g><path fill="#3a414a" d="M24 0v-261h32V0H24" id="bD"/><g id="P"><use transform="matrix(0.05,0,0,0.05,0,0)" xlink:href="#bu"/><use transform="matrix(0.05,0,0,0.05,5,0)" xlink:href="#bw"/><use transform="matrix(0.05,0,0,0.05,15,0)" xlink:href="#bu"/><use transform="matrix(0.05,0,0,0.05,20,0)" xlink:href="#bs"/><use transform="matrix(0.05,0,0,0.05,30,0)" xlink:href="#bD"/></g><path fill="#3a414a" d="M96-169c-40 0-48 33-48 73s9 75 48 75c24 0 41-14 43-38l32 2c-6 37-31 61-74 61-59 0-76-41-82-99-10-93 101-131 147-64 4 7 5 14 7 22l-32 3c-4-21-16-35-41-35" id="bE"/><path fill="#3a414a" d="M177-190C167-65 218 103 67 71c-23-6-38-20-44-43l32-5c15 47 100 32 89-28v-30C133-14 115 1 83 1 29 1 15-40 15-95c0-56 16-97 71-98 29-1 48 16 59 35 1-10 0-23 2-32h30zM94-22c36 0 50-32 50-73 0-42-14-75-50-75-39 0-46 34-46 75s6 73 46 73" id="bF"/><path fill="#3a414a" d="M100-194c63 0 86 42 84 106H49c0 40 14 67 53 68 26 1 43-12 49-29l28 8c-11 28-37 45-77 45C44 4 14-33 15-96c1-61 26-98 85-98zm52 81c6-60-76-77-97-28-3 7-6 17-6 28h103" id="bG"/><g id="Q"><use transform="matrix(0.05,0,0,0.05,0,0)" xlink:href="#bE"/><use transform="matrix(0.05,0,0,0.05,9,0)" xlink:href="#bv"/><use transform="matrix(0.05,0,0,0.05,19,0)" xlink:href="#bs"/><use transform="matrix(0.05,0,0,0.05,29,0)" xlink:href="#bx"/><use transform="matrix(0.05,0,0,0.05,34.95,0)" xlink:href="#bF"/><use transform="matrix(0.05,0,0,0.05,44.95,0)" xlink:href="#bG"/></g><path fill="#3a414a" d="M110-160c48 1 74 30 74 79 0 53-28 85-80 85-65 0-83-55-86-122-5-90 50-162 133-122 14 7 22 21 27 39l-31 6c-5-40-67-38-82-6-9 19-15 44-15 74 11-20 30-34 60-33zm-7 138c34 0 49-23 49-58s-16-56-50-56c-29 0-50 16-49 49 1 36 15 65 50 65" id="bH"/><g id="R"><use transform="matrix(0.05,0,0,0.05,0,0)" xlink:href="#bH"/><use transform="matrix(0.05,0,0,0.05,10,0)" xlink:href="#bq"/><use transform="matrix(0.05,0,0,0.05,15,0)" xlink:href="#bC"/></g><path fill="#3a414a" d="M115-194c55 1 70 41 70 98S169 2 115 4C84 4 66-9 55-30l1 105H24l-1-265h31l2 30c10-21 28-34 59-34zm-8 174c40 0 45-34 45-75s-6-73-45-74c-42 0-51 32-51 76 0 43 10 73 51 73" id="bI"/><g id="S"><use transform="matrix(0.05,0,0,0.05,0,0)" xlink:href="#bx"/><use transform="matrix(0.05,0,0,0.05,5.95,0)" xlink:href="#bG"/><use transform="matrix(0.05,0,0,0.05,15.949999999999998,0)" xlink:href="#bE"/><use transform="matrix(0.05,0,0,0.05,24.95,0)" xlink:href="#bG"/><use transform="matrix(0.05,0,0,0.05,34.95,0)" xlink:href="#by"/><use transform="matrix(0.05,0,0,0.05,38.900000000000006,0)" xlink:href="#bI"/><use transform="matrix(0.05,0,0,0.05,48.900000000000006,0)" xlink:href="#bu"/></g><path fill="#3a414a" d="M101-251c82-7 93 87 43 132L82-64C71-53 59-42 53-27h129V0H18c2-99 128-94 128-182 0-28-16-43-45-43s-46 15-49 41l-32-3c6-41 34-60 81-64" id="bJ"/><g id="T"><use transform="matrix(0.05,0,0,0.05,0,0)" xlink:href="#bH"/><use transform="matrix(0.05,0,0,0.05,10,0)" xlink:href="#bq"/><use transform="matrix(0.05,0,0,0.05,15,0)" xlink:href="#bJ"/></g><path d="M64 0c3-98 48-159 88-221H18v-27h164v26C143-157 98-101 97 0H64" id="bK"/><g id="U"><use transform="matrix(0.04320987654320988,0,0,0.04320987654320988,0,0)" xlink:href="#bK"/><use transform="matrix(0.04320987654320988,0,0,0.04320987654320988,8.641975308641976,0)" xlink:href="#aD"/><use transform="matrix(0.04320987654320988,0,0,0.04320987654320988,12.962962962962964,0)" xlink:href="#aC"/></g><g id="V"><use transform="matrix(0.04320987654320988,0,0,0.04320987654320988,0,0)" xlink:href="#au"/><use transform="matrix(0.04320987654320988,0,0,0.04320987654320988,8.641975308641976,0)" xlink:href="#as"/><use transform="matrix(0.04320987654320988,0,0,0.04320987654320988,17.283950617283953,0)" xlink:href="#aB"/><use transform="matrix(0.04320987654320988,0,0,0.04320987654320988,25.925925925925927,0)" xlink:href="#aE"/><use transform="matrix(0.04320987654320988,0,0,0.04320987654320988,34.567901234567906,0)" xlink:href="#aw"/><use transform="matrix(0.04320987654320988,0,0,0.04320987654320988,38.88888888888889,0)" xlink:href="#aq"/></g><path d="M106-169C34-169 62-67 57 0H25v-261h32l-1 103c12-21 28-36 61-36 89 0 53 116 60 194h-32v-121c2-32-8-49-39-48" id="bL"/><g id="W"><use transform="matrix(0.04320987654320988,0,0,0.04320987654320988,0,0)" xlink:href="#bf"/><use transform="matrix(0.04320987654320988,0,0,0.04320987654320988,10.370370370370372,0)" xlink:href="#au"/><use transform="matrix(0.04320987654320988,0,0,0.04320987654320988,19.01234567901235,0)" xlink:href="#az"/><use transform="matrix(0.04320987654320988,0,0,0.04320987654320988,24.154320987654323,0)" xlink:href="#be"/><use transform="matrix(0.04320987654320988,0,0,0.04320987654320988,31.9320987654321,0)" xlink:href="#bL"/><use transform="matrix(0.04320987654320988,0,0,0.04320987654320988,40.574074074074076,0)" xlink:href="#aE"/><use transform="matrix(0.04320987654320988,0,0,0.04320987654320988,49.21604938271606,0)" xlink:href="#av"/><use transform="matrix(0.04320987654320988,0,0,0.04320987654320988,56.99382716049384,0)" xlink:href="#aq"/></g><path d="M197 0v-115H63V0H30v-248h33v105h134v-105h34V0h-34" id="bM"/><g id="X"><use transform="matrix(0.04320987654320988,0,0,0.04320987654320988,0,0)" xlink:href="#bM"/><use transform="matrix(0.04320987654320988,0,0,0.04320987654320988,11.19135802469136,0)" xlink:href="#ap"/><use transform="matrix(0.04320987654320988,0,0,0.04320987654320988,14.60493827160494,0)" xlink:href="#av"/><use transform="matrix(0.04320987654320988,0,0,0.04320987654320988,22.38271604938272,0)" xlink:href="#aw"/><use transform="matrix(0.04320987654320988,0,0,0.04320987654320988,26.703703703703706,0)" xlink:href="#ax"/><use transform="matrix(0.04320987654320988,0,0,0.04320987654320988,35.345679012345684,0)" xlink:href="#az"/><use transform="matrix(0.04320987654320988,0,0,0.04320987654320988,40.48765432098766,0)" xlink:href="#aM"/></g><g id="Y"><use transform="matrix(0.04320987654320988,0,0,0.04320987654320988,0,0)" xlink:href="#aF"/><use transform="matrix(0.04320987654320988,0,0,0.04320987654320988,5.1419753086419755,0)" xlink:href="#aG"/></g><path d="M134-131c28 9 52 24 51 62-1 50-34 73-85 73S17-19 16-69c0-36 21-54 49-61-75-25-45-126 34-121 46 3 78 18 79 63 0 33-17 51-44 57zm-34-11c31 1 46-15 46-44 0-28-17-43-47-42-29 0-46 13-45 42 1 28 16 44 46 44zm1 122c35 0 51-18 51-52 0-30-18-46-53-46-33 0-51 17-51 47 0 34 19 51 53 51" id="bN"/><g id="Z"><use transform="matrix(0.04320987654320988,0,0,0.04320987654320988,0,0)" xlink:href="#bN"/><use transform="matrix(0.04320987654320988,0,0,0.04320987654320988,8.641975308641976,0)" xlink:href="#aD"/><use transform="matrix(0.04320987654320988,0,0,0.04320987654320988,12.962962962962964,0)" xlink:href="#aC"/></g><g id="aa"><use transform="matrix(0.04320987654320988,0,0,0.04320987654320988,0,0)" xlink:href="#aJ"/><use transform="matrix(0.04320987654320988,0,0,0.04320987654320988,4.320987654320988,0)" xlink:href="#an"/><use transform="matrix(0.04320987654320988,0,0,0.04320987654320988,12.962962962962964,0)" xlink:href="#bk"/><use transform="matrix(0.04320987654320988,0,0,0.04320987654320988,20.740740740740744,0)" xlink:href="#aq"/><use transform="matrix(0.04320987654320988,0,0,0.04320987654320988,29.382716049382726,0)" xlink:href="#an"/><use transform="matrix(0.04320987654320988,0,0,0.04320987654320988,38.0246913580247,0)" xlink:href="#aw"/><use transform="matrix(0.04320987654320988,0,0,0.04320987654320988,42.345679012345684,0)" xlink:href="#ax"/><use transform="matrix(0.04320987654320988,0,0,0.04320987654320988,50.98765432098766,0)" xlink:href="#az"/><use transform="matrix(0.04320987654320988,0,0,0.04320987654320988,56.12962962962963,0)" xlink:href="#aM"/></g><g id="ab"><use transform="matrix(0.04320987654320988,0,0,0.04320987654320988,0,0)" xlink:href="#aF"/><use transform="matrix(0.04320987654320988,0,0,0.04320987654320988,5.1419753086419755,0)" xlink:href="#aJ"/><use transform="matrix(0.04320987654320988,0,0,0.04320987654320988,9.462962962962964,0)" xlink:href="#an"/><use transform="matrix(0.04320987654320988,0,0,0.04320987654320988,18.10493827160494,0)" xlink:href="#bk"/><use transform="matrix(0.04320987654320988,0,0,0.04320987654320988,25.88271604938272,0)" xlink:href="#aq"/><use transform="matrix(0.04320987654320988,0,0,0.04320987654320988,34.5246913580247,0)" xlink:href="#an"/><use transform="matrix(0.04320987654320988,0,0,0.04320987654320988,43.16666666666667,0)" xlink:href="#aw"/><use transform="matrix(0.04320987654320988,0,0,0.04320987654320988,47.48765432098766,0)" xlink:href="#ax"/><use transform="matrix(0.04320987654320988,0,0,0.04320987654320988,56.12962962962963,0)" xlink:href="#az"/><use transform="matrix(0.04320987654320988,0,0,0.04320987654320988,61.27160493827161,0)" xlink:href="#aM"/><use transform="matrix(0.04320987654320988,0,0,0.04320987654320988,69.0493827160494,0)" xlink:href="#aJ"/><use transform="matrix(0.04320987654320988,0,0,0.04320987654320988,73.37037037037038,0)" xlink:href="#aK"/><use transform="matrix(0.04320987654320988,0,0,0.04320987654320988,84.56172839506173,0)" xlink:href="#aH"/></g><g id="ac"><use transform="matrix(0.04320987654320988,0,0,0.04320987654320988,0,0)" xlink:href="#aL"/><use transform="matrix(0.04320987654320988,0,0,0.04320987654320988,12.098765432098766,0)" xlink:href="#au"/><use transform="matrix(0.04320987654320988,0,0,0.04320987654320988,20.74074074074074,0)" xlink:href="#aE"/><use transform="matrix(0.04320987654320988,0,0,0.04320987654320988,29.382716049382715,0)" xlink:href="#an"/><use transform="matrix(0.04320987654320988,0,0,0.04320987654320988,38.02469135802469,0)" xlink:href="#aw"/><use transform="matrix(0.04320987654320988,0,0,0.04320987654320988,42.34567901234568,0)" xlink:href="#ap"/><use transform="matrix(0.04320987654320988,0,0,0.04320987654320988,45.75925925925927,0)" xlink:href="#aw"/><use transform="matrix(0.04320987654320988,0,0,0.04320987654320988,50.08024691358024,0)" xlink:href="#aM"/><use transform="matrix(0.04320987654320988,0,0,0.04320987654320988,57.85802469135802,0)" xlink:href="#aG"/></g><g id="ad"><use transform="matrix(0.04938271604938272,0,0,0.04938271604938272,0,0)" xlink:href="#aA"/><use transform="matrix(0.04938271604938272,0,0,0.04938271604938272,4.938271604938272,0)" xlink:href="#aJ"/><use transform="matrix(0.04938271604938272,0,0,0.04938271604938272,9.876543209876544,0)" xlink:href="#an"/><use transform="matrix(0.04938271604938272,0,0,0.04938271604938272,19.75308641975309,0)" xlink:href="#bk"/><use transform="matrix(0.04938271604938272,0,0,0.04938271604938272,28.641975308641978,0)" xlink:href="#aq"/><use transform="matrix(0.04938271604938272,0,0,0.04938271604938272,38.51851851851852,0)" xlink:href="#an"/><use transform="matrix(0.04938271604938272,0,0,0.04938271604938272,48.39506172839506,0)" xlink:href="#aw"/><use transform="matrix(0.04938271604938272,0,0,0.04938271604938272,53.333333333333336,0)" xlink:href="#ax"/><use transform="matrix(0.04938271604938272,0,0,0.04938271604938272,63.20987654320988,0)" xlink:href="#az"/><use transform="matrix(0.04938271604938272,0,0,0.04938271604938272,69.08641975308642,0)" xlink:href="#aM"/></g><path d="M99-251c64 0 84 50 84 122C183-37 130 33 47-8c-14-7-20-23-25-40l30-5c6 39 69 39 84 7 9-19 16-44 16-74-10 22-31 35-62 35-49 0-73-33-73-83 0-54 28-83 82-83zm-1 141c31-1 51-18 51-49 0-36-14-67-51-67-34 0-49 23-49 58 0 34 15 58 49 58" id="bO"/><g id="ae"><use transform="matrix(0.04320987654320988,0,0,0.04320987654320988,0,0)" xlink:href="#bO"/><use transform="matrix(0.04320987654320988,0,0,0.04320987654320988,8.641975308641976,0)" xlink:href="#aD"/><use transform="matrix(0.04320987654320988,0,0,0.04320987654320988,12.962962962962964,0)" xlink:href="#aC"/></g><path d="M233-177c-1 41-23 64-60 70L243 0h-38l-65-103H63V0H30v-248c88 3 205-21 203 71zM63-129c60-2 137 13 137-47 0-61-80-42-137-45v92" id="bP"/><path d="M206 0h-36l-40-164L89 0H53L-1-190h32L70-26l43-164h34l41 164 42-164h31" id="bQ"/><g id="af"><use transform="matrix(0.04320987654320988,0,0,0.04320987654320988,0,0)" xlink:href="#bP"/><use transform="matrix(0.04320987654320988,0,0,0.04320987654320988,11.19135802469136,0)" xlink:href="#aq"/><use transform="matrix(0.04320987654320988,0,0,0.04320987654320988,19.833333333333336,0)" xlink:href="#bQ"/><use transform="matrix(0.04320987654320988,0,0,0.04320987654320988,31.024691358024693,0)" xlink:href="#aE"/><use transform="matrix(0.04320987654320988,0,0,0.04320987654320988,39.66666666666667,0)" xlink:href="#az"/><use transform="matrix(0.04320987654320988,0,0,0.04320987654320988,44.808641975308646,0)" xlink:href="#aB"/><use transform="matrix(0.04320987654320988,0,0,0.04320987654320988,53.45061728395062,0)" xlink:href="#av"/></g><g id="ag"><use transform="matrix(0.04320987654320988,0,0,0.04320987654320988,0,0)" xlink:href="#aF"/><use transform="matrix(0.04320987654320988,0,0,0.04320987654320988,5.1419753086419755,0)" xlink:href="#bg"/><use transform="matrix(0.04320987654320988,0,0,0.04320987654320988,12.876543209876544,0)" xlink:href="#ax"/><use transform="matrix(0.04320987654320988,0,0,0.04320987654320988,21.51851851851852,0)" xlink:href="#aw"/><use transform="matrix(0.04320987654320988,0,0,0.04320987654320988,25.839506172839503,0)" xlink:href="#aE"/><use transform="matrix(0.04320987654320988,0,0,0.04320987654320988,34.48148148148148,0)" xlink:href="#ao"/><use transform="matrix(0.04320987654320988,0,0,0.04320987654320988,37.89506172839506,0)" xlink:href="#bf"/><use transform="matrix(0.04320987654320988,0,0,0.04320987654320988,48.26543209876544,0)" xlink:href="#ax"/><use transform="matrix(0.04320987654320988,0,0,0.04320987654320988,56.90740740740741,0)" xlink:href="#ap"/><use transform="matrix(0.04320987654320988,0,0,0.04320987654320988,60.320987654320994,0)" xlink:href="#an"/><use transform="matrix(0.04320987654320988,0,0,0.04320987654320988,68.96296296296298,0)" xlink:href="#aw"/><use transform="matrix(0.04320987654320988,0,0,0.04320987654320988,73.28395061728396,0)" xlink:href="#av"/><use transform="matrix(0.04320987654320988,0,0,0.04320987654320988,81.06172839506175,0)" xlink:href="#aG"/></g><g id="ah"><use transform="matrix(0.05,0,0,0.05,0,0)" xlink:href="#bJ"/><use transform="matrix(0.05,0,0,0.05,10,0)" xlink:href="#bq"/><use transform="matrix(0.05,0,0,0.05,15,0)" xlink:href="#bC"/></g><path fill="#3a414a" d="M33 0v-248h34V0H33" id="bR"/><path fill="#3a414a" d="M210-169c-67 3-38 105-44 169h-31v-121c0-29-5-50-35-48C34-165 62-65 56 0H25l-1-190h30c1 10-1 24 2 32 10-44 99-50 107 0 11-21 27-35 58-36 85-2 47 119 55 194h-31v-121c0-29-5-49-35-48" id="bS"/><g id="ai"><use transform="matrix(0.05,0,0,0.05,0,0)" xlink:href="#bR"/><use transform="matrix(0.05,0,0,0.05,5,0)" xlink:href="#bu"/><use transform="matrix(0.05,0,0,0.05,10,0)" xlink:href="#bG"/><use transform="matrix(0.05,0,0,0.05,20,0)" xlink:href="#bS"/></g><path fill="#3a414a" d="M101-234c-31-9-42 10-38 44h38v23H63V0H32v-167H5v-23h27c-7-52 17-82 69-68v24" id="bT"/><g id="aj"><use transform="matrix(0.05,0,0,0.05,0,0)" xlink:href="#bE"/><use transform="matrix(0.05,0,0,0.05,9,0)" xlink:href="#bw"/><use transform="matrix(0.05,0,0,0.05,19,0)" xlink:href="#bA"/><use transform="matrix(0.05,0,0,0.05,29,0)" xlink:href="#bT"/><use transform="matrix(0.05,0,0,0.05,34,0)" xlink:href="#by"/><use transform="matrix(0.05,0,0,0.05,37.95,0)" xlink:href="#bx"/><use transform="matrix(0.05,0,0,0.05,43.900000000000006,0)" xlink:href="#bS"/><use transform="matrix(0.05,0,0,0.05,58.85,0)" xlink:href="#bs"/><use transform="matrix(0.05,0,0,0.05,68.85000000000001,0)" xlink:href="#bu"/><use transform="matrix(0.05,0,0,0.05,73.85000000000001,0)" xlink:href="#by"/><use transform="matrix(0.05,0,0,0.05,77.80000000000001,0)" xlink:href="#bw"/><use transform="matrix(0.05,0,0,0.05,87.80000000000001,0)" xlink:href="#bA"/></g><g id="ak"><use transform="matrix(0.05,0,0,0.05,0,0)" xlink:href="#bJ"/><use transform="matrix(0.05,0,0,0.05,10,0)" xlink:href="#bq"/><use transform="matrix(0.05,0,0,0.05,15,0)" xlink:href="#bJ"/></g><g id="al"><use transform="matrix(0.05,0,0,0.05,0,0)" xlink:href="#bJ"/><use transform="matrix(0.05,0,0,0.05,10,0)" xlink:href="#bq"/><use transform="matrix(0.05,0,0,0.05,15,0)" xlink:href="#br"/></g></defs></g></svg>