<svg xmlns="http://www.w3.org/2000/svg" xmlns:xlink="http://www.w3.org/1999/xlink" xmlns:lucid="lucid" width="741.5" height="911.27"><g transform="translate(-5.797446013979879 159.59212956070138)" lucid:page-tab-id="iB7wL~eetxXa"><path d="M0-500h1000v1500H0z" fill="#fff"/><path d="M432 30.83a8 8 0 0 1 8-8h24a8 8 0 0 1 8 8v644.52a8 8 0 0 1-8 8h-24a8 8 0 0 1-8-8zM117.4 36.35a8 8 0 0 1 8-8h24a8 8 0 0 1 8 8v639a8 8 0 0 1-8 8h-24a8 8 0 0 1-8-8z" stroke="#f2f2f2" fill="#ced4db"/><path d="M137.9-63.36l.3.02.28.07.26.1.25.16.2.18.2.22.14.24.1.27.08.3.02.28v10.02m0 10.03v20.05m0 10.03V8.68m0 10.02v20.05m0 10.02v20.06m0 10.03V98.9m0 10.04V129m0 10.02v20.05m0 10.03v20.06m0 10.02v20.06m0 10.02v20.06m0 10.03v20.05m0 10.03v20.05m0 10.03v20.06m0 10.03v20.04m0 10.03v20.06m0 10.02v20.06m0 10.03v20.06m0 10.02v20.05m0 10.03v20.05m0 10.03v20.05m0 10.03v20.05m0 10.04v20.06m0 10.02v20.06m0 10.02v20.06m0 10.03v20.04m0 10.03v20.05m0 10.03v10.03M137.92-63.36h-3.5M139.74 750.66v.52" stroke="#333" fill="none"/><path d="M7.3 308a8 8 0 0 1 8-8h84a8 8 0 0 1 8 8v4.93a17.07 17.07 0 0 1-5 12.07 17.07 17.07 0 0 1-12.07 5H15.3a8 8 0 0 1-8-8z" fill="#fff"/><path d="M107.3 300v20l-10 10h-90" stroke="#008a0e" stroke-width="3" fill="none"/><path d="M7.3 308a8 8 0 0 1 8-8H572a8 8 0 0 1 8 8v204a8 8 0 0 1-8 8H15.3a8 8 0 0 1-8-8z" stroke="#008a0e" stroke-width="3" fill="none"/><use xlink:href="#a" transform="matrix(1,0,0,1,15.29744601397988,300) translate(30.65432098765432 18.555555555555557)"/><path d="M462.33-36.6v10m0 10V3.37m0 10v19.98m0 10v19.98m0 10V93.3m0 10v20m0 10v19.97m0 10v19.98m0 10v19.98m0 10v19.98m0 10v20m0 9.98v20m0 9.98v19.98m0 10v19.98m0 10v19.98m0 10v19.98m0 10v19.98m0 10v19.98m0 10V513m0 10v20m0 10v19.97m0 10v19.98m0 10v19.98m0 10v19.98m0 10v20m0 9.98v20m0 9.98v10" stroke="#333" fill="none"/><path d="M462.8-36.58h-.94v-.5h.95z" stroke="#333" stroke-width=".05" fill="#333"/><path d="M462.33 742.84v.5" stroke="#333" fill="none"/><path d="M157.16-139.34c0 10.9-8.84 19.75-19.75 19.75-10.9 0-19.74-8.84-19.74-19.74 0-10.9 8.84-19.75 19.75-19.75 10.92 0 19.76 8.85 19.76 19.76z" stroke="#333" fill="#fff"/><path d="M137.4-119.6v47.3a27.6 27.6 0 0 0 4.3 14.77L177.4-1.1m-40-63.2l-40 63.2m0-98.74h80" stroke="#333" fill="none"/><path d="M97.4-151.1a8 8 0 0 1 8-8h64a8 8 0 0 1 8 8v164a8 8 0 0 1-8 8h-64a8 8 0 0 1-8-8z" fill="none"/><use xlink:href="#b" transform="matrix(1,0,0,1,17.409452385984878,-1.0921295607013803) translate(35.18518518518516 14.555555555555555)"/><use xlink:href="#c" transform="matrix(1,0,0,1,17.409452385984878,-1.0921295607013803) translate(91.38271604938271 14.555555555555555)"/><use xlink:href="#d" transform="matrix(1,0,0,1,17.409452385984878,-1.0921295607013803) translate(127.92592592592592 14.555555555555555)"/><path d="M140.24 84.74H445.94M140.25 84.74h-.5" stroke="#333" fill="none"/><path d="M460.72 84.74l-14.27 4.63V80.1z" stroke="#333" fill="#333"/><use xlink:href="#e" transform="matrix(1,0,0,1,224.6684171204181,88.73639587339898) translate(0.0049999999999954525 14.222222222222223)"/><use xlink:href="#f" transform="matrix(1,0,0,1,224.6684171204181,88.73639587339898) translate(29.63462962962963 14.222222222222223)"/><use xlink:href="#g" transform="matrix(1,0,0,1,224.6684171204181,88.73639587339898) translate(85.78277777777778 14.222222222222223)"/><path d="M367.3-151.1a8 8 0 0 1 8-8h174.07a8 8 0 0 1 8 8v106a8 8 0 0 1-8 8H375.3a8 8 0 0 1-8-8z" stroke="#000" stroke-opacity="0" fill="#6db1ff"/><use xlink:href="#h" transform="matrix(1,0,0,1,375.2974460139799,-151.09212956070138) translate(66.31481481481481 56.55555555555555)"/><path d="M156.13 134.35h4.83m4.83 0h9.65m4.83 0h9.66m4.83 0h9.66m4.83 0h9.66m4.83 0h9.66m4.84 0h9.66m4.84 0h9.65m4.83 0h9.66m4.82 0h9.66m4.83 0h9.71m4.88 0h9.75m4.87 0h9.75m4.87 0h9.75m4.87 0h9.74m4.88 0H379m4.87 0h9.75m4.87 0h9.74m4.87 0h9.75m4.88 0h9.74m4.87 0h9.75m4.86 0h4.87" stroke="#000" fill="none"/><path d="M141.36 134.35l14.27-4.63V139z" stroke="#000"/><path d="M461.82 134.35h.5" stroke="#000" fill="none"/><path d="M177.4 129.35a6 6 0 0 1 6-6h228a6 6 0 0 1 6 6v48a6 6 0 0 1-6 6h-228a6 6 0 0 1-6-6z" fill="none"/><use xlink:href="#i" transform="matrix(1,0,0,1,177.40945238598488,123.35122778244892) translate(15.200000000000003 33.6)"/><use xlink:href="#j" transform="matrix(1,0,0,1,177.40945238598488,123.35122778244892) translate(45.2 33.6)"/><path d="M140.24 186.35H445.94M140.25 186.35h-.5" stroke="#000" fill="none"/><path d="M460.72 186.35L446.45 191v-9.28z" stroke="#000"/><path d="M174.7 188.13a6 6 0 0 1 6-6h228a6 6 0 0 1 6 6v48a6 6 0 0 1-6 6h-228a6 6 0 0 1-6-6z" fill="none"/><use xlink:href="#k" transform="matrix(1,0,0,1,174.70140728920285,182.12954911087377) translate(40.07499999999999 33.6)"/><use xlink:href="#l" transform="matrix(1,0,0,1,174.70140728920285,182.12954911087377) translate(70.07499999999999 33.6)"/><path d="M473 214.02h33.5a6 6 0 0 1 6 6v58.25a6 6 0 0 1-6 6h-19.52" stroke="#3a414a" fill="none"/><path d="M473 214.5h-.5v-.96h.5z" stroke="#3a414a" stroke-width=".05" fill="#3a414a"/><path d="M473.5 284.27l12.98-7.5v15z" stroke="#3a414a" fill="#3a414a"/><path d="M527.3 229.35a6 6 0 0 1 6-6h208a6 6 0 0 1 6 6v40.67a6 6 0 0 1-6 6h-208a6 6 0 0 1-6-6z" fill="#fff" fill-opacity="0"/><use xlink:href="#m" transform="matrix(1,0,0,1,532.2974460139799,228.35122778244892) translate(0 14.222222222222223)"/><use xlink:href="#n" transform="matrix(1,0,0,1,532.2974460139799,228.35122778244892) translate(29.629629629629633 14.222222222222223)"/><path d="M156.13 358.02h4.83m4.83 0h9.65m4.83 0h9.66m4.83 0h9.66m4.83 0h9.66m4.83 0h9.66m4.84 0h9.66m4.84 0h9.65m4.83 0h9.66m4.82 0h9.66m4.83 0h9.71m4.88 0h9.75m4.87 0h9.75m4.87 0h9.75m4.87 0h9.74m4.88 0H379m4.87 0h9.75m4.87 0h9.74m4.87 0h9.75m4.88 0h9.74m4.87 0h9.75m4.86 0h4.87" stroke="#000" fill="none"/><path d="M141.36 358.02l14.27-4.64v9.27z" stroke="#000"/><path d="M461.82 358.02h.5" stroke="#000" fill="none"/><path d="M173.65 466a6 6 0 0 1 6-6h228a6 6 0 0 1 6 6v48a6 6 0 0 1-6 6h-228a6 6 0 0 1-6-6z" fill="none"/><use xlink:href="#o" transform="matrix(1,0,0,1,173.64872300698994,460) translate(5.299999999999983 22.799999999999997)"/><use xlink:href="#p" transform="matrix(1,0,0,1,173.64872300698994,460) translate(45.29999999999998 22.799999999999997)"/><use xlink:href="#q" transform="matrix(1,0,0,1,173.64872300698994,460) translate(157.95000000000002 22.799999999999997)"/><use xlink:href="#r" transform="matrix(1,0,0,1,173.64872300698994,460) translate(171.9 22.799999999999997)"/><use xlink:href="#s" transform="matrix(1,0,0,1,173.64872300698994,460) translate(221.75000000000003 22.799999999999997)"/><use xlink:href="#t" transform="matrix(1,0,0,1,173.64872300698994,460) translate(80.075 44.4)"/><path d="M140.24 530.68H445.94M140.25 530.68h-.5" stroke="#000" fill="none"/><path d="M460.72 530.68l-14.27 4.64v-9.27z" stroke="#000"/><path d="M174.7 529.35a6 6 0 0 1 6-6h228a6 6 0 0 1 6 6v48a6 6 0 0 1-6 6h-228a6 6 0 0 1-6-6z" fill="none"/><use xlink:href="#u" transform="matrix(1,0,0,1,174.70140728920285,523.3512277824489) translate(28.14999999999999 33.6)"/><use xlink:href="#v" transform="matrix(1,0,0,1,174.70140728920285,523.3512277824489) translate(58.14999999999999 33.6)"/><use xlink:href="#w" transform="matrix(1,0,0,1,174.70140728920285,523.3512277824489) translate(122 33.6)"/><path d="M186.3 366a6 6 0 0 1 6-6h219.1a6 6 0 0 1 6 6v23.6a6 6 0 0 1-6 6H192.3a6 6 0 0 1-6-6z" fill="#fff" fill-opacity="0"/><use xlink:href="#x" transform="matrix(1,0,0,1,191.31315608968856,365) translate(0 14.222222222222223)"/><use xlink:href="#y" transform="matrix(1,0,0,1,191.31315608968856,365) translate(39.50617283950618 14.222222222222223)"/><use xlink:href="#z" transform="matrix(1,0,0,1,191.31315608968856,365) translate(88.74074074074075 14.222222222222223)"/><use xlink:href="#A" transform="matrix(1,0,0,1,191.31315608968856,365) translate(106.46913580246914 14.222222222222223)"/><path d="M156.13 452.02h4.83m4.83 0h9.65m4.83 0h9.66m4.83 0h9.66m4.83 0h9.66m4.83 0h9.66m4.84 0h9.66m4.84 0h9.65m4.83 0h9.66m4.82 0h9.66m4.83 0h9.71m4.88 0h9.75m4.87 0h9.75m4.87 0h9.75m4.87 0h9.74m4.88 0H379m4.87 0h9.75m4.87 0h9.74m4.87 0h9.75m4.88 0h9.74m4.87 0h9.75m4.86 0h4.87" stroke="#000" fill="none"/><path d="M141.36 452.02l14.27-4.64v9.27z" stroke="#000"/><path d="M461.82 452.02h.5M462.83 553.35h44.66a5 5 0 0 1 5 5V604a5 5 0 0 1-5 5h-18.62M462.85 553.35h-.52" stroke="#000" fill="none"/><path d="M474.1 609l14.28-4.63v9.26z" stroke="#000"/><path d="M478.5 562.4a6 6 0 0 1 6-6h228a6 6 0 0 1 6 6v48a6 6 0 0 1-6 6h-228a6 6 0 0 1-6-6z" fill="none"/><g><use xlink:href="#B" transform="matrix(1,0,0,1,478.5030179734229,556.4019124062038) translate(53.14999999999999 33.6)"/><use xlink:href="#C" transform="matrix(1,0,0,1,478.5030179734229,556.4019124062038) translate(83.14999999999999 33.6)"/></g><path d="M156.13 643.35h4.83m4.83 0h9.65m4.83 0h9.66m4.83 0h9.66m4.83 0h9.66m4.83 0h9.66m4.84 0h9.66m4.84 0h9.65m4.83 0h9.66m4.82 0h9.66m4.83 0h9.71m4.88 0h9.75m4.87 0h9.75m4.87 0h9.75m4.87 0h9.74m4.88 0H379m4.87 0h9.75m4.87 0h9.74m4.87 0h9.75m4.88 0h9.74m4.87 0h9.75m4.86 0h4.87" stroke="#000" fill="none"/><path d="M141.36 643.35l14.27-4.63V648z" stroke="#000"/><path d="M461.82 643.35h.5" stroke="#000" fill="none"/><path d="M147.3 649.35a6 6 0 0 1 6-6h228a6 6 0 0 1 6 6v48a6 6 0 0 1-6 6h-228a6 6 0 0 1-6-6z" fill="none"/><g><use xlink:href="#D" transform="matrix(1,0,0,1,147.29744601397988,643.3512277824489) translate(25.974999999999994 22.799999999999997)"/><use xlink:href="#E" transform="matrix(1,0,0,1,147.29744601397988,643.3512277824489) translate(55.974999999999994 22.799999999999997)"/><use xlink:href="#F" transform="matrix(1,0,0,1,147.29744601397988,643.3512277824489) translate(74.85 44.4)"/></g><path d="M20.5 408.43h5m4.98 0h9.98m5 0h9.98m5 0h9.97m5 0h9.98m5 0h9.97m5 0h9.97m5 0h9.98m5 0h9.97m5 0h9.97m5 0h9.97m5 0h10m4.98 0h9.98m5 0h9.97m5 0h9.97m5 0h9.97m5 0h9.98m5 0H280m5 0h9.97m4.98 0h9.98m5 0h9.98m5 0h9.97m5 0h9.98m5 0h9.97m5 0h9.97m5 0h9.98m5 0h9.97m5 0h9.97m5 0h9.97m5 0h10m4.98 0h9.98m5 0h9.97m5 0h9.97m5 0h9.97m5 0h9.98m5 0h9.97m5 0h4.98M20.5 408.43H20M559.5 408.43h.5" stroke="#000" fill="none"/><defs><path fill="#008a0e" d="M205 0l-28-72H64L36 0H1l101-248h38L239 0h-34zm-38-99l-47-123c-12 45-31 82-46 123h93" id="G"/><path fill="#008a0e" d="M24 0v-261h32V0H24" id="H"/><path fill="#008a0e" d="M59-47c-2 24 18 29 38 22v24C64 9 27 4 27-40v-127H5v-23h24l9-43h21v43h35v23H59v120" id="I"/><g id="a"><use transform="matrix(0.04938271604938272,0,0,0.04938271604938272,0,0)" xlink:href="#G"/><use transform="matrix(0.04938271604938272,0,0,0.04938271604938272,11.851851851851853,0)" xlink:href="#H"/><use transform="matrix(0.04938271604938272,0,0,0.04938271604938272,15.753086419753087,0)" xlink:href="#I"/></g><path d="M140-251c81 0 123 46 123 126C263-46 219 4 140 4 59 4 17-45 17-125s42-126 123-126zm0 227c63 0 89-41 89-101s-29-99-89-99c-61 0-89 39-89 99S79-25 140-24" id="J"/><path d="M117-194c89-4 53 116 60 194h-32v-121c0-31-8-49-39-48C34-167 62-67 57 0H25l-1-190h30c1 10-1 24 2 32 11-22 29-35 61-36" id="K"/><path d="M24 0v-261h32V0H24" id="L"/><path d="M24-231v-30h32v30H24zM24 0v-190h32V0H24" id="M"/><path d="M100-194c63 0 86 42 84 106H49c0 40 14 67 53 68 26 1 43-12 49-29l28 8c-11 28-37 45-77 45C44 4 14-33 15-96c1-61 26-98 85-98zm52 81c6-60-76-77-97-28-3 7-6 17-6 28h103" id="N"/><g id="b"><use transform="matrix(0.04938271604938272,0,0,0.04938271604938272,0,0)" xlink:href="#J"/><use transform="matrix(0.04938271604938272,0,0,0.04938271604938272,13.827160493827162,0)" xlink:href="#K"/><use transform="matrix(0.04938271604938272,0,0,0.04938271604938272,23.703703703703706,0)" xlink:href="#L"/><use transform="matrix(0.04938271604938272,0,0,0.04938271604938272,27.60493827160494,0)" xlink:href="#M"/><use transform="matrix(0.04938271604938272,0,0,0.04938271604938272,31.506172839506174,0)" xlink:href="#K"/><use transform="matrix(0.04938271604938272,0,0,0.04938271604938272,41.38271604938272,0)" xlink:href="#N"/></g><path d="M205 0l-28-72H64L36 0H1l101-248h38L239 0h-34zm-38-99l-47-123c-12 45-31 82-46 123h93" id="O"/><path d="M115-194c55 1 70 41 70 98S169 2 115 4C84 4 66-9 55-30l1 105H24l-1-265h31l2 30c10-21 28-34 59-34zm-8 174c40 0 45-34 45-75s-6-73-45-74c-42 0-51 32-51 76 0 43 10 73 51 73" id="P"/><g id="c"><use transform="matrix(0.04938271604938272,0,0,0.04938271604938272,0,0)" xlink:href="#O"/><use transform="matrix(0.04938271604938272,0,0,0.04938271604938272,11.851851851851853,0)" xlink:href="#P"/><use transform="matrix(0.04938271604938272,0,0,0.04938271604938272,21.7283950617284,0)" xlink:href="#P"/></g><path d="M212-179c-10-28-35-45-73-45-59 0-87 40-87 99 0 60 29 101 89 101 43 0 62-24 78-52l27 14C228-24 195 4 139 4 59 4 22-46 18-125c-6-104 99-153 187-111 19 9 31 26 39 46" id="Q"/><path d="M84 4C-5 8 30-112 23-190h32v120c0 31 7 50 39 49 72-2 45-101 50-169h31l1 190h-30c-1-10 1-25-2-33-11 22-28 36-60 37" id="R"/><path d="M135-143c-3-34-86-38-87 0 15 53 115 12 119 90S17 21 10-45l28-5c4 36 97 45 98 0-10-56-113-15-118-90-4-57 82-63 122-42 12 7 21 19 24 35" id="S"/><path d="M59-47c-2 24 18 29 38 22v24C64 9 27 4 27-40v-127H5v-23h24l9-43h21v43h35v23H59v120" id="T"/><path d="M100-194c62-1 85 37 85 99 1 63-27 99-86 99S16-35 15-95c0-66 28-99 85-99zM99-20c44 1 53-31 53-75 0-43-8-75-51-75s-53 32-53 75 10 74 51 75" id="U"/><path d="M210-169c-67 3-38 105-44 169h-31v-121c0-29-5-50-35-48C34-165 62-65 56 0H25l-1-190h30c1 10-1 24 2 32 10-44 99-50 107 0 11-21 27-35 58-36 85-2 47 119 55 194h-31v-121c0-29-5-49-35-48" id="V"/><path d="M114-163C36-179 61-72 57 0H25l-1-190h30c1 12-1 29 2 39 6-27 23-49 58-41v29" id="W"/><g id="d"><use transform="matrix(0.04938271604938272,0,0,0.04938271604938272,0,0)" xlink:href="#Q"/><use transform="matrix(0.04938271604938272,0,0,0.04938271604938272,12.790123456790125,0)" xlink:href="#R"/><use transform="matrix(0.04938271604938272,0,0,0.04938271604938272,22.66666666666667,0)" xlink:href="#S"/><use transform="matrix(0.04938271604938272,0,0,0.04938271604938272,31.555555555555557,0)" xlink:href="#T"/><use transform="matrix(0.04938271604938272,0,0,0.04938271604938272,36.49382716049384,0)" xlink:href="#U"/><use transform="matrix(0.04938271604938272,0,0,0.04938271604938272,46.37037037037038,0)" xlink:href="#V"/><use transform="matrix(0.04938271604938272,0,0,0.04938271604938272,61.13580246913581,0)" xlink:href="#N"/><use transform="matrix(0.04938271604938272,0,0,0.04938271604938272,71.01234567901236,0)" xlink:href="#W"/></g><path d="M27 0v-27h64v-190l-56 39v-29l58-41h29v221h61V0H27" id="X"/><path d="M33 0v-38h34V0H33" id="Y"/><g id="e"><use transform="matrix(0.04938271604938272,0,0,0.04938271604938272,0,0)" xlink:href="#X"/><use transform="matrix(0.04938271604938272,0,0,0.04938271604938272,9.876543209876544,0)" xlink:href="#Y"/><use transform="matrix(0.04938271604938272,0,0,0.04938271604938272,14.814814814814817,0)" xlink:href="#X"/></g><path d="M141-36C126-15 110 5 73 4 37 3 15-17 15-53c-1-64 63-63 125-63 3-35-9-54-41-54-24 1-41 7-42 31l-33-3c5-37 33-52 76-52 45 0 72 20 72 64v82c-1 20 7 32 28 27v20c-31 9-61-2-59-35zM48-53c0 20 12 33 32 33 41-3 63-29 60-74-43 2-92-5-92 41" id="Z"/><g id="f"><use transform="matrix(0.04938271604938272,0,0,0.04938271604938272,0,0)" xlink:href="#M"/><use transform="matrix(0.04938271604938272,0,0,0.04938271604938272,3.901234567901235,0)" xlink:href="#K"/><use transform="matrix(0.04938271604938272,0,0,0.04938271604938272,13.777777777777779,0)" xlink:href="#M"/><use transform="matrix(0.04938271604938272,0,0,0.04938271604938272,17.679012345679013,0)" xlink:href="#T"/><use transform="matrix(0.04938271604938272,0,0,0.04938271604938272,22.617283950617285,0)" xlink:href="#M"/><use transform="matrix(0.04938271604938272,0,0,0.04938271604938272,26.51851851851852,0)" xlink:href="#Z"/><use transform="matrix(0.04938271604938272,0,0,0.04938271604938272,36.39506172839506,0)" xlink:href="#T"/><use transform="matrix(0.04938271604938272,0,0,0.04938271604938272,41.333333333333336,0)" xlink:href="#N"/></g><path d="M177-190C167-65 218 103 67 71c-23-6-38-20-44-43l32-5c15 47 100 32 89-28v-30C133-14 115 1 83 1 29 1 15-40 15-95c0-56 16-97 71-98 29-1 48 16 59 35 1-10 0-23 2-32h30zM94-22c36 0 50-32 50-73 0-42-14-75-50-75-39 0-46 34-46 75s6 73 46 73" id="aa"/><path d="M232-93c-1 65-40 97-104 97C67 4 28-28 28-90v-158h33c8 89-33 224 67 224 102 0 64-133 71-224h33v155" id="ab"/><path d="M87 75C49 33 22-17 22-94c0-76 28-126 65-167h31c-38 41-64 92-64 168S80 34 118 75H87" id="ac"/><path d="M33-261c38 41 65 92 65 168S71 34 33 75H2C39 34 66-17 66-93S39-220 2-261h31" id="ad"/><g id="g"><use transform="matrix(0.04938271604938272,0,0,0.04938271604938272,0,0)" xlink:href="#S"/><use transform="matrix(0.04938271604938272,0,0,0.04938271604938272,8.88888888888889,0)" xlink:href="#M"/><use transform="matrix(0.04938271604938272,0,0,0.04938271604938272,12.790123456790125,0)" xlink:href="#aa"/><use transform="matrix(0.04938271604938272,0,0,0.04938271604938272,22.666666666666668,0)" xlink:href="#K"/><use transform="matrix(0.04938271604938272,0,0,0.04938271604938272,32.543209876543216,0)" xlink:href="#ab"/><use transform="matrix(0.04938271604938272,0,0,0.04938271604938272,45.33333333333334,0)" xlink:href="#P"/><use transform="matrix(0.04938271604938272,0,0,0.04938271604938272,55.209876543209894,0)" xlink:href="#ac"/><use transform="matrix(0.04938271604938272,0,0,0.04938271604938272,61.08641975308644,0)" xlink:href="#ad"/></g><path d="M33-154v-36h34v36H33zM33 0v-36h34V0H33" id="ae"/><g id="h"><use transform="matrix(0.04938271604938272,0,0,0.04938271604938272,0,0)" xlink:href="#ae"/><use transform="matrix(0.04938271604938272,0,0,0.04938271604938272,4.938271604938272,0)" xlink:href="#ab"/><use transform="matrix(0.04938271604938272,0,0,0.04938271604938272,17.7283950617284,0)" xlink:href="#S"/><use transform="matrix(0.04938271604938272,0,0,0.04938271604938272,26.617283950617285,0)" xlink:href="#N"/><use transform="matrix(0.04938271604938272,0,0,0.04938271604938272,36.49382716049384,0)" xlink:href="#W"/></g><path d="M101-251c82-7 93 87 43 132L82-64C71-53 59-42 53-27h129V0H18c2-99 128-94 128-182 0-28-16-43-45-43s-46 15-49 41l-32-3c6-41 34-60 81-64" id="af"/><g id="i"><use transform="matrix(0.05,0,0,0.05,0,0)" xlink:href="#af"/><use transform="matrix(0.05,0,0,0.05,10,0)" xlink:href="#Y"/><use transform="matrix(0.05,0,0,0.05,15,0)" xlink:href="#X"/></g><path d="M85-194c31 0 48 13 60 33l-1-100h32l1 261h-30c-2-10 0-23-3-31C134-8 116 4 85 4 32 4 16-35 15-94c0-66 23-100 70-100zm9 24c-40 0-46 34-46 75 0 40 6 74 45 74 42 0 51-32 51-76 0-42-9-74-50-73" id="ag"/><path d="M179-190L93 31C79 59 56 82 12 73V49c39 6 53-20 64-50L1-190h34L92-34l54-156h33" id="ah"/><path d="M115-194c53 0 69 39 70 98 0 66-23 100-70 100C84 3 66-7 56-30L54 0H23l1-261h32v101c10-23 28-34 59-34zm-8 174c40 0 45-34 45-75 0-40-5-75-45-74-42 0-51 32-51 76 0 43 10 73 51 73" id="ai"/><path d="M101-234c-31-9-42 10-38 44h38v23H63V0H32v-167H5v-23h27c-7-52 17-82 69-68v24" id="aj"/><g id="j"><use transform="matrix(0.05,0,0,0.05,0,0)" xlink:href="#ag"/><use transform="matrix(0.05,0,0,0.05,10,0)" xlink:href="#M"/><use transform="matrix(0.05,0,0,0.05,13.949999999999998,0)" xlink:href="#S"/><use transform="matrix(0.05,0,0,0.05,22.95,0)" xlink:href="#P"/><use transform="matrix(0.05,0,0,0.05,32.95,0)" xlink:href="#L"/><use transform="matrix(0.05,0,0,0.05,36.900000000000006,0)" xlink:href="#Z"/><use transform="matrix(0.05,0,0,0.05,46.900000000000006,0)" xlink:href="#ah"/><use transform="matrix(0.05,0,0,0.05,55.900000000000006,0)" xlink:href="#O"/><use transform="matrix(0.05,0,0,0.05,67.9,0)" xlink:href="#L"/><use transform="matrix(0.05,0,0,0.05,71.85000000000001,0)" xlink:href="#L"/><use transform="matrix(0.05,0,0,0.05,75.80000000000001,0)" xlink:href="#O"/><use transform="matrix(0.05,0,0,0.05,87.80000000000001,0)" xlink:href="#T"/><use transform="matrix(0.05,0,0,0.05,92.80000000000001,0)" xlink:href="#W"/><use transform="matrix(0.05,0,0,0.05,98.75000000000001,0)" xlink:href="#M"/><use transform="matrix(0.05,0,0,0.05,102.7,0)" xlink:href="#ai"/><use transform="matrix(0.05,0,0,0.05,112.7,0)" xlink:href="#R"/><use transform="matrix(0.05,0,0,0.05,122.7,0)" xlink:href="#T"/><use transform="matrix(0.05,0,0,0.05,127.7,0)" xlink:href="#N"/><use transform="matrix(0.05,0,0,0.05,137.70000000000002,0)" xlink:href="#aj"/><use transform="matrix(0.05,0,0,0.05,142.70000000000002,0)" xlink:href="#M"/><use transform="matrix(0.05,0,0,0.05,146.65,0)" xlink:href="#N"/><use transform="matrix(0.05,0,0,0.05,156.65,0)" xlink:href="#L"/><use transform="matrix(0.05,0,0,0.05,160.6,0)" xlink:href="#ag"/><use transform="matrix(0.05,0,0,0.05,170.6,0)" xlink:href="#S"/></g><path d="M126-127c33 6 58 20 58 59 0 88-139 92-164 29-3-8-5-16-6-25l32-3c6 27 21 44 54 44 32 0 52-15 52-46 0-38-36-46-79-43v-28c39 1 72-4 72-42 0-27-17-43-46-43-28 0-47 15-49 41l-32-3c6-42 35-63 81-64 48-1 79 21 79 65 0 36-21 52-52 59" id="ak"/><g id="k"><use transform="matrix(0.05,0,0,0.05,0,0)" xlink:href="#ak"/><use transform="matrix(0.05,0,0,0.05,10,0)" xlink:href="#Y"/><use transform="matrix(0.05,0,0,0.05,15,0)" xlink:href="#X"/></g><path d="M33 0v-248h34V0H33" id="al"/><g id="l"><use transform="matrix(0.05,0,0,0.05,0,0)" xlink:href="#al"/><use transform="matrix(0.05,0,0,0.05,5,0)" xlink:href="#K"/><use transform="matrix(0.05,0,0,0.05,15,0)" xlink:href="#P"/><use transform="matrix(0.05,0,0,0.05,25,0)" xlink:href="#R"/><use transform="matrix(0.05,0,0,0.05,35,0)" xlink:href="#T"/><use transform="matrix(0.05,0,0,0.05,40,0)" xlink:href="#al"/><use transform="matrix(0.05,0,0,0.05,45,0)" xlink:href="#K"/><use transform="matrix(0.05,0,0,0.05,55,0)" xlink:href="#aj"/><use transform="matrix(0.05,0,0,0.05,60,0)" xlink:href="#U"/><use transform="matrix(0.05,0,0,0.05,70,0)" xlink:href="#W"/><use transform="matrix(0.05,0,0,0.05,75.95,0)" xlink:href="#V"/><use transform="matrix(0.05,0,0,0.05,90.9,0)" xlink:href="#Z"/><use transform="matrix(0.05,0,0,0.05,100.9,0)" xlink:href="#T"/><use transform="matrix(0.05,0,0,0.05,105.9,0)" xlink:href="#M"/><use transform="matrix(0.05,0,0,0.05,109.85000000000001,0)" xlink:href="#U"/><use transform="matrix(0.05,0,0,0.05,119.85000000000001,0)" xlink:href="#K"/></g><path fill="#333" d="M155-56V0h-30v-56H8v-25l114-167h33v167h35v25h-35zm-30-156c-27 46-58 90-88 131h88v-131" id="am"/><path fill="#333" d="M33 0v-38h34V0H33" id="an"/><path fill="#333" d="M27 0v-27h64v-190l-56 39v-29l58-41h29v221h61V0H27" id="ao"/><g id="m"><use transform="matrix(0.04938271604938272,0,0,0.04938271604938272,0,0)" xlink:href="#am"/><use transform="matrix(0.04938271604938272,0,0,0.04938271604938272,9.876543209876544,0)" xlink:href="#an"/><use transform="matrix(0.04938271604938272,0,0,0.04938271604938272,14.814814814814817,0)" xlink:href="#ao"/></g><path fill="#333" d="M30 0v-248h33v221h125V0H30" id="ap"/><path fill="#333" d="M24-231v-30h32v30H24zM24 0v-190h32V0H24" id="aq"/><path fill="#333" d="M135-143c-3-34-86-38-87 0 15 53 115 12 119 90S17 21 10-45l28-5c4 36 97 45 98 0-10-56-113-15-118-90-4-57 82-63 122-42 12 7 21 19 24 35" id="ar"/><path fill="#333" d="M59-47c-2 24 18 29 38 22v24C64 9 27 4 27-40v-127H5v-23h24l9-43h21v43h35v23H59v120" id="as"/><path fill="#333" d="M30 0v-248h187v28H63v79h144v27H63v87h162V0H30" id="at"/><path fill="#333" d="M210-169c-67 3-38 105-44 169h-31v-121c0-29-5-50-35-48C34-165 62-65 56 0H25l-1-190h30c1 10-1 24 2 32 10-44 99-50 107 0 11-21 27-35 58-36 85-2 47 119 55 194h-31v-121c0-29-5-49-35-48" id="au"/><path fill="#333" d="M141-36C126-15 110 5 73 4 37 3 15-17 15-53c-1-64 63-63 125-63 3-35-9-54-41-54-24 1-41 7-42 31l-33-3c5-37 33-52 76-52 45 0 72 20 72 64v82c-1 20 7 32 28 27v20c-31 9-61-2-59-35zM48-53c0 20 12 33 32 33 41-3 63-29 60-74-43 2-92-5-92 41" id="av"/><path fill="#333" d="M24 0v-261h32V0H24" id="aw"/><path fill="#333" d="M87 75C49 33 22-17 22-94c0-76 28-126 65-167h31c-38 41-64 92-64 168S80 34 118 75H87" id="ax"/><path fill="#333" d="M33-261c38 41 65 92 65 168S71 34 33 75H2C39 34 66-17 66-93S39-220 2-261h31" id="ay"/><g id="n"><use transform="matrix(0.04938271604938272,0,0,0.04938271604938272,0,0)" xlink:href="#ap"/><use transform="matrix(0.04938271604938272,0,0,0.04938271604938272,9.876543209876544,0)" xlink:href="#aq"/><use transform="matrix(0.04938271604938272,0,0,0.04938271604938272,13.777777777777779,0)" xlink:href="#ar"/><use transform="matrix(0.04938271604938272,0,0,0.04938271604938272,22.666666666666668,0)" xlink:href="#as"/><use transform="matrix(0.04938271604938272,0,0,0.04938271604938272,27.60493827160494,0)" xlink:href="#at"/><use transform="matrix(0.04938271604938272,0,0,0.04938271604938272,39.45679012345679,0)" xlink:href="#au"/><use transform="matrix(0.04938271604938272,0,0,0.04938271604938272,54.22222222222223,0)" xlink:href="#av"/><use transform="matrix(0.04938271604938272,0,0,0.04938271604938272,64.09876543209877,0)" xlink:href="#aq"/><use transform="matrix(0.04938271604938272,0,0,0.04938271604938272,68.00000000000001,0)" xlink:href="#aw"/><use transform="matrix(0.04938271604938272,0,0,0.04938271604938272,71.90123456790126,0)" xlink:href="#ax"/><use transform="matrix(0.04938271604938272,0,0,0.04938271604938272,77.7777777777778,0)" xlink:href="#ay"/></g><path d="M155-56V0h-30v-56H8v-25l114-167h33v167h35v25h-35zm-30-156c-27 46-58 90-88 131h88v-131" id="az"/><g id="o"><use transform="matrix(0.05,0,0,0.05,0,0)" xlink:href="#az"/><use transform="matrix(0.05,0,0,0.05,10,0)" xlink:href="#Y"/><use transform="matrix(0.05,0,0,0.05,15,0)" xlink:href="#af"/><use transform="matrix(0.05,0,0,0.05,25,0)" xlink:href="#ai"/></g><path d="M30 0v-248h187v28H63v79h144v27H63v87h162V0H30" id="aA"/><g id="p"><use transform="matrix(0.05,0,0,0.05,0,0)" xlink:href="#ag"/><use transform="matrix(0.05,0,0,0.05,10,0)" xlink:href="#M"/><use transform="matrix(0.05,0,0,0.05,13.949999999999998,0)" xlink:href="#S"/><use transform="matrix(0.05,0,0,0.05,22.95,0)" xlink:href="#P"/><use transform="matrix(0.05,0,0,0.05,32.95,0)" xlink:href="#L"/><use transform="matrix(0.05,0,0,0.05,36.900000000000006,0)" xlink:href="#Z"/><use transform="matrix(0.05,0,0,0.05,46.900000000000006,0)" xlink:href="#ah"/><use transform="matrix(0.05,0,0,0.05,55.900000000000006,0)" xlink:href="#aA"/><use transform="matrix(0.05,0,0,0.05,67.9,0)" xlink:href="#W"/><use transform="matrix(0.05,0,0,0.05,73.85000000000001,0)" xlink:href="#W"/><use transform="matrix(0.05,0,0,0.05,79.80000000000001,0)" xlink:href="#U"/><use transform="matrix(0.05,0,0,0.05,89.80000000000001,0)" xlink:href="#W"/><use transform="matrix(0.05,0,0,0.05,95.75000000000001,0)" xlink:href="#ac"/><use transform="matrix(0.05,0,0,0.05,101.70000000000002,0)" xlink:href="#ad"/></g><g id="q"><use transform="matrix(0.05,0,0,0.05,0,0)" xlink:href="#M"/><use transform="matrix(0.05,0,0,0.05,3.95,0)" xlink:href="#aj"/></g><g id="r"><use transform="matrix(0.05,0,0,0.05,0,0)" xlink:href="#aA"/><use transform="matrix(0.05,0,0,0.05,12,0)" xlink:href="#V"/><use transform="matrix(0.05,0,0,0.05,26.950000000000003,0)" xlink:href="#Z"/><use transform="matrix(0.05,0,0,0.05,36.95,0)" xlink:href="#M"/><use transform="matrix(0.05,0,0,0.05,40.900000000000006,0)" xlink:href="#L"/></g><g id="s"><use transform="matrix(0.05,0,0,0.05,0,0)" xlink:href="#M"/><use transform="matrix(0.05,0,0,0.05,3.95,0)" xlink:href="#S"/></g><g id="t"><use transform="matrix(0.05,0,0,0.05,0,0)" xlink:href="#W"/><use transform="matrix(0.05,0,0,0.05,5.95,0)" xlink:href="#N"/><use transform="matrix(0.05,0,0,0.05,15.949999999999998,0)" xlink:href="#aa"/><use transform="matrix(0.05,0,0,0.05,25.950000000000003,0)" xlink:href="#M"/><use transform="matrix(0.05,0,0,0.05,29.899999999999995,0)" xlink:href="#S"/><use transform="matrix(0.05,0,0,0.05,38.9,0)" xlink:href="#T"/><use transform="matrix(0.05,0,0,0.05,43.9,0)" xlink:href="#N"/><use transform="matrix(0.05,0,0,0.05,53.900000000000006,0)" xlink:href="#W"/><use transform="matrix(0.05,0,0,0.05,59.85,0)" xlink:href="#N"/><use transform="matrix(0.05,0,0,0.05,69.85,0)" xlink:href="#ag"/></g><path d="M54-142c48-35 137-8 131 61C196 18 31 33 14-55l32-4c7 23 22 37 52 37 35-1 51-22 54-58 4-55-73-65-99-34H22l8-134h141v27H59" id="aB"/><g id="u"><use transform="matrix(0.05,0,0,0.05,0,0)" xlink:href="#aB"/><use transform="matrix(0.05,0,0,0.05,10,0)" xlink:href="#Y"/><use transform="matrix(0.05,0,0,0.05,15,0)" xlink:href="#X"/></g><path d="M96-169c-40 0-48 33-48 73s9 75 48 75c24 0 41-14 43-38l32 2c-6 37-31 61-74 61-59 0-76-41-82-99-10-93 101-131 147-64 4 7 5 14 7 22l-32 3c-4-21-16-35-41-35" id="aC"/><g id="v"><use transform="matrix(0.05,0,0,0.05,0,0)" xlink:href="#aC"/><use transform="matrix(0.05,0,0,0.05,9,0)" xlink:href="#U"/><use transform="matrix(0.05,0,0,0.05,19,0)" xlink:href="#K"/><use transform="matrix(0.05,0,0,0.05,29,0)" xlink:href="#aj"/><use transform="matrix(0.05,0,0,0.05,34,0)" xlink:href="#M"/><use transform="matrix(0.05,0,0,0.05,37.95,0)" xlink:href="#W"/><use transform="matrix(0.05,0,0,0.05,43.900000000000006,0)" xlink:href="#V"/></g><g id="w"><use transform="matrix(0.05,0,0,0.05,0,0)" xlink:href="#al"/><use transform="matrix(0.05,0,0,0.05,5,0)" xlink:href="#K"/><use transform="matrix(0.05,0,0,0.05,15,0)" xlink:href="#aj"/><use transform="matrix(0.05,0,0,0.05,20,0)" xlink:href="#U"/><use transform="matrix(0.05,0,0,0.05,30,0)" xlink:href="#W"/><use transform="matrix(0.05,0,0,0.05,35.95,0)" xlink:href="#V"/><use transform="matrix(0.05,0,0,0.05,50.900000000000006,0)" xlink:href="#Z"/><use transform="matrix(0.05,0,0,0.05,60.900000000000006,0)" xlink:href="#T"/><use transform="matrix(0.05,0,0,0.05,65.9,0)" xlink:href="#M"/><use transform="matrix(0.05,0,0,0.05,69.85000000000001,0)" xlink:href="#U"/><use transform="matrix(0.05,0,0,0.05,79.85000000000001,0)" xlink:href="#K"/></g><g id="x"><use transform="matrix(0.04938271604938272,0,0,0.04938271604938272,0,0)" xlink:href="#az"/><use transform="matrix(0.04938271604938272,0,0,0.04938271604938272,9.876543209876544,0)" xlink:href="#Y"/><use transform="matrix(0.04938271604938272,0,0,0.04938271604938272,14.814814814814817,0)" xlink:href="#af"/><use transform="matrix(0.04938271604938272,0,0,0.04938271604938272,24.69135802469136,0)" xlink:href="#Z"/></g><g id="y"><use transform="matrix(0.04938271604938272,0,0,0.04938271604938272,0,0)" xlink:href="#aA"/><use transform="matrix(0.04938271604938272,0,0,0.04938271604938272,11.851851851851853,0)" xlink:href="#V"/><use transform="matrix(0.04938271604938272,0,0,0.04938271604938272,26.617283950617285,0)" xlink:href="#Z"/><use transform="matrix(0.04938271604938272,0,0,0.04938271604938272,36.49382716049383,0)" xlink:href="#M"/><use transform="matrix(0.04938271604938272,0,0,0.04938271604938272,40.39506172839506,0)" xlink:href="#L"/></g><g id="z"><use transform="matrix(0.04938271604938272,0,0,0.04938271604938272,0,0)" xlink:href="#M"/><use transform="matrix(0.04938271604938272,0,0,0.04938271604938272,3.901234567901235,0)" xlink:href="#S"/></g><g id="A"><use transform="matrix(0.04938271604938272,0,0,0.04938271604938272,0,0)" xlink:href="#R"/><use transform="matrix(0.04938271604938272,0,0,0.04938271604938272,9.876543209876544,0)" xlink:href="#K"/><use transform="matrix(0.04938271604938272,0,0,0.04938271604938272,19.75308641975309,0)" xlink:href="#W"/><use transform="matrix(0.04938271604938272,0,0,0.04938271604938272,25.629629629629633,0)" xlink:href="#N"/><use transform="matrix(0.04938271604938272,0,0,0.04938271604938272,35.50617283950618,0)" xlink:href="#aa"/><use transform="matrix(0.04938271604938272,0,0,0.04938271604938272,45.38271604938272,0)" xlink:href="#M"/><use transform="matrix(0.04938271604938272,0,0,0.04938271604938272,49.283950617283956,0)" xlink:href="#S"/><use transform="matrix(0.04938271604938272,0,0,0.04938271604938272,58.17283950617284,0)" xlink:href="#T"/><use transform="matrix(0.04938271604938272,0,0,0.04938271604938272,63.111111111111114,0)" xlink:href="#N"/><use transform="matrix(0.04938271604938272,0,0,0.04938271604938272,72.98765432098767,0)" xlink:href="#W"/><use transform="matrix(0.04938271604938272,0,0,0.04938271604938272,78.86419753086422,0)" xlink:href="#N"/><use transform="matrix(0.04938271604938272,0,0,0.04938271604938272,88.74074074074076,0)" xlink:href="#ag"/></g><path d="M110-160c48 1 74 30 74 79 0 53-28 85-80 85-65 0-83-55-86-122-5-90 50-162 133-122 14 7 22 21 27 39l-31 6c-5-40-67-38-82-6-9 19-15 44-15 74 11-20 30-34 60-33zm-7 138c34 0 49-23 49-58s-16-56-50-56c-29 0-50 16-49 49 1 36 15 65 50 65" id="aD"/><g id="B"><use transform="matrix(0.05,0,0,0.05,0,0)" xlink:href="#aD"/><use transform="matrix(0.05,0,0,0.05,10,0)" xlink:href="#Y"/><use transform="matrix(0.05,0,0,0.05,15,0)" xlink:href="#X"/></g><g id="C"><use transform="matrix(0.05,0,0,0.05,0,0)" xlink:href="#Q"/><use transform="matrix(0.05,0,0,0.05,12.950000000000001,0)" xlink:href="#W"/><use transform="matrix(0.05,0,0,0.05,18.900000000000002,0)" xlink:href="#N"/><use transform="matrix(0.05,0,0,0.05,28.900000000000002,0)" xlink:href="#Z"/><use transform="matrix(0.05,0,0,0.05,38.900000000000006,0)" xlink:href="#T"/><use transform="matrix(0.05,0,0,0.05,43.900000000000006,0)" xlink:href="#N"/><use transform="matrix(0.05,0,0,0.05,53.900000000000006,0)" xlink:href="#ab"/><use transform="matrix(0.05,0,0,0.05,66.85000000000001,0)" xlink:href="#S"/><use transform="matrix(0.05,0,0,0.05,75.85000000000001,0)" xlink:href="#N"/><use transform="matrix(0.05,0,0,0.05,85.85000000000001,0)" xlink:href="#W"/><use transform="matrix(0.05,0,0,0.05,91.80000000000001,0)" xlink:href="#ac"/><use transform="matrix(0.05,0,0,0.05,97.75000000000001,0)" xlink:href="#ad"/></g><g id="D"><use transform="matrix(0.05,0,0,0.05,0,0)" xlink:href="#aD"/><use transform="matrix(0.05,0,0,0.05,10,0)" xlink:href="#Y"/><use transform="matrix(0.05,0,0,0.05,15,0)" xlink:href="#af"/></g><path d="M109-170H84l-4-78h32zm-65 0H19l-4-78h33" id="aE"/><path d="M233-177c-1 41-23 64-60 70L243 0h-38l-65-103H63V0H30v-248c88 3 205-21 203 71zM63-129c60-2 137 13 137-47 0-61-80-42-137-45v92" id="aF"/><g id="E"><use transform="matrix(0.05,0,0,0.05,0,0)" xlink:href="#ag"/><use transform="matrix(0.05,0,0,0.05,10,0)" xlink:href="#M"/><use transform="matrix(0.05,0,0,0.05,13.949999999999998,0)" xlink:href="#S"/><use transform="matrix(0.05,0,0,0.05,22.95,0)" xlink:href="#P"/><use transform="matrix(0.05,0,0,0.05,32.95,0)" xlink:href="#L"/><use transform="matrix(0.05,0,0,0.05,36.900000000000006,0)" xlink:href="#Z"/><use transform="matrix(0.05,0,0,0.05,46.900000000000006,0)" xlink:href="#ah"/><use transform="matrix(0.05,0,0,0.05,55.900000000000006,0)" xlink:href="#aE"/><use transform="matrix(0.05,0,0,0.05,62.25,0)" xlink:href="#aF"/><use transform="matrix(0.05,0,0,0.05,75.2,0)" xlink:href="#N"/><use transform="matrix(0.05,0,0,0.05,85.2,0)" xlink:href="#aa"/><use transform="matrix(0.05,0,0,0.05,95.2,0)" xlink:href="#M"/><use transform="matrix(0.05,0,0,0.05,99.15,0)" xlink:href="#S"/><use transform="matrix(0.05,0,0,0.05,108.15,0)" xlink:href="#T"/><use transform="matrix(0.05,0,0,0.05,113.15,0)" xlink:href="#W"/><use transform="matrix(0.05,0,0,0.05,119.10000000000001,0)" xlink:href="#Z"/><use transform="matrix(0.05,0,0,0.05,129.10000000000002,0)" xlink:href="#T"/><use transform="matrix(0.05,0,0,0.05,134.10000000000002,0)" xlink:href="#M"/><use transform="matrix(0.05,0,0,0.05,138.05,0)" xlink:href="#U"/><use transform="matrix(0.05,0,0,0.05,148.05,0)" xlink:href="#K"/></g><g id="F"><use transform="matrix(0.05,0,0,0.05,0,0)" xlink:href="#S"/><use transform="matrix(0.05,0,0,0.05,9,0)" xlink:href="#R"/><use transform="matrix(0.05,0,0,0.05,19,0)" xlink:href="#aC"/><use transform="matrix(0.05,0,0,0.05,28,0)" xlink:href="#aC"/><use transform="matrix(0.05,0,0,0.05,37,0)" xlink:href="#N"/><use transform="matrix(0.05,0,0,0.05,47,0)" xlink:href="#S"/><use transform="matrix(0.05,0,0,0.05,56,0)" xlink:href="#S"/><use transform="matrix(0.05,0,0,0.05,65,0)" xlink:href="#aj"/><use transform="matrix(0.05,0,0,0.05,70,0)" xlink:href="#R"/><use transform="matrix(0.05,0,0,0.05,80,0)" xlink:href="#L"/><use transform="matrix(0.05,0,0,0.05,83.95,0)" xlink:href="#aE"/></g></defs></g></svg>